<?xml version="1.0" encoding="UTF-8" standalone="no"?>
<!-- Created with Inkscape (http://www.inkscape.org/) -->

<svg
   xmlns:dc="http://purl.org/dc/elements/1.1/"
   xmlns:cc="http://creativecommons.org/ns#"
   xmlns:rdf="http://www.w3.org/1999/02/22-rdf-syntax-ns#"
   xmlns:svg="http://www.w3.org/2000/svg"
   xmlns="http://www.w3.org/2000/svg"
   xmlns:sodipodi="http://sodipodi.sourceforge.net/DTD/sodipodi-0.dtd"
   xmlns:inkscape="http://www.inkscape.org/namespaces/inkscape"
   sodipodi:docname="clear3.svg"
   inkscape:version=""
   id="svg18634"
   version="1.1"
   viewBox="0 0 53.869167 48.180626"
   height="48.180626mm"
   width="53.869167mm">
  <sodipodi:namedview
     fit-margin-bottom="0"
     fit-margin-right="0"
     fit-margin-left="0"
     fit-margin-top="0"
     showgrid="false"
     inkscape:current-layer="layer1"
     inkscape:document-units="mm"
     inkscape:cy="91.050002"
     inkscape:cx="101.8"
     inkscape:zoom="4.5853926"
     inkscape:pageshadow="2"
     inkscape:pageopacity="0.0"
     borderopacity="1.0"
     bordercolor="#666666"
     pagecolor="#ffffff"
     id="base" />
  <defs
     id="defs18628" />
  <metadata
     id="metadata18631">
    <rdf:RDF>
      <cc:Work
         rdf:about="">
        <dc:format>image/svg+xml</dc:format>
        <dc:type
           rdf:resource="http://purl.org/dc/dcmitype/StillImage" />
        <dc:title></dc:title>
      </cc:Work>
    </rdf:RDF>
  </metadata>
  <g
     inkscape:label="Layer 1"
     inkscape:groupmode="layer"
     id="layer1"
     transform="translate(24.666722,12.840312)">
    <polygon
       points="502.4,315.9 479.4,264.4 483.3,306.9 "
       class="st1"
       id="XMLID_37_"
       transform="matrix(0.26458333,0,0,0.26458333,-151.50797,-75.361353)"
       style="stroke-width:2.00000003;stroke-miterlimit:4;stroke-dasharray:none;stroke:#f6f6f6;stroke-opacity:1;stroke-linejoin:round;fill:none;fill-opacity:1;opacity:0.969762450608" />
    <polygon
       points="502.4,315.9 479.4,264.4 518.4,287 "
       class="st2"
       id="XMLID_38_"
       transform="matrix(0.26458333,0,0,0.26458333,-151.50797,-75.361353)"
       style="stroke-width:2.00000003;stroke-miterlimit:4;stroke-dasharray:none;stroke:#e8e8e8;stroke-opacity:1;stroke-linejoin:round;fill:none;fill-opacity:1;opacity:0.93310763437" />
    <polygon
       points="518.4,287.6 479.4,265 517.2,265 "
       class="st4"
       id="XMLID_39_"
       transform="matrix(0.26458333,0,0,0.26458333,-151.50797,-75.361353)"
       style="stroke-width:2.00000003;stroke-miterlimit:4;stroke-dasharray:none;stroke:#e7e7e7;stroke-opacity:1;stroke-linejoin:round;fill:none;fill-opacity:1;opacity:0.956766098148" />
    <polygon
       points="483.3,306.9 525.8,360.3 543.8,371.2 502.4,315.9 "
       class="st2"
       id="XMLID_40_"
       transform="matrix(0.26458333,0,0,0.26458333,-151.50797,-75.361353)"
       style="stroke-width:2.00000003;stroke-miterlimit:4;stroke-dasharray:none;stroke:#e9e9e9;stroke-opacity:1;stroke-linejoin:round;fill:none;fill-opacity:1;opacity:0.806368410862" />
    <polygon
       points="502.4,315.9 518.4,287 561.3,359.5 543.8,371.2 "
       class="st4"
       id="XMLID_41_"
       transform="matrix(0.26458333,0,0,0.26458333,-151.50797,-75.361353)"
       style="stroke-width:2.00000003;stroke-miterlimit:4;stroke-dasharray:none;stroke:#f2f2f2;stroke-opacity:1;stroke-linejoin:round;fill:none;fill-opacity:1;opacity:0.83124726603" />
    <polygon
       points="518.4,287 517.2,264.4 557.4,332.6 561.3,359.5 "
       class="st5"
       id="XMLID_42_"
       transform="matrix(0.26458333,0,0,0.26458333,-151.50797,-75.361353)"
       style="stroke-width:2.00000003;stroke-miterlimit:4;stroke-dasharray:none;stroke:#f5f5f5;stroke-opacity:1;stroke-linejoin:round;fill:none;fill-opacity:1;opacity:0.963477457517" />
    <polygon
       points="561.3,359.5 574.6,280.8 564.8,264 557.4,332.6 "
       class="st2"
       id="XMLID_43_"
       transform="matrix(0.26458333,0,0,0.26458333,-151.50797,-75.361353)"
       style="stroke-width:2.00000003;stroke-miterlimit:4;stroke-dasharray:none;stroke:#f2f2f2;stroke-opacity:1;stroke-linejoin:round;fill:none;fill-opacity:1;opacity:0.88894635372" />
    <polygon
       points="574.6,280.8 564.8,264 587.4,238.6 "
       class="st1"
       id="XMLID_44_"
       transform="matrix(0.26458333,0,0,0.26458333,-151.50797,-75.361353)"
       style="stroke-width:2.00000003;stroke-miterlimit:4;stroke-dasharray:none;stroke:#f2f2f2;stroke-opacity:1;stroke-linejoin:round;fill:none;fill-opacity:1;opacity:0.819044241854" />
    <polygon
       points="574.6,281 587.4,238.8 593.3,281 "
       class="st2"
       id="XMLID_45_"
       transform="matrix(0.26458333,0,0,0.26458333,-151.50797,-75.361353)"
       style="stroke-width:2.00000003;stroke-miterlimit:4;stroke-dasharray:none;stroke:#eeeeee;stroke-opacity:1;stroke-linejoin:round;fill:none;fill-opacity:1;opacity:0.897607129555" />
    <polygon
       points="574.6,281 561.3,359.7 587.1,329.7 593.3,281 "
       class="st4"
       id="XMLID_46_"
       transform="matrix(0.26458333,0,0,0.26458333,-151.50797,-75.361353)"
       style="stroke-width:2.00000003;stroke-miterlimit:4;stroke-dasharray:none;stroke:#f9f9f9;stroke-opacity:1;stroke-linejoin:round;fill:none;fill-opacity:1;opacity:0.847033312376" />
    <polygon
       points="591.3,342.4 587.1,329.5 620.6,312.4 "
       class="st1"
       id="XMLID_47_"
       transform="matrix(0.26458333,0,0,0.26458333,-151.50797,-75.361353)"
       style="stroke-width:2.00000003;stroke-miterlimit:4;stroke-dasharray:none;stroke:#f7f7f7;stroke-opacity:1;stroke-linejoin:round;fill:none;fill-opacity:1;opacity:0.800179359611" />
    <polygon
       points="620.6,312.4 591.3,342.4 613.6,347.1 "
       class="st2"
       id="XMLID_48_"
       transform="matrix(0.26458333,0,0,0.26458333,-151.50797,-75.361353)"
       style="stroke-width:2.00000003;stroke-miterlimit:4;stroke-dasharray:none;stroke:#eeeeee;stroke-opacity:1;stroke-linejoin:round;fill:none;fill-opacity:1;opacity:0.893147896529" />
    <polygon
       points="593.3,280.8 587.4,238.6 600.3,270.2 "
       class="st4"
       id="XMLID_49_"
       transform="matrix(0.26458333,0,0,0.26458333,-151.50797,-75.361353)"
       style="stroke-width:2.00000003;stroke-miterlimit:4;stroke-dasharray:none;stroke:#ececec;stroke-opacity:1;stroke-linejoin:round;fill:none;fill-opacity:1;opacity:0.813465983472" />
    <polygon
       points="596.8,324.5 641.7,253.5 653.7,265.5 620.6,312.4 "
       class="st4"
       id="XMLID_50_"
       transform="matrix(0.26458333,0,0,0.26458333,-151.50797,-75.361353)"
       style="stroke-width:2.00000003;stroke-miterlimit:4;stroke-dasharray:none;stroke:#f5f5f5;stroke-opacity:1;stroke-linejoin:round;fill:none;fill-opacity:1;opacity:0.932216258249" />
    <polygon
       points="653.7,265.5 641.7,253.5 683,236.3 "
       class="st2"
       id="XMLID_51_"
       transform="matrix(0.26458333,0,0,0.26458333,-151.50797,-75.361353)"
       style="stroke-width:2.00000003;stroke-miterlimit:4;stroke-dasharray:none;stroke:#e7e7e7;stroke-opacity:1;stroke-linejoin:round;fill:none;fill-opacity:1;opacity:0.981739144822" />
    <polygon
       points="653.7,265.5 683,236.3 672.8,275.3 "
       class="st4"
       id="XMLID_52_"
       transform="matrix(0.26458333,0,0,0.26458333,-151.50797,-75.361353)"
       style="stroke-width:2.00000003;stroke-miterlimit:4;stroke-dasharray:none;stroke:#f6f6f6;stroke-opacity:1;stroke-linejoin:round;fill:none;fill-opacity:1;opacity:0.889585694135" />
    <polygon
       points="653.7,265.5 620.6,312.4 613.6,347.1 672.8,275.3 "
       class="st5"
       id="XMLID_53_"
       transform="matrix(0.26458333,0,0,0.26458333,-151.50797,-75.361353)"
       style="stroke-width:2.00000003;stroke-miterlimit:4;stroke-dasharray:none;stroke:#eeeeee;stroke-opacity:1;stroke-linejoin:round;fill:none;fill-opacity:1;opacity:0.848700581435" />
    <polygon
       points="641.7,253.5 683,236.3 640.1,244.1 "
       class="st1"
       id="XMLID_54_"
       transform="matrix(0.26458333,0,0,0.26458333,-151.50797,-75.361353)"
       style="stroke-width:2.00000003;stroke-miterlimit:4;stroke-dasharray:none;stroke:#f3f3f3;stroke-opacity:1;stroke-linejoin:round;fill:none;fill-opacity:1;opacity:0.820822737045" />
    <polygon
       points="596.8,324.5 641.7,253.5 640.1,244.1 599.9,298.7 587.1,329.5 "
       class="st2"
       id="XMLID_55_"
       transform="matrix(0.26458333,0,0,0.26458333,-151.50797,-75.361353)"
       style="stroke-width:2.00000003;stroke-miterlimit:4;stroke-dasharray:none;stroke:#efefef;stroke-opacity:1;stroke-linejoin:round;fill:none;fill-opacity:1;opacity:0.862673079146" />
    <polygon
       points="600.3,270.2 599.9,298.7 587.1,329.5 593.3,280.8 "
       class="st7"
       id="XMLID_56_"
       transform="matrix(0.26458333,0,0,0.26458333,-151.50797,-75.361353)"
       style="stroke-width:2.00000003;stroke-miterlimit:4;stroke-dasharray:none;stroke:#f0f0f0;stroke-opacity:1;stroke-linejoin:round;fill:none;fill-opacity:1;opacity:0.976547899913" />
    <polygon
       points="672.8,275.3 683,236.3 681.8,268.7 "
       class="st5"
       id="XMLID_57_"
       transform="matrix(0.26458333,0,0,0.26458333,-151.50797,-75.361353)"
       style="stroke-width:2.00000003;stroke-miterlimit:4;stroke-dasharray:none;stroke:#f2f2f2;stroke-opacity:1;stroke-linejoin:round;fill:none;fill-opacity:1;opacity:0.933054126365" />
    <polygon
       points="681.8,268.7 607.7,361.5 613.6,347.1 672.8,275.3 "
       class="st7"
       id="XMLID_58_"
       transform="matrix(0.26458333,0,0,0.26458333,-151.50797,-75.361353)"
       style="stroke-width:2.00000003;stroke-miterlimit:4;stroke-dasharray:none;stroke:#fafafa;stroke-opacity:1;stroke-linejoin:round;fill:none;fill-opacity:1;opacity:0.877008136344" />
    <polygon
       points="591.3,342.4 560.5,377.5 561.3,359.5 587.1,329.5 "
       class="st2"
       id="XMLID_59_"
       transform="matrix(0.26458333,0,0,0.26458333,-151.50797,-75.361353)"
       style="stroke-width:2.00000003;stroke-miterlimit:4;stroke-dasharray:none;stroke:#fbfbfb;stroke-opacity:1;stroke-linejoin:round;fill:none;fill-opacity:1;opacity:0.809624669586" />
    <polygon
       points="560.5,377 574.9,377 613.6,346.8 591.3,342 "
       class="st3"
       id="XMLID_60_"
       transform="matrix(0.26458333,0,0,0.26458333,-151.50797,-75.361353)"
       style="stroke-width:2.00000003;stroke-miterlimit:4;stroke-dasharray:none;stroke:#f7f7f7;stroke-opacity:1;stroke-linejoin:round;fill:none;fill-opacity:1;opacity:0.877755453931" />
    <polygon
       points="574.9,377.5 590.6,394.3 607.7,361.5 613.6,347.1 "
       class="st2"
       id="XMLID_61_"
       transform="matrix(0.26458333,0,0,0.26458333,-151.50797,-75.361353)"
       style="stroke-width:2.00000003;stroke-miterlimit:4;stroke-dasharray:none;stroke:#ededed;stroke-opacity:1;stroke-linejoin:round;fill:none;fill-opacity:1;opacity:0.811257583247" />
    <polygon
       points="607.7,361.5 590.6,394.3 607.3,392.3 "
       class="st4"
       id="XMLID_62_"
       transform="matrix(0.26458333,0,0,0.26458333,-151.50797,-75.361353)"
       style="stroke-width:2.00000003;stroke-miterlimit:4;stroke-dasharray:none;stroke:#f4f4f4;stroke-opacity:1;stroke-linejoin:round;fill:none;fill-opacity:1;opacity:0.96692995482" />
    <polygon
       points="617.4,349.4 615.1,379.8 607.3,392.3 607.7,361.5 "
       class="st5"
       id="XMLID_63_"
       transform="matrix(0.26458333,0,0,0.26458333,-151.50797,-75.361353)"
       style="stroke-width:2.00000003;stroke-miterlimit:4;stroke-dasharray:none;stroke:#ececec;stroke-opacity:1;stroke-linejoin:round;fill:none;fill-opacity:1;opacity:0.854050024043" />
    <polygon
       points="561.3,359.5 543.8,371.2 560.5,377.5 "
       class="st5"
       id="XMLID_64_"
       transform="matrix(0.26458333,0,0,0.26458333,-151.50797,-75.361353)"
       style="stroke-width:2.00000003;stroke-miterlimit:4;stroke-dasharray:none;stroke:#fdfdfd;stroke-opacity:1;stroke-linejoin:round;fill:none;fill-opacity:1;opacity:0.913921174577" />
    <polygon
       points="560.5,377.5 543.8,371.2 539.5,394.3 "
       class="st6"
       id="XMLID_65_"
       transform="matrix(0.26458333,0,0,0.26458333,-151.50797,-75.361353)"
       style="stroke-width:2.00000003;stroke-miterlimit:4;stroke-dasharray:none;stroke:#efefef;stroke-opacity:1;stroke-linejoin:round;fill:none;fill-opacity:1;opacity:0.862514192547" />
    <polygon
       points="539.5,394.3 543.8,371.2 520,384.9 "
       class="st4"
       id="XMLID_66_"
       transform="matrix(0.26458333,0,0,0.26458333,-151.50797,-75.361353)"
       style="stroke-width:2.00000003;stroke-miterlimit:4;stroke-dasharray:none;stroke:#e7e7e7;stroke-opacity:1;stroke-linejoin:round;fill:none;fill-opacity:1;opacity:0.893956943711" />
    <polygon
       points="520,384.9 543.8,371.2 525.8,360.3 "
       class="st3"
       id="XMLID_67_"
       transform="matrix(0.26458333,0,0,0.26458333,-151.50797,-75.361353)"
       style="stroke-width:2.00000003;stroke-miterlimit:4;stroke-dasharray:none;stroke:#eeeeee;stroke-opacity:1;stroke-linejoin:round;fill:none;fill-opacity:1;opacity:0.987809561153" />
    <polygon
       points="520,384.9 525.8,360.3 514.1,370.9 "
       class="st1"
       id="XMLID_68_"
       transform="matrix(0.26458333,0,0,0.26458333,-151.50797,-75.361353)"
       style="stroke-width:2.00000003;stroke-miterlimit:4;stroke-dasharray:none;stroke:#e8e8e8;stroke-opacity:1;stroke-linejoin:round;fill:none;fill-opacity:1;opacity:0.839967082845" />
    <polygon
       points="539.5,394 564,392.7 574.9,377 560.5,377 "
       class="st7"
       id="XMLID_69_"
       transform="matrix(0.26458333,0,0,0.26458333,-151.50797,-75.361353)"
       style="stroke-width:2.00000003;stroke-miterlimit:4;stroke-dasharray:none;stroke:#fafafa;stroke-opacity:1;stroke-linejoin:round;fill:none;fill-opacity:1;opacity:0.811282796573" />
    <polygon
       points="574.9,377.5 564,393.1 571.4,397.4 "
       class="st6"
       id="XMLID_70_"
       transform="matrix(0.26458333,0,0,0.26458333,-151.50797,-75.361353)"
       style="stroke-width:2.00000003;stroke-miterlimit:4;stroke-dasharray:none;stroke:#f4f4f4;stroke-opacity:1;stroke-linejoin:round;fill:none;fill-opacity:1;opacity:0.823684128516" />
    <polygon
       points="571.4,397.4 576.9,414.2 590.6,394.3 574.9,377.5 "
       class="st1"
       id="XMLID_71_"
       transform="matrix(0.26458333,0,0,0.26458333,-151.50797,-75.361353)"
       style="stroke-width:2.00000003;stroke-miterlimit:4;stroke-dasharray:none;stroke:#e7e7e7;stroke-opacity:1;stroke-linejoin:round;fill:none;fill-opacity:1;opacity:0.822102512332" />
    <polygon
       points="590.6,394.3 576.9,414.2 591.7,418.4 "
       class="st3"
       id="XMLID_72_"
       transform="matrix(0.26458333,0,0,0.26458333,-151.50797,-75.361353)"
       style="stroke-width:2.00000003;stroke-miterlimit:4;stroke-dasharray:none;stroke:#fefefe;stroke-opacity:1;stroke-linejoin:round;fill:none;fill-opacity:1;opacity:0.855603055643" />
    <polygon
       points="591.7,418.4 611.6,414.2 607.3,392.3 590.6,394.3 "
       class="st5"
       id="XMLID_73_"
       transform="matrix(0.26458333,0,0,0.26458333,-151.50797,-75.361353)"
       style="stroke-width:2.00000003;stroke-miterlimit:4;stroke-dasharray:none;stroke:#fdfdfd;stroke-opacity:1;stroke-linejoin:round;fill:none;fill-opacity:1;opacity:0.878854501063" />
    <polygon
       points="611.6,414.2 624.1,391.5 615.1,379.8 607.3,392.3 "
       class="st7"
       id="XMLID_74_"
       transform="matrix(0.26458333,0,0,0.26458333,-151.50797,-75.361353)"
       style="stroke-width:2.00000003;stroke-miterlimit:4;stroke-dasharray:none;stroke:#f3f3f3;stroke-opacity:1;stroke-linejoin:round;fill:none;fill-opacity:1;opacity:0.874347083115" />
    <polygon
       points="551.6,311.6 542.6,307.6 542.2,267.5 "
       class="st1"
       id="XMLID_75_"
       transform="matrix(0.26458333,0,0,0.26458333,-151.50797,-75.361353)"
       style="stroke-width:2.00000003;stroke-miterlimit:4;stroke-dasharray:none;stroke:#f7f7f7;stroke-opacity:1;stroke-linejoin:round;fill:none;fill-opacity:1;opacity:0.854198562076" />
    <polygon
       points="542.2,267.5 551.6,311.6 558.2,304.2 "
       class="st2"
       id="XMLID_76_"
       transform="matrix(0.26458333,0,0,0.26458333,-151.50797,-75.361353)"
       style="stroke-width:2.00000003;stroke-miterlimit:4;stroke-dasharray:none;stroke:#f5f5f5;stroke-opacity:1;stroke-linejoin:round;fill:none;fill-opacity:1;opacity:0.906243592021" />
    <polygon
       points="542.2,267.5 558.2,304.2 561.6,293.7 "
       class="st4"
       id="XMLID_77_"
       transform="matrix(0.26458333,0,0,0.26458333,-151.50797,-75.361353)"
       style="stroke-width:2.00000003;stroke-miterlimit:4;stroke-dasharray:none;stroke:#eaeaea;stroke-opacity:1;stroke-linejoin:round;fill:none;fill-opacity:1;opacity:0.968963557202" />
    <polygon
       points="542.6,307.6 551.6,311.6 557.4,332.6 "
       class="st2"
       id="XMLID_78_"
       transform="matrix(0.26458333,0,0,0.26458333,-151.50797,-75.361353)"
       style="stroke-width:2.00000003;stroke-miterlimit:4;stroke-dasharray:none;stroke:#efefef;stroke-opacity:1;stroke-linejoin:round;fill:none;fill-opacity:1;opacity:0.868291958548" />
    <polygon
       points="551.6,311.6 558.2,304.2 559.6,312.6 557.4,332.6 "
       class="st4"
       id="XMLID_79_"
       transform="matrix(0.26458333,0,0,0.26458333,-151.50797,-75.361353)"
       style="stroke-width:2.00000003;stroke-miterlimit:4;stroke-dasharray:none;stroke:#f9f9f9;stroke-opacity:1;stroke-linejoin:round;fill:none;fill-opacity:1;opacity:0.947794085896" />
    <polygon
       points="561.6,293.7 559.6,312.6 558.2,304.2 "
       class="st7"
       id="XMLID_80_"
       transform="matrix(0.26458333,0,0,0.26458333,-151.50797,-75.361353)"
       style="stroke-width:2.00000003;stroke-miterlimit:4;stroke-dasharray:none;stroke:#f4f4f4;stroke-opacity:1;stroke-linejoin:round;fill:none;fill-opacity:1;opacity:0.931273062186" />
  </g>
</svg>
