<?xml version="1.0" encoding="UTF-8" standalone="no"?>
<!-- Created with Inkscape (http://www.inkscape.org/) -->

<svg
   xmlns:dc="http://purl.org/dc/elements/1.1/"
   xmlns:cc="http://creativecommons.org/ns#"
   xmlns:rdf="http://www.w3.org/1999/02/22-rdf-syntax-ns#"
   xmlns:svg="http://www.w3.org/2000/svg"
   xmlns="http://www.w3.org/2000/svg"
   xmlns:sodipodi="http://sodipodi.sourceforge.net/DTD/sodipodi-0.dtd"
   xmlns:inkscape="http://www.inkscape.org/namespaces/inkscape"
   sodipodi:docname="cyan3.svg"
   inkscape:version=""
   id="svg18634"
   version="1.1"
   viewBox="0 0 53.869167 48.180626"
   height="48.180626mm"
   width="53.869167mm">
  <sodipodi:namedview
     fit-margin-bottom="0"
     fit-margin-right="0"
     fit-margin-left="0"
     fit-margin-top="0"
     showgrid="false"
     inkscape:current-layer="layer1"
     inkscape:document-units="mm"
     inkscape:cy="91.050002"
     inkscape:cx="101.8"
     inkscape:zoom="4.5853926"
     inkscape:pageshadow="2"
     inkscape:pageopacity="0.0"
     borderopacity="1.0"
     bordercolor="#666666"
     pagecolor="#ffffff"
     id="base" />
  <defs
     id="defs18628" />
  <metadata
     id="metadata18631">
    <rdf:RDF>
      <cc:Work
         rdf:about="">
        <dc:format>image/svg+xml</dc:format>
        <dc:type
           rdf:resource="http://purl.org/dc/dcmitype/StillImage" />
        <dc:title></dc:title>
      </cc:Work>
    </rdf:RDF>
  </metadata>
  <g
     transform="translate(24.666722,12.840312)"
     id="layer1"
     inkscape:groupmode="layer"
     inkscape:label="Layer 1">
    <polygon
       style="stroke-width:2.00000003;stroke-miterlimit:4;stroke-dasharray:none;stroke:#01f2e4;stroke-opacity:1;stroke-linejoin:round;fill:#00f0f9;fill-opacity:1;opacity:0.998251789863"
       transform="matrix(0.26458333,0,0,0.26458333,-151.50797,-75.361353)"
       id="XMLID_37_"
       class="st1"
       points="502.4,315.9 479.4,264.4 483.3,306.9 " />
    <polygon
       style="stroke-width:2.00000003;stroke-miterlimit:4;stroke-dasharray:none;stroke:#06c6fd;stroke-opacity:1;stroke-linejoin:round;fill:#01b2f4;fill-opacity:1;opacity:0.982462544696"
       transform="matrix(0.26458333,0,0,0.26458333,-151.50797,-75.361353)"
       id="XMLID_38_"
       class="st2"
       points="502.4,315.9 479.4,264.4 518.4,287 " />
    <polygon
       style="stroke-width:2.00000003;stroke-miterlimit:4;stroke-dasharray:none;stroke:#01e5fa;stroke-opacity:1;stroke-linejoin:round;fill:#00dcfd;fill-opacity:1;opacity:0.930867208149"
       transform="matrix(0.26458333,0,0,0.26458333,-151.50797,-75.361353)"
       id="XMLID_39_"
       class="st4"
       points="518.4,287.6 479.4,265 517.2,265 " />
    <polygon
       style="stroke-width:2.00000003;stroke-miterlimit:4;stroke-dasharray:none;stroke:#0bfcdd;stroke-opacity:1;stroke-linejoin:round;fill:#01fee3;fill-opacity:1;opacity:0.941369541916"
       transform="matrix(0.26458333,0,0,0.26458333,-151.50797,-75.361353)"
       id="XMLID_40_"
       class="st2"
       points="483.3,306.9 525.8,360.3 543.8,371.2 502.4,315.9 " />
    <polygon
       style="stroke-width:2.00000003;stroke-miterlimit:4;stroke-dasharray:none;stroke:#00def9;stroke-opacity:1;stroke-linejoin:round;fill:#05ccfe;fill-opacity:1;opacity:0.878772512248"
       transform="matrix(0.26458333,0,0,0.26458333,-151.50797,-75.361353)"
       id="XMLID_41_"
       class="st4"
       points="502.4,315.9 518.4,287 561.3,359.5 543.8,371.2 " />
    <polygon
       style="stroke-width:2.00000003;stroke-miterlimit:4;stroke-dasharray:none;stroke:#09d2fe;stroke-opacity:1;stroke-linejoin:round;fill:#00fbe0;fill-opacity:1;opacity:0.973457881521"
       transform="matrix(0.26458333,0,0,0.26458333,-151.50797,-75.361353)"
       id="XMLID_42_"
       class="st5"
       points="518.4,287 517.2,264.4 557.4,332.6 561.3,359.5 " />
    <polygon
       style="stroke-width:2.00000003;stroke-miterlimit:4;stroke-dasharray:none;stroke:#05fedd;stroke-opacity:1;stroke-linejoin:round;fill:#00f1a4;fill-opacity:1;opacity:0.928663504575"
       transform="matrix(0.26458333,0,0,0.26458333,-151.50797,-75.361353)"
       id="XMLID_43_"
       class="st2"
       points="561.3,359.5 574.6,280.8 564.8,264 557.4,332.6 " />
    <polygon
       style="stroke-width:2.00000003;stroke-miterlimit:4;stroke-dasharray:none;stroke:#09e2fc;stroke-opacity:1;stroke-linejoin:round;fill:#09c0fc;fill-opacity:1;opacity:0.92887248262"
       transform="matrix(0.26458333,0,0,0.26458333,-151.50797,-75.361353)"
       id="XMLID_44_"
       class="st1"
       points="574.6,280.8 564.8,264 587.4,238.6 " />
    <polygon
       style="stroke-width:2.00000003;stroke-miterlimit:4;stroke-dasharray:none;stroke:#07bffc;stroke-opacity:1;stroke-linejoin:round;fill:#00d4fb;fill-opacity:1;opacity:0.902821615147"
       transform="matrix(0.26458333,0,0,0.26458333,-151.50797,-75.361353)"
       id="XMLID_45_"
       class="st2"
       points="574.6,281 587.4,238.8 593.3,281 " />
    <polygon
       style="stroke-width:2.00000003;stroke-miterlimit:4;stroke-dasharray:none;stroke:#06fde8;stroke-opacity:1;stroke-linejoin:round;fill:#01f6ed;fill-opacity:1;opacity:0.887033397162"
       transform="matrix(0.26458333,0,0,0.26458333,-151.50797,-75.361353)"
       id="XMLID_46_"
       class="st4"
       points="574.6,281 561.3,359.7 587.1,329.7 593.3,281 " />
    <polygon
       style="stroke-width:2.00000003;stroke-miterlimit:4;stroke-dasharray:none;stroke:#00d6fd;stroke-opacity:1;stroke-linejoin:round;fill:#00f7c5;fill-opacity:1;opacity:0.87246020524"
       transform="matrix(0.26458333,0,0,0.26458333,-151.50797,-75.361353)"
       id="XMLID_47_"
       class="st1"
       points="591.3,342.4 587.1,329.5 620.6,312.4 " />
    <polygon
       style="stroke-width:2.00000003;stroke-miterlimit:4;stroke-dasharray:none;stroke:#00f5e6;stroke-opacity:1;stroke-linejoin:round;fill:#01f4b2;fill-opacity:1;opacity:0.973222324435"
       transform="matrix(0.26458333,0,0,0.26458333,-151.50797,-75.361353)"
       id="XMLID_48_"
       class="st2"
       points="620.6,312.4 591.3,342.4 613.6,347.1 " />
    <polygon
       style="stroke-width:2.00000003;stroke-miterlimit:4;stroke-dasharray:none;stroke:#04fdd7;stroke-opacity:1;stroke-linejoin:round;fill:#01e0f4;fill-opacity:1;opacity:0.962742037339"
       transform="matrix(0.26458333,0,0,0.26458333,-151.50797,-75.361353)"
       id="XMLID_49_"
       class="st4"
       points="593.3,280.8 587.4,238.6 600.3,270.2 " />
    <polygon
       style="stroke-width:2.00000003;stroke-miterlimit:4;stroke-dasharray:none;stroke:#02f9b6;stroke-opacity:1;stroke-linejoin:round;fill:#01e0fa;fill-opacity:1;opacity:0.911490450928"
       transform="matrix(0.26458333,0,0,0.26458333,-151.50797,-75.361353)"
       id="XMLID_50_"
       class="st4"
       points="596.8,324.5 641.7,253.5 653.7,265.5 620.6,312.4 " />
    <polygon
       style="stroke-width:2.00000003;stroke-miterlimit:4;stroke-dasharray:none;stroke:#02fdbf;stroke-opacity:1;stroke-linejoin:round;fill:#02dcef;fill-opacity:1;opacity:0.924649646178"
       transform="matrix(0.26458333,0,0,0.26458333,-151.50797,-75.361353)"
       id="XMLID_51_"
       class="st2"
       points="653.7,265.5 641.7,253.5 683,236.3 " />
    <polygon
       style="stroke-width:2.00000003;stroke-miterlimit:4;stroke-dasharray:none;stroke:#00f7c6;stroke-opacity:1;stroke-linejoin:round;fill:#03fcd0;fill-opacity:1;opacity:0.958017990481"
       transform="matrix(0.26458333,0,0,0.26458333,-151.50797,-75.361353)"
       id="XMLID_52_"
       class="st4"
       points="653.7,265.5 683,236.3 672.8,275.3 " />
    <polygon
       style="stroke-width:2.00000003;stroke-miterlimit:4;stroke-dasharray:none;stroke:#01e9f8;stroke-opacity:1;stroke-linejoin:round;fill:#00f9d8;fill-opacity:1;opacity:0.898918756861"
       transform="matrix(0.26458333,0,0,0.26458333,-151.50797,-75.361353)"
       id="XMLID_53_"
       class="st5"
       points="653.7,265.5 620.6,312.4 613.6,347.1 672.8,275.3 " />
    <polygon
       style="stroke-width:2.00000003;stroke-miterlimit:4;stroke-dasharray:none;stroke:#03ccfe;stroke-opacity:1;stroke-linejoin:round;fill:#00fbb1;fill-opacity:1;opacity:0.879726491385"
       transform="matrix(0.26458333,0,0,0.26458333,-151.50797,-75.361353)"
       id="XMLID_54_"
       class="st1"
       points="641.7,253.5 683,236.3 640.1,244.1 " />
    <polygon
       style="stroke-width:2.00000003;stroke-miterlimit:4;stroke-dasharray:none;stroke:#00dbf5;stroke-opacity:1;stroke-linejoin:round;fill:#00e2fd;fill-opacity:1;opacity:0.889489569308"
       transform="matrix(0.26458333,0,0,0.26458333,-151.50797,-75.361353)"
       id="XMLID_55_"
       class="st2"
       points="596.8,324.5 641.7,253.5 640.1,244.1 599.9,298.7 587.1,329.5 " />
    <polygon
       style="stroke-width:2.00000003;stroke-miterlimit:4;stroke-dasharray:none;stroke:#00fbc3;stroke-opacity:1;stroke-linejoin:round;fill:#01f6a8;fill-opacity:1;opacity:0.890044568771"
       transform="matrix(0.26458333,0,0,0.26458333,-151.50797,-75.361353)"
       id="XMLID_56_"
       class="st7"
       points="600.3,270.2 599.9,298.7 587.1,329.5 593.3,280.8 " />
    <polygon
       style="stroke-width:2.00000003;stroke-miterlimit:4;stroke-dasharray:none;stroke:#00e0fb;stroke-opacity:1;stroke-linejoin:round;fill:#02e2fd;fill-opacity:1;opacity:0.896252901799"
       transform="matrix(0.26458333,0,0,0.26458333,-151.50797,-75.361353)"
       id="XMLID_57_"
       class="st5"
       points="672.8,275.3 683,236.3 681.8,268.7 " />
    <polygon
       style="stroke-width:2.00000003;stroke-miterlimit:4;stroke-dasharray:none;stroke:#02c0f7;stroke-opacity:1;stroke-linejoin:round;fill:#07fcae;fill-opacity:1;opacity:0.938586247722"
       transform="matrix(0.26458333,0,0,0.26458333,-151.50797,-75.361353)"
       id="XMLID_58_"
       class="st7"
       points="681.8,268.7 607.7,361.5 613.6,347.1 672.8,275.3 " />
    <polygon
       style="stroke-width:2.00000003;stroke-miterlimit:4;stroke-dasharray:none;stroke:#06d7fd;stroke-opacity:1;stroke-linejoin:round;fill:#06fdd1;fill-opacity:1;opacity:0.878351508894"
       transform="matrix(0.26458333,0,0,0.26458333,-151.50797,-75.361353)"
       id="XMLID_59_"
       class="st2"
       points="591.3,342.4 560.5,377.5 561.3,359.5 587.1,329.5 " />
    <polygon
       style="stroke-width:2.00000003;stroke-miterlimit:4;stroke-dasharray:none;stroke:#00fdd6;stroke-opacity:1;stroke-linejoin:round;fill:#02c8f9;fill-opacity:1;opacity:0.986360443323"
       transform="matrix(0.26458333,0,0,0.26458333,-151.50797,-75.361353)"
       id="XMLID_60_"
       class="st3"
       points="560.5,377 574.9,377 613.6,346.8 591.3,342 " />
    <polygon
       style="stroke-width:2.00000003;stroke-miterlimit:4;stroke-dasharray:none;stroke:#00e0f5;stroke-opacity:1;stroke-linejoin:round;fill:#00f2f5;fill-opacity:1;opacity:0.999867960294"
       transform="matrix(0.26458333,0,0,0.26458333,-151.50797,-75.361353)"
       id="XMLID_61_"
       class="st2"
       points="574.9,377.5 590.6,394.3 607.7,361.5 613.6,347.1 " />
    <polygon
       style="stroke-width:2.00000003;stroke-miterlimit:4;stroke-dasharray:none;stroke:#01f8e9;stroke-opacity:1;stroke-linejoin:round;fill:#00c4fd;fill-opacity:1;opacity:0.967394560579"
       transform="matrix(0.26458333,0,0,0.26458333,-151.50797,-75.361353)"
       id="XMLID_62_"
       class="st4"
       points="607.7,361.5 590.6,394.3 607.3,392.3 " />
    <polygon
       style="stroke-width:2.00000003;stroke-miterlimit:4;stroke-dasharray:none;stroke:#00f5be;stroke-opacity:1;stroke-linejoin:round;fill:#03effe;fill-opacity:1;opacity:0.913957397783"
       transform="matrix(0.26458333,0,0,0.26458333,-151.50797,-75.361353)"
       id="XMLID_63_"
       class="st5"
       points="617.4,349.4 615.1,379.8 607.3,392.3 607.7,361.5 " />
    <polygon
       style="stroke-width:2.00000003;stroke-miterlimit:4;stroke-dasharray:none;stroke:#05ddfe;stroke-opacity:1;stroke-linejoin:round;fill:#02fdd6;fill-opacity:1;opacity:0.98069708862"
       transform="matrix(0.26458333,0,0,0.26458333,-151.50797,-75.361353)"
       id="XMLID_64_"
       class="st5"
       points="561.3,359.5 543.8,371.2 560.5,377.5 " />
    <polygon
       style="stroke-width:2.00000003;stroke-miterlimit:4;stroke-dasharray:none;stroke:#01fecb;stroke-opacity:1;stroke-linejoin:round;fill:#01f6b9;fill-opacity:1;opacity:0.901535518839"
       transform="matrix(0.26458333,0,0,0.26458333,-151.50797,-75.361353)"
       id="XMLID_65_"
       class="st6"
       points="560.5,377.5 543.8,371.2 539.5,394.3 " />
    <polygon
       style="stroke-width:2.00000003;stroke-miterlimit:4;stroke-dasharray:none;stroke:#01f4da;stroke-opacity:1;stroke-linejoin:round;fill:#07dcfc;fill-opacity:1;opacity:0.962411503953"
       transform="matrix(0.26458333,0,0,0.26458333,-151.50797,-75.361353)"
       id="XMLID_66_"
       class="st4"
       points="539.5,394.3 543.8,371.2 520,384.9 " />
    <polygon
       style="stroke-width:2.00000003;stroke-miterlimit:4;stroke-dasharray:none;stroke:#02fbd5;stroke-opacity:1;stroke-linejoin:round;fill:#00f5d5;fill-opacity:1;opacity:0.953136025283"
       transform="matrix(0.26458333,0,0,0.26458333,-151.50797,-75.361353)"
       id="XMLID_67_"
       class="st3"
       points="520,384.9 543.8,371.2 525.8,360.3 " />
    <polygon
       style="stroke-width:2.00000003;stroke-miterlimit:4;stroke-dasharray:none;stroke:#07fef5;stroke-opacity:1;stroke-linejoin:round;fill:#07c1fe;fill-opacity:1;opacity:0.896510930745"
       transform="matrix(0.26458333,0,0,0.26458333,-151.50797,-75.361353)"
       id="XMLID_68_"
       class="st1"
       points="520,384.9 525.8,360.3 514.1,370.9 " />
    <polygon
       style="stroke-width:2.00000003;stroke-miterlimit:4;stroke-dasharray:none;stroke:#01faf7;stroke-opacity:1;stroke-linejoin:round;fill:#00f5db;fill-opacity:1;opacity:0.919004218214"
       transform="matrix(0.26458333,0,0,0.26458333,-151.50797,-75.361353)"
       id="XMLID_69_"
       class="st7"
       points="539.5,394 564,392.7 574.9,377 560.5,377 " />
    <polygon
       style="stroke-width:2.00000003;stroke-miterlimit:4;stroke-dasharray:none;stroke:#06fddd;stroke-opacity:1;stroke-linejoin:round;fill:#00eaf3;fill-opacity:1;opacity:0.903309569333"
       transform="matrix(0.26458333,0,0,0.26458333,-151.50797,-75.361353)"
       id="XMLID_70_"
       class="st6"
       points="574.9,377.5 564,393.1 571.4,397.4 " />
    <polygon
       style="stroke-width:2.00000003;stroke-miterlimit:4;stroke-dasharray:none;stroke:#05feb5;stroke-opacity:1;stroke-linejoin:round;fill:#00fbf8;fill-opacity:1;opacity:0.960653642463"
       transform="matrix(0.26458333,0,0,0.26458333,-151.50797,-75.361353)"
       id="XMLID_71_"
       class="st1"
       points="571.4,397.4 576.9,414.2 590.6,394.3 574.9,377.5 " />
    <polygon
       style="stroke-width:2.00000003;stroke-miterlimit:4;stroke-dasharray:none;stroke:#05f3fc;stroke-opacity:1;stroke-linejoin:round;fill:#00fdc4;fill-opacity:1;opacity:0.908428414637"
       transform="matrix(0.26458333,0,0,0.26458333,-151.50797,-75.361353)"
       id="XMLID_72_"
       class="st3"
       points="590.6,394.3 576.9,414.2 591.7,418.4 " />
    <polygon
       style="stroke-width:2.00000003;stroke-miterlimit:4;stroke-dasharray:none;stroke:#00f9c1;stroke-opacity:1;stroke-linejoin:round;fill:#00f1cc;fill-opacity:1;opacity:0.952087659138"
       transform="matrix(0.26458333,0,0,0.26458333,-151.50797,-75.361353)"
       id="XMLID_73_"
       class="st5"
       points="591.7,418.4 611.6,414.2 607.3,392.3 590.6,394.3 " />
    <polygon
       style="stroke-width:2.00000003;stroke-miterlimit:4;stroke-dasharray:none;stroke:#09fede;stroke-opacity:1;stroke-linejoin:round;fill:#01ddfe;fill-opacity:1;opacity:0.934790263148"
       transform="matrix(0.26458333,0,0,0.26458333,-151.50797,-75.361353)"
       id="XMLID_74_"
       class="st7"
       points="611.6,414.2 624.1,391.5 615.1,379.8 607.3,392.3 " />
    <polygon
       style="stroke-width:2.00000003;stroke-miterlimit:4;stroke-dasharray:none;stroke:#01baf0;stroke-opacity:1;stroke-linejoin:round;fill:#00ddf7;fill-opacity:1;opacity:0.951553858086"
       transform="matrix(0.26458333,0,0,0.26458333,-151.50797,-75.361353)"
       id="XMLID_75_"
       class="st1"
       points="551.6,311.6 542.6,307.6 542.2,267.5 " />
    <polygon
       style="stroke-width:2.00000003;stroke-miterlimit:4;stroke-dasharray:none;stroke:#01e3f2;stroke-opacity:1;stroke-linejoin:round;fill:#06e2fd;fill-opacity:1;opacity:0.962182860618"
       transform="matrix(0.26458333,0,0,0.26458333,-151.50797,-75.361353)"
       id="XMLID_76_"
       class="st2"
       points="542.2,267.5 551.6,311.6 558.2,304.2 " />
    <polygon
       style="stroke-width:2.00000003;stroke-miterlimit:4;stroke-dasharray:none;stroke:#0aeffd;stroke-opacity:1;stroke-linejoin:round;fill:#02fbf8;fill-opacity:1;opacity:0.930405727508"
       transform="matrix(0.26458333,0,0,0.26458333,-151.50797,-75.361353)"
       id="XMLID_77_"
       class="st4"
       points="542.2,267.5 558.2,304.2 561.6,293.7 " />
    <polygon
       style="stroke-width:2.00000003;stroke-miterlimit:4;stroke-dasharray:none;stroke:#00e8fd;stroke-opacity:1;stroke-linejoin:round;fill:#09fbfe;fill-opacity:1;opacity:0.935648638928"
       transform="matrix(0.26458333,0,0,0.26458333,-151.50797,-75.361353)"
       id="XMLID_78_"
       class="st2"
       points="542.6,307.6 551.6,311.6 557.4,332.6 " />
    <polygon
       style="stroke-width:2.00000003;stroke-miterlimit:4;stroke-dasharray:none;stroke:#05fcd0;stroke-opacity:1;stroke-linejoin:round;fill:#03b9fc;fill-opacity:1;opacity:0.91958174876"
       transform="matrix(0.26458333,0,0,0.26458333,-151.50797,-75.361353)"
       id="XMLID_79_"
       class="st4"
       points="551.6,311.6 558.2,304.2 559.6,312.6 557.4,332.6 " />
    <polygon
       style="stroke-width:2.00000003;stroke-miterlimit:4;stroke-dasharray:none;stroke:#01f4ad;stroke-opacity:1;stroke-linejoin:round;fill:#02f1c7;fill-opacity:1;opacity:0.973823629519"
       transform="matrix(0.26458333,0,0,0.26458333,-151.50797,-75.361353)"
       id="XMLID_80_"
       class="st7"
       points="561.6,293.7 559.6,312.6 558.2,304.2 " />
  </g>
</svg>
