<?xml version="1.0" encoding="UTF-8" standalone="no"?>
<!-- Created with Inkscape (http://www.inkscape.org/) -->

<svg
   xmlns:dc="http://purl.org/dc/elements/1.1/"
   xmlns:cc="http://creativecommons.org/ns#"
   xmlns:rdf="http://www.w3.org/1999/02/22-rdf-syntax-ns#"
   xmlns:svg="http://www.w3.org/2000/svg"
   xmlns="http://www.w3.org/2000/svg"
   xmlns:sodipodi="http://sodipodi.sourceforge.net/DTD/sodipodi-0.dtd"
   xmlns:inkscape="http://www.inkscape.org/namespaces/inkscape"
   width="53.869167mm"
   height="48.180626mm"
   viewBox="0 0 53.869167 48.180626"
   version="1.1"
   id="svg18634"
   inkscape:version=""
   sodipodi:docname="indigo3.svg">
  <sodipodi:namedview
     id="base"
     pagecolor="#ffffff"
     bordercolor="#666666"
     borderopacity="1.0"
     inkscape:pageopacity="0.0"
     inkscape:pageshadow="2"
     inkscape:zoom="4.5853926"
     inkscape:cx="101.8"
     inkscape:cy="91.050002"
     inkscape:document-units="mm"
     inkscape:current-layer="layer1"
     showgrid="false"
     fit-margin-top="0"
     fit-margin-left="0"
     fit-margin-right="0"
     fit-margin-bottom="0" />
  <defs
     id="defs18628" />
  <metadata
     id="metadata18631">
    <rdf:RDF>
      <cc:Work
         rdf:about="">
        <dc:format>image/svg+xml</dc:format>
        <dc:type
           rdf:resource="http://purl.org/dc/dcmitype/StillImage" />
        <dc:title></dc:title>
      </cc:Work>
    </rdf:RDF>
  </metadata>
  <g
     transform="translate(24.666722,12.840312)"
     id="layer1"
     inkscape:groupmode="layer"
     inkscape:label="Layer 1">
    <polygon
       style="stroke-width:2.00000003;stroke-miterlimit:4;stroke-dasharray:none;stroke:#002279;stroke-opacity:1;stroke-linejoin:round;fill:#0e0077;fill-opacity:1;opacity:0.95420784804"
       transform="matrix(0.26458333,0,0,0.26458333,-151.50797,-75.361353)"
       id="XMLID_37_"
       class="st1"
       points="502.4,315.9 479.4,264.4 483.3,306.9 " />
    <polygon
       style="stroke-width:2.00000003;stroke-miterlimit:4;stroke-dasharray:none;stroke:#001b73;stroke-opacity:1;stroke-linejoin:round;fill:#01107e;fill-opacity:1;opacity:0.952279858216"
       transform="matrix(0.26458333,0,0,0.26458333,-151.50797,-75.361353)"
       id="XMLID_38_"
       class="st2"
       points="502.4,315.9 479.4,264.4 518.4,287 " />
    <polygon
       style="stroke-width:2.00000003;stroke-miterlimit:4;stroke-dasharray:none;stroke:#180073;stroke-opacity:1;stroke-linejoin:round;fill:#000381;fill-opacity:1;opacity:0.944891655237"
       transform="matrix(0.26458333,0,0,0.26458333,-151.50797,-75.361353)"
       id="XMLID_39_"
       class="st4"
       points="518.4,287.6 479.4,265 517.2,265 " />
    <polygon
       style="stroke-width:2.00000003;stroke-miterlimit:4;stroke-dasharray:none;stroke:#090077;stroke-opacity:1;stroke-linejoin:round;fill:#070087;fill-opacity:1;opacity:0.875626266173"
       transform="matrix(0.26458333,0,0,0.26458333,-151.50797,-75.361353)"
       id="XMLID_40_"
       class="st2"
       points="483.3,306.9 525.8,360.3 543.8,371.2 502.4,315.9 " />
    <polygon
       style="stroke-width:2.00000003;stroke-miterlimit:4;stroke-dasharray:none;stroke:#00067f;stroke-opacity:1;stroke-linejoin:round;fill:#1b0073;fill-opacity:1;opacity:0.917104423284"
       transform="matrix(0.26458333,0,0,0.26458333,-151.50797,-75.361353)"
       id="XMLID_41_"
       class="st4"
       points="502.4,315.9 518.4,287 561.3,359.5 543.8,371.2 " />
    <polygon
       style="stroke-width:2.00000003;stroke-miterlimit:4;stroke-dasharray:none;stroke:#170188;stroke-opacity:1;stroke-linejoin:round;fill:#00127b;fill-opacity:1;opacity:0.922451205874"
       transform="matrix(0.26458333,0,0,0.26458333,-151.50797,-75.361353)"
       id="XMLID_42_"
       class="st5"
       points="518.4,287 517.2,264.4 557.4,332.6 561.3,359.5 " />
    <polygon
       style="stroke-width:2.00000003;stroke-miterlimit:4;stroke-dasharray:none;stroke:#0a0180;stroke-opacity:1;stroke-linejoin:round;fill:#010f7a;fill-opacity:1;opacity:0.966637825534"
       transform="matrix(0.26458333,0,0,0.26458333,-151.50797,-75.361353)"
       id="XMLID_43_"
       class="st2"
       points="561.3,359.5 574.6,280.8 564.8,264 557.4,332.6 " />
    <polygon
       style="stroke-width:2.00000003;stroke-miterlimit:4;stroke-dasharray:none;stroke:#220081;stroke-opacity:1;stroke-linejoin:round;fill:#012580;fill-opacity:1;opacity:0.917957806783"
       transform="matrix(0.26458333,0,0,0.26458333,-151.50797,-75.361353)"
       id="XMLID_44_"
       class="st1"
       points="574.6,280.8 564.8,264 587.4,238.6 " />
    <polygon
       style="stroke-width:2.00000003;stroke-miterlimit:4;stroke-dasharray:none;stroke:#00147b;stroke-opacity:1;stroke-linejoin:round;fill:#0d0071;fill-opacity:1;opacity:0.870116088067"
       transform="matrix(0.26458333,0,0,0.26458333,-151.50797,-75.361353)"
       id="XMLID_45_"
       class="st2"
       points="574.6,281 587.4,238.8 593.3,281 " />
    <polygon
       style="stroke-width:2.00000003;stroke-miterlimit:4;stroke-dasharray:none;stroke:#010f78;stroke-opacity:1;stroke-linejoin:round;fill:#09007f;fill-opacity:1;opacity:0.868799881622"
       transform="matrix(0.26458333,0,0,0.26458333,-151.50797,-75.361353)"
       id="XMLID_46_"
       class="st4"
       points="574.6,281 561.3,359.7 587.1,329.7 593.3,281 " />
    <polygon
       style="stroke-width:2.00000003;stroke-miterlimit:4;stroke-dasharray:none;stroke:#0e0174;stroke-opacity:1;stroke-linejoin:round;fill:#1b0071;fill-opacity:1;opacity:0.983353857979"
       transform="matrix(0.26458333,0,0,0.26458333,-151.50797,-75.361353)"
       id="XMLID_47_"
       class="st1"
       points="591.3,342.4 587.1,329.5 620.6,312.4 " />
    <polygon
       style="stroke-width:2.00000003;stroke-miterlimit:4;stroke-dasharray:none;stroke:#130087;stroke-opacity:1;stroke-linejoin:round;fill:#130073;fill-opacity:1;opacity:0.972405116293"
       transform="matrix(0.26458333,0,0,0.26458333,-151.50797,-75.361353)"
       id="XMLID_48_"
       class="st2"
       points="620.6,312.4 591.3,342.4 613.6,347.1 " />
    <polygon
       style="stroke-width:2.00000003;stroke-miterlimit:4;stroke-dasharray:none;stroke:#001c75;stroke-opacity:1;stroke-linejoin:round;fill:#130089;fill-opacity:1;opacity:0.973382008444"
       transform="matrix(0.26458333,0,0,0.26458333,-151.50797,-75.361353)"
       id="XMLID_49_"
       class="st4"
       points="593.3,280.8 587.4,238.6 600.3,270.2 " />
    <polygon
       style="stroke-width:2.00000003;stroke-miterlimit:4;stroke-dasharray:none;stroke:#1a0186;stroke-opacity:1;stroke-linejoin:round;fill:#06017a;fill-opacity:1;opacity:0.994368106729"
       transform="matrix(0.26458333,0,0,0.26458333,-151.50797,-75.361353)"
       id="XMLID_50_"
       class="st4"
       points="596.8,324.5 641.7,253.5 653.7,265.5 620.6,312.4 " />
    <polygon
       style="stroke-width:2.00000003;stroke-miterlimit:4;stroke-dasharray:none;stroke:#000f7b;stroke-opacity:1;stroke-linejoin:round;fill:#060079;fill-opacity:1;opacity:0.916198030211"
       transform="matrix(0.26458333,0,0,0.26458333,-151.50797,-75.361353)"
       id="XMLID_51_"
       class="st2"
       points="653.7,265.5 641.7,253.5 683,236.3 " />
    <polygon
       style="stroke-width:2.00000003;stroke-miterlimit:4;stroke-dasharray:none;stroke:#17007b;stroke-opacity:1;stroke-linejoin:round;fill:#011684;fill-opacity:1;opacity:0.963753939781"
       transform="matrix(0.26458333,0,0,0.26458333,-151.50797,-75.361353)"
       id="XMLID_52_"
       class="st4"
       points="653.7,265.5 683,236.3 672.8,275.3 " />
    <polygon
       style="stroke-width:2.00000003;stroke-miterlimit:4;stroke-dasharray:none;stroke:#110172;stroke-opacity:1;stroke-linejoin:round;fill:#060172;fill-opacity:1;opacity:0.899434155645"
       transform="matrix(0.26458333,0,0,0.26458333,-151.50797,-75.361353)"
       id="XMLID_53_"
       class="st5"
       points="653.7,265.5 620.6,312.4 613.6,347.1 672.8,275.3 " />
    <polygon
       style="stroke-width:2.00000003;stroke-miterlimit:4;stroke-dasharray:none;stroke:#002087;stroke-opacity:1;stroke-linejoin:round;fill:#130085;fill-opacity:1;opacity:0.921240479542"
       transform="matrix(0.26458333,0,0,0.26458333,-151.50797,-75.361353)"
       id="XMLID_54_"
       class="st1"
       points="641.7,253.5 683,236.3 640.1,244.1 " />
    <polygon
       style="stroke-width:2.00000003;stroke-miterlimit:4;stroke-dasharray:none;stroke:#0b0073;stroke-opacity:1;stroke-linejoin:round;fill:#0b0071;fill-opacity:1;opacity:0.942946632691"
       transform="matrix(0.26458333,0,0,0.26458333,-151.50797,-75.361353)"
       id="XMLID_55_"
       class="st2"
       points="596.8,324.5 641.7,253.5 640.1,244.1 599.9,298.7 587.1,329.5 " />
    <polygon
       style="stroke-width:2.00000003;stroke-miterlimit:4;stroke-dasharray:none;stroke:#000875;stroke-opacity:1;stroke-linejoin:round;fill:#0f007b;fill-opacity:1;opacity:0.933919650082"
       transform="matrix(0.26458333,0,0,0.26458333,-151.50797,-75.361353)"
       id="XMLID_56_"
       class="st7"
       points="600.3,270.2 599.9,298.7 587.1,329.5 593.3,280.8 " />
    <polygon
       style="stroke-width:2.00000003;stroke-miterlimit:4;stroke-dasharray:none;stroke:#000983;stroke-opacity:1;stroke-linejoin:round;fill:#170089;fill-opacity:1;opacity:0.949351834635"
       transform="matrix(0.26458333,0,0,0.26458333,-151.50797,-75.361353)"
       id="XMLID_57_"
       class="st5"
       points="672.8,275.3 683,236.3 681.8,268.7 " />
    <polygon
       style="stroke-width:2.00000003;stroke-miterlimit:4;stroke-dasharray:none;stroke:#010482;stroke-opacity:1;stroke-linejoin:round;fill:#1f0085;fill-opacity:1;opacity:0.914669044109"
       transform="matrix(0.26458333,0,0,0.26458333,-151.50797,-75.361353)"
       id="XMLID_58_"
       class="st7"
       points="681.8,268.7 607.7,361.5 613.6,347.1 672.8,275.3 " />
    <polygon
       style="stroke-width:2.00000003;stroke-miterlimit:4;stroke-dasharray:none;stroke:#010172;stroke-opacity:1;stroke-linejoin:round;fill:#0c007f;fill-opacity:1;opacity:0.861723289134"
       transform="matrix(0.26458333,0,0,0.26458333,-151.50797,-75.361353)"
       id="XMLID_59_"
       class="st2"
       points="591.3,342.4 560.5,377.5 561.3,359.5 587.1,329.5 " />
    <polygon
       style="stroke-width:2.00000003;stroke-miterlimit:4;stroke-dasharray:none;stroke:#011370;stroke-opacity:1;stroke-linejoin:round;fill:#0d0071;fill-opacity:1;opacity:0.917536347787"
       transform="matrix(0.26458333,0,0,0.26458333,-151.50797,-75.361353)"
       id="XMLID_60_"
       class="st3"
       points="560.5,377 574.9,377 613.6,346.8 591.3,342 " />
    <polygon
       style="stroke-width:2.00000003;stroke-miterlimit:4;stroke-dasharray:none;stroke:#000983;stroke-opacity:1;stroke-linejoin:round;fill:#080079;fill-opacity:1;opacity:0.892715489971"
       transform="matrix(0.26458333,0,0,0.26458333,-151.50797,-75.361353)"
       id="XMLID_61_"
       class="st2"
       points="574.9,377.5 590.6,394.3 607.7,361.5 613.6,347.1 " />
    <polygon
       style="stroke-width:2.00000003;stroke-miterlimit:4;stroke-dasharray:none;stroke:#000f7f;stroke-opacity:1;stroke-linejoin:round;fill:#001f83;fill-opacity:1;opacity:0.991218454565"
       transform="matrix(0.26458333,0,0,0.26458333,-151.50797,-75.361353)"
       id="XMLID_62_"
       class="st4"
       points="607.7,361.5 590.6,394.3 607.3,392.3 " />
    <polygon
       style="stroke-width:2.00000003;stroke-miterlimit:4;stroke-dasharray:none;stroke:#000e71;stroke-opacity:1;stroke-linejoin:round;fill:#060075;fill-opacity:1;opacity:0.911326545281"
       transform="matrix(0.26458333,0,0,0.26458333,-151.50797,-75.361353)"
       id="XMLID_63_"
       class="st5"
       points="617.4,349.4 615.1,379.8 607.3,392.3 607.7,361.5 " />
    <polygon
       style="stroke-width:2.00000003;stroke-miterlimit:4;stroke-dasharray:none;stroke:#001373;stroke-opacity:1;stroke-linejoin:round;fill:#000077;fill-opacity:1;opacity:0.874827870684"
       transform="matrix(0.26458333,0,0,0.26458333,-151.50797,-75.361353)"
       id="XMLID_64_"
       class="st5"
       points="561.3,359.5 543.8,371.2 560.5,377.5 " />
    <polygon
       style="stroke-width:2.00000003;stroke-miterlimit:4;stroke-dasharray:none;stroke:#14007b;stroke-opacity:1;stroke-linejoin:round;fill:#040178;fill-opacity:1;opacity:0.959939836937"
       transform="matrix(0.26458333,0,0,0.26458333,-151.50797,-75.361353)"
       id="XMLID_65_"
       class="st6"
       points="560.5,377.5 543.8,371.2 539.5,394.3 " />
    <polygon
       style="stroke-width:2.00000003;stroke-miterlimit:4;stroke-dasharray:none;stroke:#100071;stroke-opacity:1;stroke-linejoin:round;fill:#000387;fill-opacity:1;opacity:0.989173666889"
       transform="matrix(0.26458333,0,0,0.26458333,-151.50797,-75.361353)"
       id="XMLID_66_"
       class="st4"
       points="539.5,394.3 543.8,371.2 520,384.9 " />
    <polygon
       style="stroke-width:2.00000003;stroke-miterlimit:4;stroke-dasharray:none;stroke:#001975;stroke-opacity:1;stroke-linejoin:round;fill:#010a82;fill-opacity:1;opacity:0.886185644228"
       transform="matrix(0.26458333,0,0,0.26458333,-151.50797,-75.361353)"
       id="XMLID_67_"
       class="st3"
       points="520,384.9 543.8,371.2 525.8,360.3 " />
    <polygon
       style="stroke-width:2.00000003;stroke-miterlimit:4;stroke-dasharray:none;stroke:#1d007d;stroke-opacity:1;stroke-linejoin:round;fill:#000573;fill-opacity:1;opacity:0.968030097587"
       transform="matrix(0.26458333,0,0,0.26458333,-151.50797,-75.361353)"
       id="XMLID_68_"
       class="st1"
       points="520,384.9 525.8,360.3 514.1,370.9 " />
    <polygon
       style="stroke-width:2.00000003;stroke-miterlimit:4;stroke-dasharray:none;stroke:#002577;stroke-opacity:1;stroke-linejoin:round;fill:#180170;fill-opacity:1;opacity:0.884693061801"
       transform="matrix(0.26458333,0,0,0.26458333,-151.50797,-75.361353)"
       id="XMLID_69_"
       class="st7"
       points="539.5,394 564,392.7 574.9,377 560.5,377 " />
    <polygon
       style="stroke-width:2.00000003;stroke-miterlimit:4;stroke-dasharray:none;stroke:#130087;stroke-opacity:1;stroke-linejoin:round;fill:#090083;fill-opacity:1;opacity:0.971527889541"
       transform="matrix(0.26458333,0,0,0.26458333,-151.50797,-75.361353)"
       id="XMLID_70_"
       class="st6"
       points="574.9,377.5 564,393.1 571.4,397.4 " />
    <polygon
       style="stroke-width:2.00000003;stroke-miterlimit:4;stroke-dasharray:none;stroke:#001e73;stroke-opacity:1;stroke-linejoin:round;fill:#000371;fill-opacity:1;opacity:0.871649803722"
       transform="matrix(0.26458333,0,0,0.26458333,-151.50797,-75.361353)"
       id="XMLID_71_"
       class="st1"
       points="571.4,397.4 576.9,414.2 590.6,394.3 574.9,377.5 " />
    <polygon
       style="stroke-width:2.00000003;stroke-miterlimit:4;stroke-dasharray:none;stroke:#220085;stroke-opacity:1;stroke-linejoin:round;fill:#070188;fill-opacity:1;opacity:0.956215714725"
       transform="matrix(0.26458333,0,0,0.26458333,-151.50797,-75.361353)"
       id="XMLID_72_"
       class="st3"
       points="590.6,394.3 576.9,414.2 591.7,418.4 " />
    <polygon
       style="stroke-width:2.00000003;stroke-miterlimit:4;stroke-dasharray:none;stroke:#170089;stroke-opacity:1;stroke-linejoin:round;fill:#010970;fill-opacity:1;opacity:0.997459998792"
       transform="matrix(0.26458333,0,0,0.26458333,-151.50797,-75.361353)"
       id="XMLID_73_"
       class="st5"
       points="591.7,418.4 611.6,414.2 607.3,392.3 590.6,394.3 " />
    <polygon
       style="stroke-width:2.00000003;stroke-miterlimit:4;stroke-dasharray:none;stroke:#15007d;stroke-opacity:1;stroke-linejoin:round;fill:#001b81;fill-opacity:1;opacity:0.939346160233"
       transform="matrix(0.26458333,0,0,0.26458333,-151.50797,-75.361353)"
       id="XMLID_74_"
       class="st7"
       points="611.6,414.2 624.1,391.5 615.1,379.8 607.3,392.3 " />
    <polygon
       style="stroke-width:2.00000003;stroke-miterlimit:4;stroke-dasharray:none;stroke:#010482;stroke-opacity:1;stroke-linejoin:round;fill:#01217e;fill-opacity:1;opacity:0.898258939348"
       transform="matrix(0.26458333,0,0,0.26458333,-151.50797,-75.361353)"
       id="XMLID_75_"
       class="st1"
       points="551.6,311.6 542.6,307.6 542.2,267.5 " />
    <polygon
       style="stroke-width:2.00000003;stroke-miterlimit:4;stroke-dasharray:none;stroke:#170188;stroke-opacity:1;stroke-linejoin:round;fill:#100087;fill-opacity:1;opacity:0.86845385109"
       transform="matrix(0.26458333,0,0,0.26458333,-151.50797,-75.361353)"
       id="XMLID_76_"
       class="st2"
       points="542.2,267.5 551.6,311.6 558.2,304.2 " />
    <polygon
       style="stroke-width:2.00000003;stroke-miterlimit:4;stroke-dasharray:none;stroke:#000c77;stroke-opacity:1;stroke-linejoin:round;fill:#0e0170;fill-opacity:1;opacity:0.977394864323"
       transform="matrix(0.26458333,0,0,0.26458333,-151.50797,-75.361353)"
       id="XMLID_77_"
       class="st4"
       points="542.2,267.5 558.2,304.2 561.6,293.7 " />
    <polygon
       style="stroke-width:2.00000003;stroke-miterlimit:4;stroke-dasharray:none;stroke:#002173;stroke-opacity:1;stroke-linejoin:round;fill:#001c83;fill-opacity:1;opacity:0.974510420488"
       transform="matrix(0.26458333,0,0,0.26458333,-151.50797,-75.361353)"
       id="XMLID_78_"
       class="st2"
       points="542.6,307.6 551.6,311.6 557.4,332.6 " />
    <polygon
       style="stroke-width:2.00000003;stroke-miterlimit:4;stroke-dasharray:none;stroke:#001975;stroke-opacity:1;stroke-linejoin:round;fill:#000081;fill-opacity:1;opacity:0.909902256961"
       transform="matrix(0.26458333,0,0,0.26458333,-151.50797,-75.361353)"
       id="XMLID_79_"
       class="st4"
       points="551.6,311.6 558.2,304.2 559.6,312.6 557.4,332.6 " />
    <polygon
       style="stroke-width:2.00000003;stroke-miterlimit:4;stroke-dasharray:none;stroke:#002987;stroke-opacity:1;stroke-linejoin:round;fill:#000e7b;fill-opacity:1;opacity:0.947238072111"
       transform="matrix(0.26458333,0,0,0.26458333,-151.50797,-75.361353)"
       id="XMLID_80_"
       class="st7"
       points="561.6,293.7 559.6,312.6 558.2,304.2 " />
  </g>
</svg>
