<?xml version="1.0" encoding="UTF-8" standalone="no"?>
<!-- Created with Inkscape (http://www.inkscape.org/) -->

<svg
   xmlns:dc="http://purl.org/dc/elements/1.1/"
   xmlns:cc="http://creativecommons.org/ns#"
   xmlns:rdf="http://www.w3.org/1999/02/22-rdf-syntax-ns#"
   xmlns:svg="http://www.w3.org/2000/svg"
   xmlns="http://www.w3.org/2000/svg"
   xmlns:sodipodi="http://sodipodi.sourceforge.net/DTD/sodipodi-0.dtd"
   xmlns:inkscape="http://www.inkscape.org/namespaces/inkscape"
   width="44.423542mm"
   height="44.979168mm"
   viewBox="0 0 44.423542 44.979168"
   version="1.1"
   id="svg2855"
   inkscape:version=""
   sodipodi:docname="rainbow.svg">
  <sodipodi:namedview
     id="base"
     pagecolor="#ffffff"
     bordercolor="#666666"
     borderopacity="1.0"
     inkscape:pageopacity="0.0"
     inkscape:pageshadow="2"
     inkscape:zoom="4.8999999"
     inkscape:cx="83.950001"
     inkscape:cy="85.102043"
     inkscape:document-units="mm"
     inkscape:current-layer="layer2"
     showgrid="false"
     fit-margin-top="0"
     fit-margin-left="0"
     fit-margin-right="0"
     fit-margin-bottom="0" />
  <defs
     id="defs2849" />
  <metadata
     id="metadata2852">
    <rdf:RDF>
      <cc:Work
         rdf:about="">
        <dc:format>image/svg+xml</dc:format>
        <dc:type
           rdf:resource="http://purl.org/dc/dcmitype/StillImage" />
        <dc:title />
      </cc:Work>
    </rdf:RDF>
  </metadata>
  <g
     inkscape:label="green"
     id="layer4"
     inkscape:groupmode="layer"
     style="display:inline">
    <polygon
       style="opacity:0.99786054;fill:#2cfe09;fill-opacity:1;stroke:#10db00;stroke-width:2;stroke-linejoin:round;stroke-miterlimit:4;stroke-dasharray:none;stroke-opacity:1"
       transform="matrix(0.26458333,0,0,0.26458333,-295.61896,-160.86666)"
       id="XMLID_273_"
       class="st2"
       points="1246,701.3 1266.2,673.4 1276.1,667.8 1239,721.2 " />
    <polygon
       style="opacity:0.87007458;fill:#22fc0b;fill-opacity:1;stroke:#1fdd00;stroke-width:2;stroke-linejoin:round;stroke-miterlimit:4;stroke-dasharray:none;stroke-opacity:1"
       transform="matrix(0.26458333,0,0,0.26458333,-295.61896,-160.86666)"
       id="XMLID_274_"
       class="st6"
       points="1236.8,727.7 1239,721.9 1276.1,669 1283.4,669 1238.1,745 1239.7,731.3 " />
    <polygon
       style="opacity:0.98653241;fill:#01f807;fill-opacity:1;stroke:#00d10a;stroke-width:2;stroke-linejoin:round;stroke-miterlimit:4;stroke-dasharray:none;stroke-opacity:1"
       transform="matrix(0.26458333,0,0,0.26458333,-295.61896,-160.86666)"
       id="XMLID_275_"
       class="st7"
       points="1285.2,675.6 1252.8,735.5 1230.9,757 1238.1,744.4 1283.4,667.8 " />
  </g>
  <g
     style="display:inline"
     inkscape:label="red"
     id="layer5"
     inkscape:groupmode="layer">
    <polygon
       style="opacity:0.95581863;fill:#fc3601;fill-opacity:1;stroke:#e71202;stroke-width:2;stroke-linejoin:round;stroke-miterlimit:4;stroke-dasharray:none;stroke-opacity:1"
       transform="matrix(0.26458333,0,0,0.26458333,-295.61896,-160.86666)"
       id="XMLID_320_"
       class="st7"
       points="1136.3,687.6 1126.4,682 1158.9,728.7 1160,725.6 1157.8,716.1 " />
    <polygon
       style="opacity:0.95424739;fill:#f10802;fill-opacity:1;stroke:#e71702;stroke-width:2;stroke-linejoin:round;stroke-miterlimit:4;stroke-dasharray:none;stroke-opacity:1"
       transform="matrix(0.26458333,0,0,0.26458333,-295.61896,-160.86666)"
       id="XMLID_321_"
       class="st6"
       points="1119.2,682 1153.3,739.6 1156.1,736.6 1158.9,728.7 1126.4,682 " />
    <polygon
       style="opacity:0.95738729;fill:#f21801;fill-opacity:1;stroke:#d72502;stroke-width:2;stroke-linejoin:round;stroke-miterlimit:4;stroke-dasharray:none;stroke-opacity:1"
       transform="matrix(0.26458333,0,0,0.26458333,-295.61896,-160.86666)"
       id="XMLID_322_"
       class="st2"
       points="1119.2,682 1117.3,689.8 1147.5,745.6 1153.3,739.6 " />
  </g>
  <g
     inkscape:label="orange"
     id="layer6"
     inkscape:groupmode="layer"
     style="display:inline">
    <polygon
       style="opacity:0.98253742;fill:#fa5f01;fill-opacity:1;stroke:#dd3900;stroke-width:2;stroke-linejoin:round;stroke-miterlimit:4;stroke-dasharray:none;stroke-opacity:1"
       transform="matrix(0.26458333,0,0,0.26458333,-295.61896,-160.86666)"
       id="XMLID_318_"
       class="st6"
       points="1163.9,627.8 1148,628.9 1162.3,718.8 1168,717.2 " />
    <polygon
       style="opacity:0.91638237;fill:#fe6703;fill-opacity:1;stroke:#d72a02;stroke-width:2;stroke-linejoin:round;stroke-miterlimit:4;stroke-dasharray:none;stroke-opacity:1"
       transform="matrix(0.26458333,0,0,0.26458333,-295.61896,-160.86666)"
       id="XMLID_319_"
       class="st2"
       points="1148,628.9 1140.9,640 1160,725.6 1162.3,718.8 " />
  </g>
  <g
     style="display:inline"
     inkscape:label="yellow"
     id="layer7"
     inkscape:groupmode="layer">
    <polygon
       style="opacity:0.96049601;fill:#eefc09;fill-opacity:1;stroke:#efaf02;stroke-width:2;stroke-linejoin:round;stroke-miterlimit:4;stroke-dasharray:none;stroke-opacity:1"
       transform="matrix(0.26458333,0,0,0.26458333,-295.61896,-160.86666)"
       id="XMLID_267_"
       class="st2"
       points="1163.9,627.8 1168,717.2 1179.9,713.9 1172.2,620.6 " />
    <polygon
       style="opacity:0.89087764;fill:#fedd03;fill-opacity:1;stroke:#fbc300;stroke-width:2;stroke-linejoin:round;stroke-miterlimit:4;stroke-dasharray:none;stroke-opacity:1"
       transform="matrix(0.26458333,0,0,0.26458333,-295.61896,-160.86666)"
       id="XMLID_316_"
       class="st4"
       points="1185.2,620.1 1191.2,720.9 1185.9,727.5 1179.9,713.9 1172.2,620.6 " />
    <polygon
       style="opacity:0.97933403;fill:#fde90a;fill-opacity:1;stroke:#fbc302;stroke-width:2;stroke-linejoin:round;stroke-miterlimit:4;stroke-dasharray:none;stroke-opacity:1"
       transform="matrix(0.26458333,0,0,0.26458333,-295.61896,-160.86666)"
       id="XMLID_317_"
       class="st7"
       points="1202.1,635.3 1199.1,701.6 1196.6,714.4 1191.2,720.9 1185.2,620.1 " />
  </g>
  <g
     inkscape:label="blue"
     id="layer8"
     inkscape:groupmode="layer"
     style="display:inline">
    <polygon
       style="opacity:0.98485454;fill:#0000f1;fill-opacity:1;stroke:#0000df;stroke-width:2;stroke-linejoin:round;stroke-miterlimit:4;stroke-dasharray:none;stroke-opacity:1"
       transform="matrix(0.26458333,0,0,0.26458333,-295.61896,-160.86666)"
       id="XMLID_268_"
       class="st6"
       points="1212.4,633.7 1234.4,630 1208.6,719.2 1196.6,714.4 " />
    <polygon
       style="opacity:0.93775916;fill:#4909fe;fill-opacity:1;stroke:#2800d3;stroke-width:2;stroke-linejoin:round;stroke-miterlimit:4;stroke-dasharray:none;stroke-opacity:1"
       transform="matrix(0.26458333,0,0,0.26458333,-295.61896,-160.86666)"
       id="XMLID_269_"
       class="st4"
       points="1234.4,630 1243.7,620.9 1217.2,727 1208.6,719.2 " />
    <polygon
       style="opacity:0.93496285;fill:#0953fc;fill-opacity:1;stroke:#1600e5;stroke-width:2;stroke-linejoin:round;stroke-miterlimit:4;stroke-dasharray:none;stroke-opacity:1"
       transform="matrix(0.26458333,0,0,0.26458333,-295.61896,-160.86666)"
       id="XMLID_270_"
       class="st6"
       points="1243.7,620.9 1256.9,616.8 1217.7,748.4 1217.2,727 " />
    <polygon
       style="opacity:0.88090455;fill:#2104fd;fill-opacity:1;stroke:#0701e8;stroke-width:2;stroke-linejoin:round;stroke-miterlimit:4;stroke-dasharray:none;stroke-opacity:1"
       transform="matrix(0.26458333,0,0,0.26458333,-295.61896,-160.86666)"
       id="XMLID_271_"
       class="st1"
       points="1243.7,620.9 1234.4,630 1216.3,633.1 1254.7,612.8 1279.1,608 1256.9,616.8 " />
    <polygon
       style="opacity:0.96667433;fill:#0247f7;fill-opacity:1;stroke:#0025df;stroke-width:2;stroke-linejoin:round;stroke-miterlimit:4;stroke-dasharray:none;stroke-opacity:1"
       transform="matrix(0.26458333,0,0,0.26458333,-295.61896,-160.86666)"
       id="XMLID_272_"
       class="st7"
       points="1279.1,608 1236.8,727.5 1217.7,748.4 1256.9,616.8 " />
  </g>
  <g
     transform="translate(-269.58585,-241.24851)"
     id="layer1"
     inkscape:groupmode="layer"
     inkscape:label="indigo"
     style="display:inline">
    <polygon
       style="opacity:0.91822312;fill:#0800a7;fill-opacity:1;stroke:#100087;stroke-width:2;stroke-linejoin:round;stroke-miterlimit:4;stroke-dasharray:none;stroke-opacity:1"
       transform="matrix(0.26458333,0,0,0.26458333,-26.033106,80.381848)"
       id="XMLID_281_"
       class="st2"
       points="1217.7,748.4 1219.1,762.6 1236.4,733.1 1236.8,727.5 " />
    <polygon
       style="opacity:0.89741546;fill:#0108a2;fill-opacity:1;stroke:#010190;stroke-width:2;stroke-linejoin:round;stroke-miterlimit:4;stroke-dasharray:none;stroke-opacity:1"
       transform="matrix(0.26458333,0,0,0.26458333,-26.033106,80.381848)"
       id="XMLID_282_"
       class="st6"
       points="1236.4,733.1 1239.7,731 1236.8,727.5 " />
    <polygon
       style="opacity:0.92167173;fill:#0013a3;fill-opacity:1;stroke:#000099;stroke-width:2;stroke-linejoin:round;stroke-miterlimit:4;stroke-dasharray:none;stroke-opacity:1"
       transform="matrix(0.26458333,0,0,0.26458333,-26.033106,80.381848)"
       id="XMLID_283_"
       class="st6"
       points="1236.4,733.1 1227,764.6 1219.1,762.6 " />
    <polygon
       style="opacity:0.99415732;fill:#011ca6;fill-opacity:1;stroke:#040182;stroke-width:2;stroke-linejoin:round;stroke-miterlimit:4;stroke-dasharray:none;stroke-opacity:1"
       transform="matrix(0.26458333,0,0,0.26458333,-26.033106,80.381848)"
       id="XMLID_284_"
       class="st7"
       points="1230.9,757 1227,764.6 1236.4,733.1 1239.7,731 1238.1,744.4 " />
    <polygon
       style="opacity:0.87657142;fill:#0010a9;fill-opacity:1;stroke:#000a8b;stroke-width:2;stroke-linejoin:round;stroke-miterlimit:4;stroke-dasharray:none;stroke-opacity:1"
       transform="matrix(0.26458333,0,0,0.26458333,-26.033106,80.381848)"
       id="XMLID_285_"
       class="st7"
       points="1179.9,713.9 1169.5,719.7 1169.9,753.6 1185.9,727.5 " />
    <polygon
       style="opacity:0.98381479;fill:#00079f;fill-opacity:1;stroke:#001297;stroke-width:2;stroke-linejoin:round;stroke-miterlimit:4;stroke-dasharray:none;stroke-opacity:1"
       transform="matrix(0.26458333,0,0,0.26458333,-26.033106,80.381848)"
       id="XMLID_286_"
       class="st1"
       points="1179.9,713.9 1162.3,718.8 1169.5,719.7 " />
    <polygon
       style="opacity:0.93683167;fill:#001ca9;fill-opacity:1;stroke:#00118b;stroke-width:2;stroke-linejoin:round;stroke-miterlimit:4;stroke-dasharray:none;stroke-opacity:1"
       transform="matrix(0.26458333,0,0,0.26458333,-26.033106,80.381848)"
       id="XMLID_287_"
       class="st2"
       points="1162.3,718.8 1156.1,736.6 1163.9,730.2 1169.5,719.7 " />
    <polygon
       style="opacity:0.86263984;fill:#0501a8;fill-opacity:1;stroke:#01018a;stroke-width:2;stroke-linejoin:round;stroke-miterlimit:4;stroke-dasharray:none;stroke-opacity:1"
       transform="matrix(0.26458333,0,0,0.26458333,-26.033106,80.381848)"
       id="XMLID_288_"
       class="st4"
       points="1161.9,752.6 1166.7,760.5 1169.9,753.6 1169.5,719.7 1163.9,730.2 " />
    <polygon
       style="opacity:0.93760496;fill:#0800a1;fill-opacity:1;stroke:#001581;stroke-width:2;stroke-linejoin:round;stroke-miterlimit:4;stroke-dasharray:none;stroke-opacity:1"
       transform="matrix(0.26458333,0,0,0.26458333,-26.033106,80.381848)"
       id="XMLID_289_"
       class="st7"
       points="1163.9,730.2 1153.9,741.6 1153.1,761.4 1161.9,752.6 " />
    <polygon
       style="opacity:0.88347683;fill:#0f0196;fill-opacity:1;stroke:#0d0089;stroke-width:2;stroke-linejoin:round;stroke-miterlimit:4;stroke-dasharray:none;stroke-opacity:1"
       transform="matrix(0.26458333,0,0,0.26458333,-26.033106,80.381848)"
       id="XMLID_290_"
       class="st1"
       points="1156.1,736.6 1143.7,749.6 1153.9,741.6 1163.9,730.2 " />
    <polygon
       style="opacity:0.98969613;fill:#00079b;fill-opacity:1;stroke:#010b96;stroke-width:2;stroke-linejoin:round;stroke-miterlimit:4;stroke-dasharray:none;stroke-opacity:1"
       transform="matrix(0.26458333,0,0,0.26458333,-26.033106,80.381848)"
       id="XMLID_291_"
       class="st2"
       points="1147.7,766.2 1153.1,761.4 1153.9,741.6 1143.7,749.6 1140.6,763.1 " />
    <polygon
       style="opacity:0.98727866;fill:#0110a6;fill-opacity:1;stroke:#00008d;stroke-width:2;stroke-linejoin:round;stroke-miterlimit:4;stroke-dasharray:none;stroke-opacity:1"
       transform="matrix(0.26458333,0,0,0.26458333,-26.033106,80.381848)"
       id="XMLID_292_"
       class="st4"
       points="1147.7,766 1158.3,766 1153.1,761.2 " />
    <polygon
       style="opacity:0.92797487;fill:#080099;fill-opacity:1;stroke:#000b97;stroke-width:2;stroke-linejoin:round;stroke-miterlimit:4;stroke-dasharray:none;stroke-opacity:1"
       transform="matrix(0.26458333,0,0,0.26458333,-26.033106,80.381848)"
       id="XMLID_293_"
       class="st6"
       points="1153.1,761.4 1158.3,766.2 1166.7,760.5 1161.9,752.6 " />
    <polygon
       style="opacity:0.98087338;fill:#0014a3;fill-opacity:1;stroke:#000489;stroke-width:2;stroke-linejoin:round;stroke-miterlimit:4;stroke-dasharray:none;stroke-opacity:1"
       transform="matrix(0.26458333,0,0,0.26458333,-26.033106,80.381848)"
       id="XMLID_294_"
       class="st1"
       points="1158.3,766.2 1160.7,769 1166.7,760.5 " />
    <polygon
       style="opacity:0.8678085;fill:#010c9e;fill-opacity:1;stroke:#001995;stroke-width:2;stroke-linejoin:round;stroke-miterlimit:4;stroke-dasharray:none;stroke-opacity:1"
       transform="matrix(0.26458333,0,0,0.26458333,-26.033106,80.381848)"
       id="XMLID_295_"
       class="st4"
       points="1160.7,769 1176.4,769.8 1166.7,760.5 " />
    <polygon
       style="opacity:0.89817954;fill:#001893;fill-opacity:1;stroke:#070097;stroke-width:2;stroke-linejoin:round;stroke-miterlimit:4;stroke-dasharray:none;stroke-opacity:1"
       transform="matrix(0.26458333,0,0,0.26458333,-26.033106,80.381848)"
       id="XMLID_296_"
       class="st6"
       points="1166.7,760.5 1169.9,753.6 1176.4,769.8 " />
    <polygon
       style="opacity:0.86868741;fill:#0110a0;fill-opacity:1;stroke:#01078a;stroke-width:2;stroke-linejoin:round;stroke-miterlimit:4;stroke-dasharray:none;stroke-opacity:1"
       transform="matrix(0.26458333,0,0,0.26458333,-26.033106,80.381848)"
       id="XMLID_307_"
       class="st4"
       points="1221.2,778 1232.3,775.7 1227,764.6 1219.1,762.6 " />
    <polygon
       style="opacity:0.94681779;fill:#0008a3;fill-opacity:1;stroke:#011a98;stroke-width:2;stroke-linejoin:round;stroke-miterlimit:4;stroke-dasharray:none;stroke-opacity:1"
       transform="matrix(0.26458333,0,0,0.26458333,-26.033106,80.381848)"
       id="XMLID_308_"
       class="st6"
       points="1232.3,775.7 1233.9,772.3 1230.6,766.2 1227,764.6 " />
    <polygon
       style="opacity:0.9444899;fill:#1401a0;fill-opacity:1;stroke:#000089;stroke-width:2;stroke-linejoin:round;stroke-miterlimit:4;stroke-dasharray:none;stroke-opacity:1"
       transform="matrix(0.26458333,0,0,0.26458333,-26.033106,80.381848)"
       id="XMLID_309_"
       class="st7"
       points="1230.6,766.2 1230.9,757 1227,764.6 " />
    <polygon
       style="opacity:0.86161786;fill:#001ca7;fill-opacity:1;stroke:#010184;stroke-width:2;stroke-linejoin:round;stroke-miterlimit:4;stroke-dasharray:none;stroke-opacity:1"
       transform="matrix(0.26458333,0,0,0.26458333,-26.033106,80.381848)"
       id="XMLID_310_"
       class="st6"
       points="1252.8,735.5 1263.3,734.1 1230.6,766.2 1230.9,757 " />
    <polygon
       style="opacity:0.96597769;fill:#0118a2;fill-opacity:1;stroke:#120099;stroke-width:2;stroke-linejoin:round;stroke-miterlimit:4;stroke-dasharray:none;stroke-opacity:1"
       transform="matrix(0.26458333,0,0,0.26458333,-26.033106,80.381848)"
       id="XMLID_311_"
       class="st7"
       points="1263.3,734.1 1266.3,736.6 1238.5,763 1230.6,766.2 " />
    <polygon
       style="opacity:0.96088095;fill:#00009b;fill-opacity:1;stroke:#070180;stroke-width:2;stroke-linejoin:round;stroke-miterlimit:4;stroke-dasharray:none;stroke-opacity:1"
       transform="matrix(0.26458333,0,0,0.26458333,-26.033106,80.381848)"
       id="XMLID_312_"
       class="st4"
       points="1252.8,735.5 1270,729.4 1263.3,734.1 " />
    <polygon
       style="opacity:0.87742902;fill:#011994;fill-opacity:1;stroke:#010894;stroke-width:2;stroke-linejoin:round;stroke-miterlimit:4;stroke-dasharray:none;stroke-opacity:1"
       transform="matrix(0.26458333,0,0,0.26458333,-26.033106,80.381848)"
       id="XMLID_313_"
       class="st6"
       points="1263.3,734.1 1266.3,736.6 1270,729.4 " />
    <polygon
       style="opacity:0.97884563;fill:#001ba1;fill-opacity:1;stroke:#000381;stroke-width:2;stroke-linejoin:round;stroke-miterlimit:4;stroke-dasharray:none;stroke-opacity:1"
       transform="matrix(0.26458333,0,0,0.26458333,-26.033106,80.381848)"
       id="XMLID_314_"
       class="st4"
       points="1238.5,763 1239,770.8 1233.9,772.3 1230.6,766.2 " />
    <polygon
       style="opacity:0.92259408;fill:#000d91;fill-opacity:1;stroke:#001085;stroke-width:2;stroke-linejoin:round;stroke-miterlimit:4;stroke-dasharray:none;stroke-opacity:1"
       transform="matrix(0.26458333,0,0,0.26458333,-26.033106,80.381848)"
       id="XMLID_315_"
       class="st7"
       points="1238.5,763 1240.8,769 1239,770.8 " />
  </g>
  <g
     inkscape:label="violet"
     id="layer2"
     inkscape:groupmode="layer">
    <polygon
       style="fill:#7001fa;fill-opacity:1;stroke:#5600e5;stroke-opacity:1;stroke-width:2.00000003;stroke-miterlimit:4;stroke-dasharray:none;stroke-linejoin:round;opacity:0.940792472988"
       transform="matrix(0.26458333,0,0,0.26458333,-295.61896,-160.86666)"
       id="XMLID_276_"
       class="st1"
       points="1185.9,727.5 1169.9,753.6 1191.2,730 1196.6,714.4 " />
    <polygon
       style="fill:#6d00f3;fill-opacity:1;stroke:#6500e3;stroke-opacity:1;stroke-width:2.00000003;stroke-miterlimit:4;stroke-dasharray:none;stroke-linejoin:round;opacity:0.886552872126"
       transform="matrix(0.26458333,0,0,0.26458333,-295.61896,-160.86666)"
       id="XMLID_277_"
       class="st7"
       points="1191.2,730 1204.8,739.2 1208.6,719.2 1196.6,714.4 " />
    <polygon
       style="fill:#8401f4;fill-opacity:1;stroke:#4802e7;stroke-opacity:1;stroke-width:2.00000003;stroke-miterlimit:4;stroke-dasharray:none;stroke-linejoin:round;opacity:0.967275116041"
       transform="matrix(0.26458333,0,0,0.26458333,-295.61896,-160.86666)"
       id="XMLID_278_"
       class="st6"
       points="1208.6,719.2 1204.8,739.2 1217.2,727 " />
    <polygon
       style="fill:#6901f6;fill-opacity:1;stroke:#7300f5;stroke-opacity:1;stroke-width:2.00000003;stroke-miterlimit:4;stroke-dasharray:none;stroke-linejoin:round;opacity:0.905885915791"
       transform="matrix(0.26458333,0,0,0.26458333,-295.61896,-160.86666)"
       id="XMLID_279_"
       class="st7"
       points="1204.8,739.2 1212,758.7 1217.7,748.4 1217.2,727 " />
    <polygon
       style="fill:#7101fc;fill-opacity:1;stroke:#3700e9;stroke-opacity:1;stroke-width:2.00000003;stroke-miterlimit:4;stroke-dasharray:none;stroke-linejoin:round;opacity:0.983298205046"
       transform="matrix(0.26458333,0,0,0.26458333,-295.61896,-160.86666)"
       id="XMLID_280_"
       class="st4"
       points="1212,758.7 1217.7,748.4 1219.1,762.6 " />
    <polygon
       style="fill:#7600fb;fill-opacity:1;stroke:#4a01ee;stroke-opacity:1;stroke-width:2.00000003;stroke-miterlimit:4;stroke-dasharray:none;stroke-linejoin:round;opacity:0.880439057256"
       transform="matrix(0.26458333,0,0,0.26458333,-295.61896,-160.86666)"
       id="XMLID_297_"
       class="st2"
       points="1204.8,739.2 1191.2,730 1169.9,753.6 1176.4,769.8 1192.9,760.5 " />
    <polygon
       style="fill:#8606fd;fill-opacity:1;stroke:#4900ed;stroke-opacity:1;stroke-width:2.00000003;stroke-miterlimit:4;stroke-dasharray:none;stroke-linejoin:round;opacity:0.986026229633"
       transform="matrix(0.26458333,0,0,0.26458333,-295.61896,-160.86666)"
       id="XMLID_298_"
       class="st1"
       points="1192.9,760.5 1176.4,769.8 1186.4,775.9 " />
    <polygon
       style="fill:#4a01f0;fill-opacity:1;stroke:#4700e9;stroke-opacity:1;stroke-width:2.00000003;stroke-miterlimit:4;stroke-dasharray:none;stroke-linejoin:round;opacity:0.967433940457"
       transform="matrix(0.26458333,0,0,0.26458333,-295.61896,-160.86666)"
       id="XMLID_299_"
       class="st2"
       points="1192.9,760.5 1186.4,775.9 1200.5,775.6 " />
    <polygon
       style="fill:#6002fb;fill-opacity:1;stroke:#5a02df;stroke-opacity:1;stroke-width:2.00000003;stroke-miterlimit:4;stroke-dasharray:none;stroke-linejoin:round;opacity:0.908636924008"
       transform="matrix(0.26458333,0,0,0.26458333,-295.61896,-160.86666)"
       id="XMLID_300_"
       class="st4"
       points="1200.5,775.6 1192.9,760.5 1206.5,773.5 " />
    <polygon
       style="fill:#6e01f4;fill-opacity:1;stroke:#6901ea;stroke-opacity:1;stroke-width:2.00000003;stroke-miterlimit:4;stroke-dasharray:none;stroke-linejoin:round;opacity:0.91465265659"
       transform="matrix(0.26458333,0,0,0.26458333,-295.61896,-160.86666)"
       id="XMLID_301_"
       class="st4"
       points="1192.9,760.5 1204.8,739.2 1212,758.7 1205.8,765.2 " />
    <polygon
       style="fill:#4d02f7;fill-opacity:1;stroke:#6800f5;stroke-opacity:1;stroke-width:2.00000003;stroke-miterlimit:4;stroke-dasharray:none;stroke-linejoin:round;opacity:0.862706025261"
       transform="matrix(0.26458333,0,0,0.26458333,-295.61896,-160.86666)"
       id="XMLID_302_"
       class="st6"
       points="1205.8,765.2 1192.9,760.5 1206.5,773.5 " />
    <polygon
       style="fill:#7701f0;fill-opacity:1;stroke:#5101f2;stroke-opacity:1;stroke-width:2.00000003;stroke-miterlimit:4;stroke-dasharray:none;stroke-linejoin:round;opacity:0.976752453045"
       transform="matrix(0.26458333,0,0,0.26458333,-295.61896,-160.86666)"
       id="XMLID_303_"
       class="st2"
       points="1205.8,765.2 1206.5,773.5 1212,758.7 " />
    <polygon
       style="fill:#6602fd;fill-opacity:1;stroke:#4b02e1;stroke-opacity:1;stroke-width:2.00000003;stroke-miterlimit:4;stroke-dasharray:none;stroke-linejoin:round;opacity:0.892768543262"
       transform="matrix(0.26458333,0,0,0.26458333,-295.61896,-160.86666)"
       id="XMLID_304_"
       class="st4"
       points="1212,758.7 1206.5,773.5 1217.6,773.3 " />
    <polygon
       style="fill:#5301fa;fill-opacity:1;stroke:#4401ee;stroke-opacity:1;stroke-width:2.00000003;stroke-miterlimit:4;stroke-dasharray:none;stroke-linejoin:round;opacity:0.987832314159"
       transform="matrix(0.26458333,0,0,0.26458333,-295.61896,-160.86666)"
       id="XMLID_305_"
       class="st6"
       points="1219.1,762.6 1212,758.7 1217.6,773.3 " />
    <polygon
       style="fill:#8f00fd;fill-opacity:1;stroke:#5201f6;stroke-opacity:1;stroke-width:2.00000003;stroke-miterlimit:4;stroke-dasharray:none;stroke-linejoin:round;opacity:0.921340344392"
       transform="matrix(0.26458333,0,0,0.26458333,-295.61896,-160.86666)"
       id="XMLID_306_"
       class="st2"
       points="1219.1,762.6 1217.6,773.3 1221.2,778 " />
  </g>
</svg>
