<?xml version="1.0" encoding="UTF-8" standalone="no"?>
<!-- Created with Inkscape (http://www.inkscape.org/) -->

<svg
   xmlns:dc="http://purl.org/dc/elements/1.1/"
   xmlns:cc="http://creativecommons.org/ns#"
   xmlns:rdf="http://www.w3.org/1999/02/22-rdf-syntax-ns#"
   xmlns:svg="http://www.w3.org/2000/svg"
   xmlns="http://www.w3.org/2000/svg"
   xmlns:sodipodi="http://sodipodi.sourceforge.net/DTD/sodipodi-0.dtd"
   xmlns:inkscape="http://www.inkscape.org/namespaces/inkscape"
   sodipodi:docname="amber3.svg"
   inkscape:version=""
   id="svg18634"
   version="1.1"
   viewBox="0 0 53.869167 48.180626"
   height="48.180626mm"
   width="53.869167mm">
  <sodipodi:namedview
     fit-margin-bottom="0"
     fit-margin-right="0"
     fit-margin-left="0"
     fit-margin-top="0"
     showgrid="false"
     inkscape:current-layer="layer1"
     inkscape:document-units="mm"
     inkscape:cy="91.050002"
     inkscape:cx="101.8"
     inkscape:zoom="4.5853926"
     inkscape:pageshadow="2"
     inkscape:pageopacity="0.0"
     borderopacity="1.0"
     bordercolor="#666666"
     pagecolor="#ffffff"
     id="base" />
  <defs
     id="defs18628" />
  <metadata
     id="metadata18631">
    <rdf:RDF>
      <cc:Work
         rdf:about="">
        <dc:format>image/svg+xml</dc:format>
        <dc:type
           rdf:resource="http://purl.org/dc/dcmitype/StillImage" />
        <dc:title></dc:title>
      </cc:Work>
    </rdf:RDF>
  </metadata>
  <g
     transform="translate(24.666722,12.840312)"
     id="layer1"
     inkscape:groupmode="layer"
     inkscape:label="Layer 1">
    <polygon
       style="stroke-width:2.00000003;stroke-miterlimit:4;stroke-dasharray:none;stroke:#f4e501;stroke-opacity:1;stroke-linejoin:round;fill:#fe9103;fill-opacity:1;opacity:0.950805095159"
       transform="matrix(0.26458333,0,0,0.26458333,-151.50797,-75.361353)"
       id="XMLID_37_"
       class="st1"
       points="502.4,315.9 479.4,264.4 483.3,306.9 " />
    <polygon
       style="stroke-width:2.00000003;stroke-miterlimit:4;stroke-dasharray:none;stroke:#f79202;stroke-opacity:1;stroke-linejoin:round;fill:#fd650a;fill-opacity:1;opacity:0.901938618955"
       transform="matrix(0.26458333,0,0,0.26458333,-151.50797,-75.361353)"
       id="XMLID_38_"
       class="st2"
       points="502.4,315.9 479.4,264.4 518.4,287 " />
    <polygon
       style="stroke-width:2.00000003;stroke-miterlimit:4;stroke-dasharray:none;stroke:#fde800;stroke-opacity:1;stroke-linejoin:round;fill:#f3a600;fill-opacity:1;opacity:0.924726416704"
       transform="matrix(0.26458333,0,0,0.26458333,-151.50797,-75.361353)"
       id="XMLID_39_"
       class="st4"
       points="518.4,287.6 479.4,265 517.2,265 " />
    <polygon
       style="stroke-width:2.00000003;stroke-miterlimit:4;stroke-dasharray:none;stroke:#fa7601;stroke-opacity:1;stroke-linejoin:round;fill:#f3a000;fill-opacity:1;opacity:0.88560333265"
       transform="matrix(0.26458333,0,0,0.26458333,-151.50797,-75.361353)"
       id="XMLID_40_"
       class="st2"
       points="483.3,306.9 525.8,360.3 543.8,371.2 502.4,315.9 " />
    <polygon
       style="stroke-width:2.00000003;stroke-miterlimit:4;stroke-dasharray:none;stroke:#fdb300;stroke-opacity:1;stroke-linejoin:round;fill:#f97500;fill-opacity:1;opacity:0.898362033394"
       transform="matrix(0.26458333,0,0,0.26458333,-151.50797,-75.361353)"
       id="XMLID_41_"
       class="st4"
       points="502.4,315.9 518.4,287 561.3,359.5 543.8,371.2 " />
    <polygon
       style="stroke-width:2.00000003;stroke-miterlimit:4;stroke-dasharray:none;stroke:#f27201;stroke-opacity:1;stroke-linejoin:round;fill:#f4da01;fill-opacity:1;opacity:0.971368833003"
       transform="matrix(0.26458333,0,0,0.26458333,-151.50797,-75.361353)"
       id="XMLID_42_"
       class="st5"
       points="518.4,287 517.2,264.4 557.4,332.6 561.3,359.5 " />
    <polygon
       style="stroke-width:2.00000003;stroke-miterlimit:4;stroke-dasharray:none;stroke:#f56800;stroke-opacity:1;stroke-linejoin:round;fill:#fef009;fill-opacity:1;opacity:0.90699033149"
       transform="matrix(0.26458333,0,0,0.26458333,-151.50797,-75.361353)"
       id="XMLID_43_"
       class="st2"
       points="561.3,359.5 574.6,280.8 564.8,264 557.4,332.6 " />
    <polygon
       style="stroke-width:2.00000003;stroke-miterlimit:4;stroke-dasharray:none;stroke:#f25c01;stroke-opacity:1;stroke-linejoin:round;fill:#f5c400;fill-opacity:1;opacity:0.925791669143"
       transform="matrix(0.26458333,0,0,0.26458333,-151.50797,-75.361353)"
       id="XMLID_44_"
       class="st1"
       points="574.6,280.8 564.8,264 587.4,238.6 " />
    <polygon
       style="stroke-width:2.00000003;stroke-miterlimit:4;stroke-dasharray:none;stroke:#fcf309;stroke-opacity:1;stroke-linejoin:round;fill:#f9aa00;fill-opacity:1;opacity:0.913967154945"
       transform="matrix(0.26458333,0,0,0.26458333,-151.50797,-75.361353)"
       id="XMLID_45_"
       class="st2"
       points="574.6,281 587.4,238.8 593.3,281 " />
    <polygon
       style="stroke-width:2.00000003;stroke-miterlimit:4;stroke-dasharray:none;stroke:#f9de00;stroke-opacity:1;stroke-linejoin:round;fill:#f78c02;fill-opacity:1;opacity:0.990278598424"
       transform="matrix(0.26458333,0,0,0.26458333,-151.50797,-75.361353)"
       id="XMLID_46_"
       class="st4"
       points="574.6,281 561.3,359.7 587.1,329.7 593.3,281 " />
    <polygon
       style="stroke-width:2.00000003;stroke-miterlimit:4;stroke-dasharray:none;stroke:#f1c702;stroke-opacity:1;stroke-linejoin:round;fill:#f76900;fill-opacity:1;opacity:0.86332238777"
       transform="matrix(0.26458333,0,0,0.26458333,-151.50797,-75.361353)"
       id="XMLID_47_"
       class="st1"
       points="591.3,342.4 587.1,329.5 620.6,312.4 " />
    <polygon
       style="stroke-width:2.00000003;stroke-miterlimit:4;stroke-dasharray:none;stroke:#f1b500;stroke-opacity:1;stroke-linejoin:round;fill:#f36d00;fill-opacity:1;opacity:0.907639340273"
       transform="matrix(0.26458333,0,0,0.26458333,-151.50797,-75.361353)"
       id="XMLID_48_"
       class="st2"
       points="620.6,312.4 591.3,342.4 613.6,347.1 " />
    <polygon
       style="stroke-width:2.00000003;stroke-miterlimit:4;stroke-dasharray:none;stroke:#f7dd02;stroke-opacity:1;stroke-linejoin:round;fill:#fbec00;fill-opacity:1;opacity:0.986479696608"
       transform="matrix(0.26458333,0,0,0.26458333,-151.50797,-75.361353)"
       id="XMLID_49_"
       class="st4"
       points="593.3,280.8 587.4,238.6 600.3,270.2 " />
    <polygon
       style="stroke-width:2.00000003;stroke-miterlimit:4;stroke-dasharray:none;stroke:#f48a01;stroke-opacity:1;stroke-linejoin:round;fill:#fddd06;fill-opacity:1;opacity:0.993781423444"
       transform="matrix(0.26458333,0,0,0.26458333,-151.50797,-75.361353)"
       id="XMLID_50_"
       class="st4"
       points="596.8,324.5 641.7,253.5 653.7,265.5 620.6,312.4 " />
    <polygon
       style="stroke-width:2.00000003;stroke-miterlimit:4;stroke-dasharray:none;stroke:#f9d302;stroke-opacity:1;stroke-linejoin:round;fill:#fec109;fill-opacity:1;opacity:0.869946884098"
       transform="matrix(0.26458333,0,0,0.26458333,-151.50797,-75.361353)"
       id="XMLID_51_"
       class="st2"
       points="653.7,265.5 641.7,253.5 683,236.3 " />
    <polygon
       style="stroke-width:2.00000003;stroke-miterlimit:4;stroke-dasharray:none;stroke:#fe6509;stroke-opacity:1;stroke-linejoin:round;fill:#f48a01;fill-opacity:1;opacity:0.957075000997"
       transform="matrix(0.26458333,0,0,0.26458333,-151.50797,-75.361353)"
       id="XMLID_52_"
       class="st4"
       points="653.7,265.5 683,236.3 672.8,275.3 " />
    <polygon
       style="stroke-width:2.00000003;stroke-miterlimit:4;stroke-dasharray:none;stroke:#febb05;stroke-opacity:1;stroke-linejoin:round;fill:#fee307;fill-opacity:1;opacity:0.933320455688"
       transform="matrix(0.26458333,0,0,0.26458333,-151.50797,-75.361353)"
       id="XMLID_53_"
       class="st5"
       points="653.7,265.5 620.6,312.4 613.6,347.1 672.8,275.3 " />
    <polygon
       style="stroke-width:2.00000003;stroke-miterlimit:4;stroke-dasharray:none;stroke:#fced01;stroke-opacity:1;stroke-linejoin:round;fill:#fe8809;fill-opacity:1;opacity:0.929870525911"
       transform="matrix(0.26458333,0,0,0.26458333,-151.50797,-75.361353)"
       id="XMLID_54_"
       class="st1"
       points="641.7,253.5 683,236.3 640.1,244.1 " />
    <polygon
       style="stroke-width:2.00000003;stroke-miterlimit:4;stroke-dasharray:none;stroke:#f2d901;stroke-opacity:1;stroke-linejoin:round;fill:#fde200;fill-opacity:1;opacity:0.918565361531"
       transform="matrix(0.26458333,0,0,0.26458333,-151.50797,-75.361353)"
       id="XMLID_55_"
       class="st2"
       points="596.8,324.5 641.7,253.5 640.1,244.1 599.9,298.7 587.1,329.5 " />
    <polygon
       style="stroke-width:2.00000003;stroke-miterlimit:4;stroke-dasharray:none;stroke:#f99200;stroke-opacity:1;stroke-linejoin:round;fill:#f5ae02;fill-opacity:1;opacity:0.91508251182"
       transform="matrix(0.26458333,0,0,0.26458333,-151.50797,-75.361353)"
       id="XMLID_56_"
       class="st7"
       points="600.3,270.2 599.9,298.7 587.1,329.5 593.3,280.8 " />
    <polygon
       style="stroke-width:2.00000003;stroke-miterlimit:4;stroke-dasharray:none;stroke:#f56f02;stroke-opacity:1;stroke-linejoin:round;fill:#f5a700;fill-opacity:1;opacity:0.877863927644"
       transform="matrix(0.26458333,0,0,0.26458333,-151.50797,-75.361353)"
       id="XMLID_57_"
       class="st5"
       points="672.8,275.3 683,236.3 681.8,268.7 " />
    <polygon
       style="stroke-width:2.00000003;stroke-miterlimit:4;stroke-dasharray:none;stroke:#f0d101;stroke-opacity:1;stroke-linejoin:round;fill:#fc6501;fill-opacity:1;opacity:0.950939196263"
       transform="matrix(0.26458333,0,0,0.26458333,-151.50797,-75.361353)"
       id="XMLID_58_"
       class="st7"
       points="681.8,268.7 607.7,361.5 613.6,347.1 672.8,275.3 " />
    <polygon
       style="stroke-width:2.00000003;stroke-miterlimit:4;stroke-dasharray:none;stroke:#f79700;stroke-opacity:1;stroke-linejoin:round;fill:#fe8005;fill-opacity:1;opacity:0.983871845906"
       transform="matrix(0.26458333,0,0,0.26458333,-151.50797,-75.361353)"
       id="XMLID_59_"
       class="st2"
       points="591.3,342.4 560.5,377.5 561.3,359.5 587.1,329.5 " />
    <polygon
       style="stroke-width:2.00000003;stroke-miterlimit:4;stroke-dasharray:none;stroke:#fd7008;stroke-opacity:1;stroke-linejoin:round;fill:#fca601;fill-opacity:1;opacity:0.962651039577"
       transform="matrix(0.26458333,0,0,0.26458333,-151.50797,-75.361353)"
       id="XMLID_60_"
       class="st3"
       points="560.5,377 574.9,377 613.6,346.8 591.3,342 " />
    <polygon
       style="stroke-width:2.00000003;stroke-miterlimit:4;stroke-dasharray:none;stroke:#f9b600;stroke-opacity:1;stroke-linejoin:round;fill:#fd7c0a;fill-opacity:1;opacity:0.99755650831"
       transform="matrix(0.26458333,0,0,0.26458333,-151.50797,-75.361353)"
       id="XMLID_61_"
       class="st2"
       points="574.9,377.5 590.6,394.3 607.7,361.5 613.6,347.1 " />
    <polygon
       style="stroke-width:2.00000003;stroke-miterlimit:4;stroke-dasharray:none;stroke:#fa8801;stroke-opacity:1;stroke-linejoin:round;fill:#fced01;fill-opacity:1;opacity:0.923551292581"
       transform="matrix(0.26458333,0,0,0.26458333,-151.50797,-75.361353)"
       id="XMLID_62_"
       class="st4"
       points="607.7,361.5 590.6,394.3 607.3,392.3 " />
    <polygon
       style="stroke-width:2.00000003;stroke-miterlimit:4;stroke-dasharray:none;stroke:#f3e400;stroke-opacity:1;stroke-linejoin:round;fill:#febc09;fill-opacity:1;opacity:0.90212374377"
       transform="matrix(0.26458333,0,0,0.26458333,-151.50797,-75.361353)"
       id="XMLID_63_"
       class="st5"
       points="617.4,349.4 615.1,379.8 607.3,392.3 607.7,361.5 " />
    <polygon
       style="stroke-width:2.00000003;stroke-miterlimit:4;stroke-dasharray:none;stroke:#f28901;stroke-opacity:1;stroke-linejoin:round;fill:#fee905;fill-opacity:1;opacity:0.935325653578"
       transform="matrix(0.26458333,0,0,0.26458333,-151.50797,-75.361353)"
       id="XMLID_64_"
       class="st5"
       points="561.3,359.5 543.8,371.2 560.5,377.5 " />
    <polygon
       style="stroke-width:2.00000003;stroke-miterlimit:4;stroke-dasharray:none;stroke:#fda204;stroke-opacity:1;stroke-linejoin:round;fill:#fead01;fill-opacity:1;opacity:0.938533750136"
       transform="matrix(0.26458333,0,0,0.26458333,-151.50797,-75.361353)"
       id="XMLID_65_"
       class="st6"
       points="560.5,377.5 543.8,371.2 539.5,394.3 " />
    <polygon
       style="stroke-width:2.00000003;stroke-miterlimit:4;stroke-dasharray:none;stroke:#fda700;stroke-opacity:1;stroke-linejoin:round;fill:#f7d700;fill-opacity:1;opacity:0.980268525645"
       transform="matrix(0.26458333,0,0,0.26458333,-151.50797,-75.361353)"
       id="XMLID_66_"
       class="st4"
       points="539.5,394.3 543.8,371.2 520,384.9 " />
    <polygon
       style="stroke-width:2.00000003;stroke-miterlimit:4;stroke-dasharray:none;stroke:#f79d00;stroke-opacity:1;stroke-linejoin:round;fill:#f95e00;fill-opacity:1;opacity:0.987989790538"
       transform="matrix(0.26458333,0,0,0.26458333,-151.50797,-75.361353)"
       id="XMLID_67_"
       class="st3"
       points="520,384.9 543.8,371.2 525.8,360.3 " />
    <polygon
       style="stroke-width:2.00000003;stroke-miterlimit:4;stroke-dasharray:none;stroke:#f3bd00;stroke-opacity:1;stroke-linejoin:round;fill:#fcf301;fill-opacity:1;opacity:0.961765748429"
       transform="matrix(0.26458333,0,0,0.26458333,-151.50797,-75.361353)"
       id="XMLID_68_"
       class="st1"
       points="520,384.9 525.8,360.3 514.1,370.9 " />
    <polygon
       style="stroke-width:2.00000003;stroke-miterlimit:4;stroke-dasharray:none;stroke:#fced05;stroke-opacity:1;stroke-linejoin:round;fill:#fd770a;fill-opacity:1;opacity:0.944738745337"
       transform="matrix(0.26458333,0,0,0.26458333,-151.50797,-75.361353)"
       id="XMLID_69_"
       class="st7"
       points="539.5,394 564,392.7 574.9,377 560.5,377 " />
    <polygon
       style="stroke-width:2.00000003;stroke-miterlimit:4;stroke-dasharray:none;stroke:#fcc009;stroke-opacity:1;stroke-linejoin:round;fill:#fcf301;fill-opacity:1;opacity:0.895698644618"
       transform="matrix(0.26458333,0,0,0.26458333,-151.50797,-75.361353)"
       id="XMLID_70_"
       class="st6"
       points="574.9,377.5 564,393.1 571.4,397.4 " />
    <polygon
       style="stroke-width:2.00000003;stroke-miterlimit:4;stroke-dasharray:none;stroke:#f58b02;stroke-opacity:1;stroke-linejoin:round;fill:#f47f01;fill-opacity:1;opacity:0.992799807177"
       transform="matrix(0.26458333,0,0,0.26458333,-151.50797,-75.361353)"
       id="XMLID_71_"
       class="st1"
       points="571.4,397.4 576.9,414.2 590.6,394.3 574.9,377.5 " />
    <polygon
       style="stroke-width:2.00000003;stroke-miterlimit:4;stroke-dasharray:none;stroke:#f3bd02;stroke-opacity:1;stroke-linejoin:round;fill:#f07701;fill-opacity:1;opacity:0.994539794895"
       transform="matrix(0.26458333,0,0,0.26458333,-151.50797,-75.361353)"
       id="XMLID_72_"
       class="st3"
       points="590.6,394.3 576.9,414.2 591.7,418.4 " />
    <polygon
       style="stroke-width:2.00000003;stroke-miterlimit:4;stroke-dasharray:none;stroke:#fcb509;stroke-opacity:1;stroke-linejoin:round;fill:#f9c100;fill-opacity:1;opacity:0.899426988928"
       transform="matrix(0.26458333,0,0,0.26458333,-151.50797,-75.361353)"
       id="XMLID_73_"
       class="st5"
       points="591.7,418.4 611.6,414.2 607.3,392.3 590.6,394.3 " />
    <polygon
       style="stroke-width:2.00000003;stroke-miterlimit:4;stroke-dasharray:none;stroke:#f89201;stroke-opacity:1;stroke-linejoin:round;fill:#fe7201;fill-opacity:1;opacity:0.864788883333"
       transform="matrix(0.26458333,0,0,0.26458333,-151.50797,-75.361353)"
       id="XMLID_74_"
       class="st7"
       points="611.6,414.2 624.1,391.5 615.1,379.8 607.3,392.3 " />
    <polygon
       style="stroke-width:2.00000003;stroke-miterlimit:4;stroke-dasharray:none;stroke:#f4eb01;stroke-opacity:1;stroke-linejoin:round;fill:#fd7304;fill-opacity:1;opacity:0.86813237543"
       transform="matrix(0.26458333,0,0,0.26458333,-151.50797,-75.361353)"
       id="XMLID_75_"
       class="st1"
       points="551.6,311.6 542.6,307.6 542.2,267.5 " />
    <polygon
       style="stroke-width:2.00000003;stroke-miterlimit:4;stroke-dasharray:none;stroke:#f16c00;stroke-opacity:1;stroke-linejoin:round;fill:#fdd704;fill-opacity:1;opacity:0.91569789859"
       transform="matrix(0.26458333,0,0,0.26458333,-151.50797,-75.361353)"
       id="XMLID_76_"
       class="st2"
       points="542.2,267.5 551.6,311.6 558.2,304.2 " />
    <polygon
       style="stroke-width:2.00000003;stroke-miterlimit:4;stroke-dasharray:none;stroke:#f8aa01;stroke-opacity:1;stroke-linejoin:round;fill:#fd6f06;fill-opacity:1;opacity:0.937369931254"
       transform="matrix(0.26458333,0,0,0.26458333,-151.50797,-75.361353)"
       id="XMLID_77_"
       class="st4"
       points="542.2,267.5 558.2,304.2 561.6,293.7 " />
    <polygon
       style="stroke-width:2.00000003;stroke-miterlimit:4;stroke-dasharray:none;stroke:#f8b501;stroke-opacity:1;stroke-linejoin:round;fill:#f15b00;fill-opacity:1;opacity:0.860259997778"
       transform="matrix(0.26458333,0,0,0.26458333,-151.50797,-75.361353)"
       id="XMLID_78_"
       class="st2"
       points="542.6,307.6 551.6,311.6 557.4,332.6 " />
    <polygon
       style="stroke-width:2.00000003;stroke-miterlimit:4;stroke-dasharray:none;stroke:#fbdb02;stroke-opacity:1;stroke-linejoin:round;fill:#f7b400;fill-opacity:1;opacity:0.945020954847"
       transform="matrix(0.26458333,0,0,0.26458333,-151.50797,-75.361353)"
       id="XMLID_79_"
       class="st4"
       points="551.6,311.6 558.2,304.2 559.6,312.6 557.4,332.6 " />
    <polygon
       style="stroke-width:2.00000003;stroke-miterlimit:4;stroke-dasharray:none;stroke:#feb609;stroke-opacity:1;stroke-linejoin:round;fill:#fddc00;fill-opacity:1;opacity:0.939902971366"
       transform="matrix(0.26458333,0,0,0.26458333,-151.50797,-75.361353)"
       id="XMLID_80_"
       class="st7"
       points="561.6,293.7 559.6,312.6 558.2,304.2 " />
  </g>
</svg>
