<?xml version="1.0" encoding="UTF-8" standalone="no"?>
<!-- Created with Inkscape (http://www.inkscape.org/) -->

<svg
   xmlns:dc="http://purl.org/dc/elements/1.1/"
   xmlns:cc="http://creativecommons.org/ns#"
   xmlns:rdf="http://www.w3.org/1999/02/22-rdf-syntax-ns#"
   xmlns:svg="http://www.w3.org/2000/svg"
   xmlns="http://www.w3.org/2000/svg"
   xmlns:sodipodi="http://sodipodi.sourceforge.net/DTD/sodipodi-0.dtd"
   xmlns:inkscape="http://www.inkscape.org/namespaces/inkscape"
   sodipodi:docname="black3.svg"
   inkscape:version=""
   id="svg18634"
   version="1.1"
   viewBox="0 0 53.869167 48.180626"
   height="48.180626mm"
   width="53.869167mm">
  <sodipodi:namedview
     fit-margin-bottom="0"
     fit-margin-right="0"
     fit-margin-left="0"
     fit-margin-top="0"
     showgrid="false"
     inkscape:current-layer="layer1"
     inkscape:document-units="mm"
     inkscape:cy="91.050002"
     inkscape:cx="101.8"
     inkscape:zoom="4.5853926"
     inkscape:pageshadow="2"
     inkscape:pageopacity="0.0"
     borderopacity="1.0"
     bordercolor="#666666"
     pagecolor="#ffffff"
     id="base" />
  <defs
     id="defs18628" />
  <metadata
     id="metadata18631">
    <rdf:RDF>
      <cc:Work
         rdf:about="">
        <dc:format>image/svg+xml</dc:format>
        <dc:type
           rdf:resource="http://purl.org/dc/dcmitype/StillImage" />
        <dc:title></dc:title>
      </cc:Work>
    </rdf:RDF>
  </metadata>
  <g
     inkscape:label="Layer 1"
     inkscape:groupmode="layer"
     id="layer1"
     transform="translate(24.666722,12.840312)">
    <polygon
       points="502.4,315.9 479.4,264.4 483.3,306.9 "
       class="st1"
       id="XMLID_37_"
       transform="matrix(0.26458333,0,0,0.26458333,-151.50797,-75.361353)"
       style="stroke-width:2.00000003;stroke-miterlimit:4;stroke-dasharray:none;stroke:#141414;stroke-opacity:1;stroke-linejoin:round;fill:#060505;fill-opacity:1;opacity:0.945257036377" />
    <polygon
       points="502.4,315.9 479.4,264.4 518.4,287 "
       class="st2"
       id="XMLID_38_"
       transform="matrix(0.26458333,0,0,0.26458333,-151.50797,-75.361353)"
       style="stroke-width:2.00000003;stroke-miterlimit:4;stroke-dasharray:none;stroke:#131313;stroke-opacity:1;stroke-linejoin:round;fill:#161515;fill-opacity:1;opacity:0.852416811422" />
    <polygon
       points="518.4,287.6 479.4,265 517.2,265 "
       class="st4"
       id="XMLID_39_"
       transform="matrix(0.26458333,0,0,0.26458333,-151.50797,-75.361353)"
       style="stroke-width:2.00000003;stroke-miterlimit:4;stroke-dasharray:none;stroke:#101010;stroke-opacity:1;stroke-linejoin:round;fill:#070606;fill-opacity:1;opacity:0.905162732074" />
    <polygon
       points="483.3,306.9 525.8,360.3 543.8,371.2 502.4,315.9 "
       class="st2"
       id="XMLID_40_"
       transform="matrix(0.26458333,0,0,0.26458333,-151.50797,-75.361353)"
       style="stroke-width:2.00000003;stroke-miterlimit:4;stroke-dasharray:none;stroke:#171717;stroke-opacity:1;stroke-linejoin:round;fill:#121111;fill-opacity:1;opacity:0.846811112614" />
    <polygon
       points="502.4,315.9 518.4,287 561.3,359.5 543.8,371.2 "
       class="st4"
       id="XMLID_41_"
       transform="matrix(0.26458333,0,0,0.26458333,-151.50797,-75.361353)"
       style="stroke-width:2.00000003;stroke-miterlimit:4;stroke-dasharray:none;stroke:#131313;stroke-opacity:1;stroke-linejoin:round;fill:#0d0c0c;fill-opacity:1;opacity:0.848747701458" />
    <polygon
       points="518.4,287 517.2,264.4 557.4,332.6 561.3,359.5 "
       class="st5"
       id="XMLID_42_"
       transform="matrix(0.26458333,0,0,0.26458333,-151.50797,-75.361353)"
       style="stroke-width:2.00000003;stroke-miterlimit:4;stroke-dasharray:none;stroke:#0d0c0c;stroke-opacity:1;stroke-linejoin:round;fill:#161515;fill-opacity:1;opacity:0.994294363569" />
    <polygon
       points="561.3,359.5 574.6,280.8 564.8,264 557.4,332.6 "
       class="st2"
       id="XMLID_43_"
       transform="matrix(0.26458333,0,0,0.26458333,-151.50797,-75.361353)"
       style="stroke-width:2.00000003;stroke-miterlimit:4;stroke-dasharray:none;stroke:#141313;stroke-opacity:1;stroke-linejoin:round;fill:#070606;fill-opacity:1;opacity:0.91670322738" />
    <polygon
       points="574.6,280.8 564.8,264 587.4,238.6 "
       class="st1"
       id="XMLID_44_"
       transform="matrix(0.26458333,0,0,0.26458333,-151.50797,-75.361353)"
       style="stroke-width:2.00000003;stroke-miterlimit:4;stroke-dasharray:none;stroke:#171717;stroke-opacity:1;stroke-linejoin:round;fill:#0b0b0b;fill-opacity:1;opacity:0.897074956399" />
    <polygon
       points="574.6,281 587.4,238.8 593.3,281 "
       class="st2"
       id="XMLID_45_"
       transform="matrix(0.26458333,0,0,0.26458333,-151.50797,-75.361353)"
       style="stroke-width:2.00000003;stroke-miterlimit:4;stroke-dasharray:none;stroke:#080707;stroke-opacity:1;stroke-linejoin:round;fill:#161515;fill-opacity:1;opacity:0.888307969261" />
    <polygon
       points="574.6,281 561.3,359.7 587.1,329.7 593.3,281 "
       class="st4"
       id="XMLID_46_"
       transform="matrix(0.26458333,0,0,0.26458333,-151.50797,-75.361353)"
       style="stroke-width:2.00000003;stroke-miterlimit:4;stroke-dasharray:none;stroke:#131212;stroke-opacity:1;stroke-linejoin:round;fill:#141313;fill-opacity:1;opacity:0.877813995717" />
    <polygon
       points="591.3,342.4 587.1,329.5 620.6,312.4 "
       class="st1"
       id="XMLID_47_"
       transform="matrix(0.26458333,0,0,0.26458333,-151.50797,-75.361353)"
       style="stroke-width:2.00000003;stroke-miterlimit:4;stroke-dasharray:none;stroke:#000000;stroke-opacity:1;stroke-linejoin:round;fill:#151414;fill-opacity:1;opacity:0.878822954267" />
    <polygon
       points="620.6,312.4 591.3,342.4 613.6,347.1 "
       class="st2"
       id="XMLID_48_"
       transform="matrix(0.26458333,0,0,0.26458333,-151.50797,-75.361353)"
       style="stroke-width:2.00000003;stroke-miterlimit:4;stroke-dasharray:none;stroke:#161515;stroke-opacity:1;stroke-linejoin:round;fill:#070606;fill-opacity:1;opacity:0.995668518075" />
    <polygon
       points="593.3,280.8 587.4,238.6 600.3,270.2 "
       class="st4"
       id="XMLID_49_"
       transform="matrix(0.26458333,0,0,0.26458333,-151.50797,-75.361353)"
       style="stroke-width:2.00000003;stroke-miterlimit:4;stroke-dasharray:none;stroke:#0c0b0b;stroke-opacity:1;stroke-linejoin:round;fill:#010000;fill-opacity:1;opacity:0.817855288984" />
    <polygon
       points="596.8,324.5 641.7,253.5 653.7,265.5 620.6,312.4 "
       class="st4"
       id="XMLID_50_"
       transform="matrix(0.26458333,0,0,0.26458333,-151.50797,-75.361353)"
       style="stroke-width:2.00000003;stroke-miterlimit:4;stroke-dasharray:none;stroke:#080707;stroke-opacity:1;stroke-linejoin:round;fill:#111010;fill-opacity:1;opacity:0.994222333299" />
    <polygon
       points="653.7,265.5 641.7,253.5 683,236.3 "
       class="st2"
       id="XMLID_51_"
       transform="matrix(0.26458333,0,0,0.26458333,-151.50797,-75.361353)"
       style="stroke-width:2.00000003;stroke-miterlimit:4;stroke-dasharray:none;stroke:#0d0c0c;stroke-opacity:1;stroke-linejoin:round;fill:#0d0d0d;fill-opacity:1;opacity:0.841459493612" />
    <polygon
       points="653.7,265.5 683,236.3 672.8,275.3 "
       class="st4"
       id="XMLID_52_"
       transform="matrix(0.26458333,0,0,0.26458333,-151.50797,-75.361353)"
       style="stroke-width:2.00000003;stroke-miterlimit:4;stroke-dasharray:none;stroke:#141313;stroke-opacity:1;stroke-linejoin:round;fill:#121111;fill-opacity:1;opacity:0.894054699445" />
    <polygon
       points="653.7,265.5 620.6,312.4 613.6,347.1 672.8,275.3 "
       class="st5"
       id="XMLID_53_"
       transform="matrix(0.26458333,0,0,0.26458333,-151.50797,-75.361353)"
       style="stroke-width:2.00000003;stroke-miterlimit:4;stroke-dasharray:none;stroke:#0b0a0a;stroke-opacity:1;stroke-linejoin:round;fill:#0a0909;fill-opacity:1;opacity:0.80126751823" />
    <polygon
       points="641.7,253.5 683,236.3 640.1,244.1 "
       class="st1"
       id="XMLID_54_"
       transform="matrix(0.26458333,0,0,0.26458333,-151.50797,-75.361353)"
       style="stroke-width:2.00000003;stroke-miterlimit:4;stroke-dasharray:none;stroke:#121111;stroke-opacity:1;stroke-linejoin:round;fill:#050505;fill-opacity:1;opacity:0.878584755861" />
    <polygon
       points="596.8,324.5 641.7,253.5 640.1,244.1 599.9,298.7 587.1,329.5 "
       class="st2"
       id="XMLID_55_"
       transform="matrix(0.26458333,0,0,0.26458333,-151.50797,-75.361353)"
       style="stroke-width:2.00000003;stroke-miterlimit:4;stroke-dasharray:none;stroke:#171616;stroke-opacity:1;stroke-linejoin:round;fill:#111010;fill-opacity:1;opacity:0.807534607005" />
    <polygon
       points="600.3,270.2 599.9,298.7 587.1,329.5 593.3,280.8 "
       class="st7"
       id="XMLID_56_"
       transform="matrix(0.26458333,0,0,0.26458333,-151.50797,-75.361353)"
       style="stroke-width:2.00000003;stroke-miterlimit:4;stroke-dasharray:none;stroke:#161515;stroke-opacity:1;stroke-linejoin:round;fill:#161515;fill-opacity:1;opacity:0.962114466033" />
    <polygon
       points="672.8,275.3 683,236.3 681.8,268.7 "
       class="st5"
       id="XMLID_57_"
       transform="matrix(0.26458333,0,0,0.26458333,-151.50797,-75.361353)"
       style="stroke-width:2.00000003;stroke-miterlimit:4;stroke-dasharray:none;stroke:#161616;stroke-opacity:1;stroke-linejoin:round;fill:#020202;fill-opacity:1;opacity:0.927950873539" />
    <polygon
       points="681.8,268.7 607.7,361.5 613.6,347.1 672.8,275.3 "
       class="st7"
       id="XMLID_58_"
       transform="matrix(0.26458333,0,0,0.26458333,-151.50797,-75.361353)"
       style="stroke-width:2.00000003;stroke-miterlimit:4;stroke-dasharray:none;stroke:#121111;stroke-opacity:1;stroke-linejoin:round;fill:#080707;fill-opacity:1;opacity:0.922291666896" />
    <polygon
       points="591.3,342.4 560.5,377.5 561.3,359.5 587.1,329.5 "
       class="st2"
       id="XMLID_59_"
       transform="matrix(0.26458333,0,0,0.26458333,-151.50797,-75.361353)"
       style="stroke-width:2.00000003;stroke-miterlimit:4;stroke-dasharray:none;stroke:#0f0e0e;stroke-opacity:1;stroke-linejoin:round;fill:#121111;fill-opacity:1;opacity:0.839791497845" />
    <polygon
       points="560.5,377 574.9,377 613.6,346.8 591.3,342 "
       class="st3"
       id="XMLID_60_"
       transform="matrix(0.26458333,0,0,0.26458333,-151.50797,-75.361353)"
       style="stroke-width:2.00000003;stroke-miterlimit:4;stroke-dasharray:none;stroke:#000000;stroke-opacity:1;stroke-linejoin:round;fill:#030202;fill-opacity:1;opacity:0.837654050366" />
    <polygon
       points="574.9,377.5 590.6,394.3 607.7,361.5 613.6,347.1 "
       class="st2"
       id="XMLID_61_"
       transform="matrix(0.26458333,0,0,0.26458333,-151.50797,-75.361353)"
       style="stroke-width:2.00000003;stroke-miterlimit:4;stroke-dasharray:none;stroke:#101010;stroke-opacity:1;stroke-linejoin:round;fill:#131313;fill-opacity:1;opacity:0.936412813134" />
    <polygon
       points="607.7,361.5 590.6,394.3 607.3,392.3 "
       class="st4"
       id="XMLID_62_"
       transform="matrix(0.26458333,0,0,0.26458333,-151.50797,-75.361353)"
       style="stroke-width:2.00000003;stroke-miterlimit:4;stroke-dasharray:none;stroke:#040404;stroke-opacity:1;stroke-linejoin:round;fill:#0e0e0e;fill-opacity:1;opacity:0.889845121325" />
    <polygon
       points="617.4,349.4 615.1,379.8 607.3,392.3 607.7,361.5 "
       class="st5"
       id="XMLID_63_"
       transform="matrix(0.26458333,0,0,0.26458333,-151.50797,-75.361353)"
       style="stroke-width:2.00000003;stroke-miterlimit:4;stroke-dasharray:none;stroke:#141313;stroke-opacity:1;stroke-linejoin:round;fill:#000000;fill-opacity:1;opacity:0.808210759753" />
    <polygon
       points="561.3,359.5 543.8,371.2 560.5,377.5 "
       class="st5"
       id="XMLID_64_"
       transform="matrix(0.26458333,0,0,0.26458333,-151.50797,-75.361353)"
       style="stroke-width:2.00000003;stroke-miterlimit:4;stroke-dasharray:none;stroke:#0f0e0e;stroke-opacity:1;stroke-linejoin:round;fill:#0e0d0d;fill-opacity:1;opacity:0.973121038291" />
    <polygon
       points="560.5,377.5 543.8,371.2 539.5,394.3 "
       class="st6"
       id="XMLID_65_"
       transform="matrix(0.26458333,0,0,0.26458333,-151.50797,-75.361353)"
       style="stroke-width:2.00000003;stroke-miterlimit:4;stroke-dasharray:none;stroke:#121212;stroke-opacity:1;stroke-linejoin:round;fill:#0f0e0e;fill-opacity:1;opacity:0.945036352608" />
    <polygon
       points="539.5,394.3 543.8,371.2 520,384.9 "
       class="st4"
       id="XMLID_66_"
       transform="matrix(0.26458333,0,0,0.26458333,-151.50797,-75.361353)"
       style="stroke-width:2.00000003;stroke-miterlimit:4;stroke-dasharray:none;stroke:#0a0a0a;stroke-opacity:1;stroke-linejoin:round;fill:#0b0a0a;fill-opacity:1;opacity:0.953975583034" />
    <polygon
       points="520,384.9 543.8,371.2 525.8,360.3 "
       class="st3"
       id="XMLID_67_"
       transform="matrix(0.26458333,0,0,0.26458333,-151.50797,-75.361353)"
       style="stroke-width:2.00000003;stroke-miterlimit:4;stroke-dasharray:none;stroke:#0e0e0e;stroke-opacity:1;stroke-linejoin:round;fill:#141313;fill-opacity:1;opacity:0.992126010186" />
    <polygon
       points="520,384.9 525.8,360.3 514.1,370.9 "
       class="st1"
       id="XMLID_68_"
       transform="matrix(0.26458333,0,0,0.26458333,-151.50797,-75.361353)"
       style="stroke-width:2.00000003;stroke-miterlimit:4;stroke-dasharray:none;stroke:#0b0a0a;stroke-opacity:1;stroke-linejoin:round;fill:#070606;fill-opacity:1;opacity:0.823538650502" />
    <polygon
       points="539.5,394 564,392.7 574.9,377 560.5,377 "
       class="st7"
       id="XMLID_69_"
       transform="matrix(0.26458333,0,0,0.26458333,-151.50797,-75.361353)"
       style="stroke-width:2.00000003;stroke-miterlimit:4;stroke-dasharray:none;stroke:#020202;stroke-opacity:1;stroke-linejoin:round;fill:#131212;fill-opacity:1;opacity:0.999528681395" />
    <polygon
       points="574.9,377.5 564,393.1 571.4,397.4 "
       class="st6"
       id="XMLID_70_"
       transform="matrix(0.26458333,0,0,0.26458333,-151.50797,-75.361353)"
       style="stroke-width:2.00000003;stroke-miterlimit:4;stroke-dasharray:none;stroke:#131212;stroke-opacity:1;stroke-linejoin:round;fill:#000000;fill-opacity:1;opacity:0.884808358953" />
    <polygon
       points="571.4,397.4 576.9,414.2 590.6,394.3 574.9,377.5 "
       class="st1"
       id="XMLID_71_"
       transform="matrix(0.26458333,0,0,0.26458333,-151.50797,-75.361353)"
       style="stroke-width:2.00000003;stroke-miterlimit:4;stroke-dasharray:none;stroke:#171616;stroke-opacity:1;stroke-linejoin:round;fill:#0b0a0a;fill-opacity:1;opacity:0.965390640101" />
    <polygon
       points="590.6,394.3 576.9,414.2 591.7,418.4 "
       class="st3"
       id="XMLID_72_"
       transform="matrix(0.26458333,0,0,0.26458333,-151.50797,-75.361353)"
       style="stroke-width:2.00000003;stroke-miterlimit:4;stroke-dasharray:none;stroke:#141414;stroke-opacity:1;stroke-linejoin:round;fill:#111010;fill-opacity:1;opacity:0.949625025242" />
    <polygon
       points="591.7,418.4 611.6,414.2 607.3,392.3 590.6,394.3 "
       class="st5"
       id="XMLID_73_"
       transform="matrix(0.26458333,0,0,0.26458333,-151.50797,-75.361353)"
       style="stroke-width:2.00000003;stroke-miterlimit:4;stroke-dasharray:none;stroke:#060505;stroke-opacity:1;stroke-linejoin:round;fill:#040303;fill-opacity:1;opacity:0.930818341162" />
    <polygon
       points="611.6,414.2 624.1,391.5 615.1,379.8 607.3,392.3 "
       class="st7"
       id="XMLID_74_"
       transform="matrix(0.26458333,0,0,0.26458333,-151.50797,-75.361353)"
       style="stroke-width:2.00000003;stroke-miterlimit:4;stroke-dasharray:none;stroke:#050505;stroke-opacity:1;stroke-linejoin:round;fill:#0d0d0d;fill-opacity:1;opacity:0.802308699506" />
    <polygon
       points="551.6,311.6 542.6,307.6 542.2,267.5 "
       class="st1"
       id="XMLID_75_"
       transform="matrix(0.26458333,0,0,0.26458333,-151.50797,-75.361353)"
       style="stroke-width:2.00000003;stroke-miterlimit:4;stroke-dasharray:none;stroke:#121212;stroke-opacity:1;stroke-linejoin:round;fill:#121111;fill-opacity:1;opacity:0.9648290132" />
    <polygon
       points="542.2,267.5 551.6,311.6 558.2,304.2 "
       class="st2"
       id="XMLID_76_"
       transform="matrix(0.26458333,0,0,0.26458333,-151.50797,-75.361353)"
       style="stroke-width:2.00000003;stroke-miterlimit:4;stroke-dasharray:none;stroke:#010000;stroke-opacity:1;stroke-linejoin:round;fill:#010000;fill-opacity:1;opacity:0.834629254681" />
    <polygon
       points="542.2,267.5 558.2,304.2 561.6,293.7 "
       class="st4"
       id="XMLID_77_"
       transform="matrix(0.26458333,0,0,0.26458333,-151.50797,-75.361353)"
       style="stroke-width:2.00000003;stroke-miterlimit:4;stroke-dasharray:none;stroke:#151414;stroke-opacity:1;stroke-linejoin:round;fill:#090808;fill-opacity:1;opacity:0.969875308824" />
    <polygon
       points="542.6,307.6 551.6,311.6 557.4,332.6 "
       class="st2"
       id="XMLID_78_"
       transform="matrix(0.26458333,0,0,0.26458333,-151.50797,-75.361353)"
       style="stroke-width:2.00000003;stroke-miterlimit:4;stroke-dasharray:none;stroke:#090808;stroke-opacity:1;stroke-linejoin:round;fill:#0e0d0d;fill-opacity:1;opacity:0.979111857546" />
    <polygon
       points="551.6,311.6 558.2,304.2 559.6,312.6 557.4,332.6 "
       class="st4"
       id="XMLID_79_"
       transform="matrix(0.26458333,0,0,0.26458333,-151.50797,-75.361353)"
       style="stroke-width:2.00000003;stroke-miterlimit:4;stroke-dasharray:none;stroke:#040303;stroke-opacity:1;stroke-linejoin:round;fill:#121111;fill-opacity:1;opacity:0.972936692565" />
    <polygon
       points="561.6,293.7 559.6,312.6 558.2,304.2 "
       class="st7"
       id="XMLID_80_"
       transform="matrix(0.26458333,0,0,0.26458333,-151.50797,-75.361353)"
       style="stroke-width:2.00000003;stroke-miterlimit:4;stroke-dasharray:none;stroke:#040303;stroke-opacity:1;stroke-linejoin:round;fill:#121111;fill-opacity:1;opacity:0.8252876991" />
  </g>
</svg>
