<?xml version="1.0" encoding="UTF-8" standalone="no"?>
<!-- Created with Inkscape (http://www.inkscape.org/) -->

<svg
   xmlns:dc="http://purl.org/dc/elements/1.1/"
   xmlns:cc="http://creativecommons.org/ns#"
   xmlns:rdf="http://www.w3.org/1999/02/22-rdf-syntax-ns#"
   xmlns:svg="http://www.w3.org/2000/svg"
   xmlns="http://www.w3.org/2000/svg"
   xmlns:sodipodi="http://sodipodi.sourceforge.net/DTD/sodipodi-0.dtd"
   xmlns:inkscape="http://www.inkscape.org/namespaces/inkscape"
   sodipodi:docname="green3.svg"
   inkscape:version=""
   id="svg18634"
   version="1.1"
   viewBox="0 0 53.869167 48.180626"
   height="48.180626mm"
   width="53.869167mm">
  <sodipodi:namedview
     fit-margin-bottom="0"
     fit-margin-right="0"
     fit-margin-left="0"
     fit-margin-top="0"
     showgrid="false"
     inkscape:current-layer="layer1"
     inkscape:document-units="mm"
     inkscape:cy="91.050002"
     inkscape:cx="101.8"
     inkscape:zoom="4.5853926"
     inkscape:pageshadow="2"
     inkscape:pageopacity="0.0"
     borderopacity="1.0"
     bordercolor="#666666"
     pagecolor="#ffffff"
     id="base" />
  <defs
     id="defs18628" />
  <metadata
     id="metadata18631">
    <rdf:RDF>
      <cc:Work
         rdf:about="">
        <dc:format>image/svg+xml</dc:format>
        <dc:type
           rdf:resource="http://purl.org/dc/dcmitype/StillImage" />
        <dc:title></dc:title>
      </cc:Work>
    </rdf:RDF>
  </metadata>
  <g
     inkscape:label="Layer 1"
     inkscape:groupmode="layer"
     id="layer1"
     transform="translate(24.666722,12.840312)">
    <polygon
       points="502.4,315.9 479.4,264.4 483.3,306.9 "
       class="st1"
       id="XMLID_37_"
       transform="matrix(0.26458333,0,0,0.26458333,-151.50797,-75.361353)"
       style="stroke-width:2.00000003;stroke-miterlimit:4;stroke-dasharray:none;stroke:#02fd37;stroke-opacity:1;stroke-linejoin:round;fill:#09fe20;fill-opacity:1;opacity:0.930338514247" />
    <polygon
       points="502.4,315.9 479.4,264.4 518.4,287 "
       class="st2"
       id="XMLID_38_"
       transform="matrix(0.26458333,0,0,0.26458333,-151.50797,-75.361353)"
       style="stroke-width:2.00000003;stroke-miterlimit:4;stroke-dasharray:none;stroke:#09fc26;stroke-opacity:1;stroke-linejoin:round;fill:#01f635;fill-opacity:1;opacity:0.960871021847" />
    <polygon
       points="518.4,287.6 479.4,265 517.2,265 "
       class="st4"
       id="XMLID_39_"
       transform="matrix(0.26458333,0,0,0.26458333,-151.50797,-75.361353)"
       style="stroke-width:2.00000003;stroke-miterlimit:4;stroke-dasharray:none;stroke:#05fe23;stroke-opacity:1;stroke-linejoin:round;fill:#10fd0a;fill-opacity:1;opacity:0.980079637693" />
    <polygon
       points="483.3,306.9 525.8,360.3 543.8,371.2 502.4,315.9 "
       class="st2"
       id="XMLID_40_"
       transform="matrix(0.26458333,0,0,0.26458333,-151.50797,-75.361353)"
       style="stroke-width:2.00000003;stroke-miterlimit:4;stroke-dasharray:none;stroke:#36f902;stroke-opacity:1;stroke-linejoin:round;fill:#09fe09;fill-opacity:1;opacity:0.909587181675" />
    <polygon
       points="502.4,315.9 518.4,287 561.3,359.5 543.8,371.2 "
       class="st4"
       id="XMLID_41_"
       transform="matrix(0.26458333,0,0,0.26458333,-151.50797,-75.361353)"
       style="stroke-width:2.00000003;stroke-miterlimit:4;stroke-dasharray:none;stroke:#02ef13;stroke-opacity:1;stroke-linejoin:round;fill:#12f601;fill-opacity:1;opacity:0.934244557465" />
    <polygon
       points="518.4,287 517.2,264.4 557.4,332.6 561.3,359.5 "
       class="st5"
       id="XMLID_42_"
       transform="matrix(0.26458333,0,0,0.26458333,-151.50797,-75.361353)"
       style="stroke-width:2.00000003;stroke-miterlimit:4;stroke-dasharray:none;stroke:#3dfd02;stroke-opacity:1;stroke-linejoin:round;fill:#02fd31;fill-opacity:1;opacity:0.880074939355" />
    <polygon
       points="561.3,359.5 574.6,280.8 564.8,264 557.4,332.6 "
       class="st2"
       id="XMLID_43_"
       transform="matrix(0.26458333,0,0,0.26458333,-151.50797,-75.361353)"
       style="stroke-width:2.00000003;stroke-miterlimit:4;stroke-dasharray:none;stroke:#01fc3c;stroke-opacity:1;stroke-linejoin:round;fill:#09fc03;fill-opacity:1;opacity:0.98129148057" />
    <polygon
       points="574.6,280.8 564.8,264 587.4,238.6 "
       class="st1"
       id="XMLID_44_"
       transform="matrix(0.26458333,0,0,0.26458333,-151.50797,-75.361353)"
       style="stroke-width:2.00000003;stroke-miterlimit:4;stroke-dasharray:none;stroke:#00fd36;stroke-opacity:1;stroke-linejoin:round;fill:#19f302;fill-opacity:1;opacity:0.979113944282" />
    <polygon
       points="574.6,281 587.4,238.8 593.3,281 "
       class="st2"
       id="XMLID_45_"
       transform="matrix(0.26458333,0,0,0.26458333,-151.50797,-75.361353)"
       style="stroke-width:2.00000003;stroke-miterlimit:4;stroke-dasharray:none;stroke:#0bf300;stroke-opacity:1;stroke-linejoin:round;fill:#05fc16;fill-opacity:1;opacity:0.949646382228" />
    <polygon
       points="574.6,281 561.3,359.7 587.1,329.7 593.3,281 "
       class="st4"
       id="XMLID_46_"
       transform="matrix(0.26458333,0,0,0.26458333,-151.50797,-75.361353)"
       style="stroke-width:2.00000003;stroke-miterlimit:4;stroke-dasharray:none;stroke:#06f100;stroke-opacity:1;stroke-linejoin:round;fill:#4ffc03;fill-opacity:1;opacity:0.9569570517" />
    <polygon
       points="591.3,342.4 587.1,329.5 620.6,312.4 "
       class="st1"
       id="XMLID_47_"
       transform="matrix(0.26458333,0,0,0.26458333,-151.50797,-75.361353)"
       style="stroke-width:2.00000003;stroke-miterlimit:4;stroke-dasharray:none;stroke:#05fc2e;stroke-opacity:1;stroke-linejoin:round;fill:#01f01d;fill-opacity:1;opacity:0.976417196581" />
    <polygon
       points="620.6,312.4 591.3,342.4 613.6,347.1 "
       class="st2"
       id="XMLID_48_"
       transform="matrix(0.26458333,0,0,0.26458333,-151.50797,-75.361353)"
       style="stroke-width:2.00000003;stroke-miterlimit:4;stroke-dasharray:none;stroke:#00fb00;stroke-opacity:1;stroke-linejoin:round;fill:#3bfd06;fill-opacity:1;opacity:0.943496943364" />
    <polygon
       points="593.3,280.8 587.4,238.6 600.3,270.2 "
       class="st4"
       id="XMLID_49_"
       transform="matrix(0.26458333,0,0,0.26458333,-151.50797,-75.361353)"
       style="stroke-width:2.00000003;stroke-miterlimit:4;stroke-dasharray:none;stroke:#02fd02;stroke-opacity:1;stroke-linejoin:round;fill:#4aef02;fill-opacity:1;opacity:0.924892174845" />
    <polygon
       points="596.8,324.5 641.7,253.5 653.7,265.5 620.6,312.4 "
       class="st4"
       id="XMLID_50_"
       transform="matrix(0.26458333,0,0,0.26458333,-151.50797,-75.361353)"
       style="stroke-width:2.00000003;stroke-miterlimit:4;stroke-dasharray:none;stroke:#18fe07;stroke-opacity:1;stroke-linejoin:round;fill:#00f306;fill-opacity:1;opacity:0.962381254807" />
    <polygon
       points="653.7,265.5 641.7,253.5 683,236.3 "
       class="st2"
       id="XMLID_51_"
       transform="matrix(0.26458333,0,0,0.26458333,-151.50797,-75.361353)"
       style="stroke-width:2.00000003;stroke-miterlimit:4;stroke-dasharray:none;stroke:#00fb30;stroke-opacity:1;stroke-linejoin:round;fill:#01fa2a;fill-opacity:1;opacity:0.889293474801" />
    <polygon
       points="653.7,265.5 683,236.3 672.8,275.3 "
       class="st4"
       id="XMLID_52_"
       transform="matrix(0.26458333,0,0,0.26458333,-151.50797,-75.361353)"
       style="stroke-width:2.00000003;stroke-miterlimit:4;stroke-dasharray:none;stroke:#24f601;stroke-opacity:1;stroke-linejoin:round;fill:#24fc07;fill-opacity:1;opacity:0.988643019252" />
    <polygon
       points="653.7,265.5 620.6,312.4 613.6,347.1 672.8,275.3 "
       class="st5"
       id="XMLID_53_"
       transform="matrix(0.26458333,0,0,0.26458333,-151.50797,-75.361353)"
       style="stroke-width:2.00000003;stroke-miterlimit:4;stroke-dasharray:none;stroke:#0ffe09;stroke-opacity:1;stroke-linejoin:round;fill:#13fa01;fill-opacity:1;opacity:0.874437600214" />
    <polygon
       points="641.7,253.5 683,236.3 640.1,244.1 "
       class="st1"
       id="XMLID_54_"
       transform="matrix(0.26458333,0,0,0.26458333,-151.50797,-75.361353)"
       style="stroke-width:2.00000003;stroke-miterlimit:4;stroke-dasharray:none;stroke:#4ffe01;stroke-opacity:1;stroke-linejoin:round;fill:#40f201;fill-opacity:1;opacity:0.91514815884" />
    <polygon
       points="596.8,324.5 641.7,253.5 640.1,244.1 599.9,298.7 587.1,329.5 "
       class="st2"
       id="XMLID_55_"
       transform="matrix(0.26458333,0,0,0.26458333,-151.50797,-75.361353)"
       style="stroke-width:2.00000003;stroke-miterlimit:4;stroke-dasharray:none;stroke:#4df801;stroke-opacity:1;stroke-linejoin:round;fill:#0dfe07;fill-opacity:1;opacity:0.928887519578" />
    <polygon
       points="600.3,270.2 599.9,298.7 587.1,329.5 593.3,280.8 "
       class="st7"
       id="XMLID_56_"
       transform="matrix(0.26458333,0,0,0.26458333,-151.50797,-75.361353)"
       style="stroke-width:2.00000003;stroke-miterlimit:4;stroke-dasharray:none;stroke:#4af100;stroke-opacity:1;stroke-linejoin:round;fill:#11f100;fill-opacity:1;opacity:0.932737699604" />
    <polygon
       points="672.8,275.3 683,236.3 681.8,268.7 "
       class="st5"
       id="XMLID_57_"
       transform="matrix(0.26458333,0,0,0.26458333,-151.50797,-75.361353)"
       style="stroke-width:2.00000003;stroke-miterlimit:4;stroke-dasharray:none;stroke:#01f824;stroke-opacity:1;stroke-linejoin:round;fill:#05fe34;fill-opacity:1;opacity:0.914475069787" />
    <polygon
       points="681.8,268.7 607.7,361.5 613.6,347.1 672.8,275.3 "
       class="st7"
       id="XMLID_58_"
       transform="matrix(0.26458333,0,0,0.26458333,-151.50797,-75.361353)"
       style="stroke-width:2.00000003;stroke-miterlimit:4;stroke-dasharray:none;stroke:#02f12f;stroke-opacity:1;stroke-linejoin:round;fill:#24f502;fill-opacity:1;opacity:0.981293207036" />
    <polygon
       points="591.3,342.4 560.5,377.5 561.3,359.5 587.1,329.5 "
       class="st2"
       id="XMLID_59_"
       transform="matrix(0.26458333,0,0,0.26458333,-151.50797,-75.361353)"
       style="stroke-width:2.00000003;stroke-miterlimit:4;stroke-dasharray:none;stroke:#12f500;stroke-opacity:1;stroke-linejoin:round;fill:#1ff902;fill-opacity:1;opacity:0.971157889701" />
    <polygon
       points="560.5,377 574.9,377 613.6,346.8 591.3,342 "
       class="st3"
       id="XMLID_60_"
       transform="matrix(0.26458333,0,0,0.26458333,-151.50797,-75.361353)"
       style="stroke-width:2.00000003;stroke-miterlimit:4;stroke-dasharray:none;stroke:#39fd04;stroke-opacity:1;stroke-linejoin:round;fill:#4bf401;fill-opacity:1;opacity:0.944170564117" />
    <polygon
       points="574.9,377.5 590.6,394.3 607.7,361.5 613.6,347.1 "
       class="st2"
       id="XMLID_61_"
       transform="matrix(0.26458333,0,0,0.26458333,-151.50797,-75.361353)"
       style="stroke-width:2.00000003;stroke-miterlimit:4;stroke-dasharray:none;stroke:#01f034;stroke-opacity:1;stroke-linejoin:round;fill:#24f801;fill-opacity:1;opacity:0.87861376964" />
    <polygon
       points="607.7,361.5 590.6,394.3 607.3,392.3 "
       class="st4"
       id="XMLID_62_"
       transform="matrix(0.26458333,0,0,0.26458333,-151.50797,-75.361353)"
       style="stroke-width:2.00000003;stroke-miterlimit:4;stroke-dasharray:none;stroke:#01f440;stroke-opacity:1;stroke-linejoin:round;fill:#30f702;fill-opacity:1;opacity:0.986639420698" />
    <polygon
       points="617.4,349.4 615.1,379.8 607.3,392.3 607.7,361.5 "
       class="st5"
       id="XMLID_63_"
       transform="matrix(0.26458333,0,0,0.26458333,-151.50797,-75.361353)"
       style="stroke-width:2.00000003;stroke-miterlimit:4;stroke-dasharray:none;stroke:#06fd0c;stroke-opacity:1;stroke-linejoin:round;fill:#01fc0d;fill-opacity:1;opacity:0.906354838696" />
    <polygon
       points="561.3,359.5 543.8,371.2 560.5,377.5 "
       class="st5"
       id="XMLID_64_"
       transform="matrix(0.26458333,0,0,0.26458333,-151.50797,-75.361353)"
       style="stroke-width:2.00000003;stroke-miterlimit:4;stroke-dasharray:none;stroke:#05fc11;stroke-opacity:1;stroke-linejoin:round;fill:#06f100;fill-opacity:1;opacity:0.912435488673" />
    <polygon
       points="560.5,377.5 543.8,371.2 539.5,394.3 "
       class="st6"
       id="XMLID_65_"
       transform="matrix(0.26458333,0,0,0.26458333,-151.50797,-75.361353)"
       style="stroke-width:2.00000003;stroke-miterlimit:4;stroke-dasharray:none;stroke:#37fd02;stroke-opacity:1;stroke-linejoin:round;fill:#07fe07;fill-opacity:1;opacity:0.871789919816" />
    <polygon
       points="539.5,394.3 543.8,371.2 520,384.9 "
       class="st4"
       id="XMLID_66_"
       transform="matrix(0.26458333,0,0,0.26458333,-151.50797,-75.361353)"
       style="stroke-width:2.00000003;stroke-miterlimit:4;stroke-dasharray:none;stroke:#00f91e;stroke-opacity:1;stroke-linejoin:round;fill:#00fd36;fill-opacity:1;opacity:0.98677020985" />
    <polygon
       points="520,384.9 543.8,371.2 525.8,360.3 "
       class="st3"
       id="XMLID_67_"
       transform="matrix(0.26458333,0,0,0.26458333,-151.50797,-75.361353)"
       style="stroke-width:2.00000003;stroke-miterlimit:4;stroke-dasharray:none;stroke:#4bf401;stroke-opacity:1;stroke-linejoin:round;fill:#18f001;fill-opacity:1;opacity:0.879724024862" />
    <polygon
       points="520,384.9 525.8,360.3 514.1,370.9 "
       class="st1"
       id="XMLID_68_"
       transform="matrix(0.26458333,0,0,0.26458333,-151.50797,-75.361353)"
       style="stroke-width:2.00000003;stroke-miterlimit:4;stroke-dasharray:none;stroke:#04fd10;stroke-opacity:1;stroke-linejoin:round;fill:#01fe37;fill-opacity:1;opacity:0.975523739157" />
    <polygon
       points="539.5,394 564,392.7 574.9,377 560.5,377 "
       class="st7"
       id="XMLID_69_"
       transform="matrix(0.26458333,0,0,0.26458333,-151.50797,-75.361353)"
       style="stroke-width:2.00000003;stroke-miterlimit:4;stroke-dasharray:none;stroke:#01f207;stroke-opacity:1;stroke-linejoin:round;fill:#02fd02;fill-opacity:1;opacity:0.929277847331" />
    <polygon
       points="574.9,377.5 564,393.1 571.4,397.4 "
       class="st6"
       id="XMLID_70_"
       transform="matrix(0.26458333,0,0,0.26458333,-151.50797,-75.361353)"
       style="stroke-width:2.00000003;stroke-miterlimit:4;stroke-dasharray:none;stroke:#07fa01;stroke-opacity:1;stroke-linejoin:round;fill:#01f034;fill-opacity:1;opacity:0.929444172632" />
    <polygon
       points="571.4,397.4 576.9,414.2 590.6,394.3 574.9,377.5 "
       class="st1"
       id="XMLID_71_"
       transform="matrix(0.26458333,0,0,0.26458333,-151.50797,-75.361353)"
       style="stroke-width:2.00000003;stroke-miterlimit:4;stroke-dasharray:none;stroke:#04fd2d;stroke-opacity:1;stroke-linejoin:round;fill:#23f500;fill-opacity:1;opacity:0.962048574418" />
    <polygon
       points="590.6,394.3 576.9,414.2 591.7,418.4 "
       class="st3"
       id="XMLID_72_"
       transform="matrix(0.26458333,0,0,0.26458333,-151.50797,-75.361353)"
       style="stroke-width:2.00000003;stroke-miterlimit:4;stroke-dasharray:none;stroke:#3afd06;stroke-opacity:1;stroke-linejoin:round;fill:#01fa18;fill-opacity:1;opacity:0.903665937409" />
    <polygon
       points="591.7,418.4 611.6,414.2 607.3,392.3 590.6,394.3 "
       class="st5"
       id="XMLID_73_"
       transform="matrix(0.26458333,0,0,0.26458333,-151.50797,-75.361353)"
       style="stroke-width:2.00000003;stroke-miterlimit:4;stroke-dasharray:none;stroke:#01fe2b;stroke-opacity:1;stroke-linejoin:round;fill:#00f133;fill-opacity:1;opacity:0.896085398411" />
    <polygon
       points="611.6,414.2 624.1,391.5 615.1,379.8 607.3,392.3 "
       class="st7"
       id="XMLID_74_"
       transform="matrix(0.26458333,0,0,0.26458333,-151.50797,-75.361353)"
       style="stroke-width:2.00000003;stroke-miterlimit:4;stroke-dasharray:none;stroke:#11fc0b;stroke-opacity:1;stroke-linejoin:round;fill:#00f10b;fill-opacity:1;opacity:0.995921043589" />
    <polygon
       points="551.6,311.6 542.6,307.6 542.2,267.5 "
       class="st1"
       id="XMLID_75_"
       transform="matrix(0.26458333,0,0,0.26458333,-151.50797,-75.361353)"
       style="stroke-width:2.00000003;stroke-miterlimit:4;stroke-dasharray:none;stroke:#4cf302;stroke-opacity:1;stroke-linejoin:round;fill:#3dfd0a;fill-opacity:1;opacity:0.992410767611" />
    <polygon
       points="542.2,267.5 551.6,311.6 558.2,304.2 "
       class="st2"
       id="XMLID_76_"
       transform="matrix(0.26458333,0,0,0.26458333,-151.50797,-75.361353)"
       style="stroke-width:2.00000003;stroke-miterlimit:4;stroke-dasharray:none;stroke:#00f133;stroke-opacity:1;stroke-linejoin:round;fill:#01f20c;fill-opacity:1;opacity:0.867901082357" />
    <polygon
       points="542.2,267.5 558.2,304.2 561.6,293.7 "
       class="st4"
       id="XMLID_77_"
       transform="matrix(0.26458333,0,0,0.26458333,-151.50797,-75.361353)"
       style="stroke-width:2.00000003;stroke-miterlimit:4;stroke-dasharray:none;stroke:#01f61e;stroke-opacity:1;stroke-linejoin:round;fill:#37fd02;fill-opacity:1;opacity:0.98601716877" />
    <polygon
       points="542.6,307.6 551.6,311.6 557.4,332.6 "
       class="st2"
       id="XMLID_78_"
       transform="matrix(0.26458333,0,0,0.26458333,-151.50797,-75.361353)"
       style="stroke-width:2.00000003;stroke-miterlimit:4;stroke-dasharray:none;stroke:#01f007;stroke-opacity:1;stroke-linejoin:round;fill:#02f324;fill-opacity:1;opacity:0.923927979341" />
    <polygon
       points="551.6,311.6 558.2,304.2 559.6,312.6 557.4,332.6 "
       class="st4"
       id="XMLID_79_"
       transform="matrix(0.26458333,0,0,0.26458333,-151.50797,-75.361353)"
       style="stroke-width:2.00000003;stroke-miterlimit:4;stroke-dasharray:none;stroke:#39f100;stroke-opacity:1;stroke-linejoin:round;fill:#19fe01;fill-opacity:1;opacity:0.890685923977" />
    <polygon
       points="561.6,293.7 559.6,312.6 558.2,304.2 "
       class="st7"
       id="XMLID_80_"
       transform="matrix(0.26458333,0,0,0.26458333,-151.50797,-75.361353)"
       style="stroke-width:2.00000003;stroke-miterlimit:4;stroke-dasharray:none;stroke:#02f50d;stroke-opacity:1;stroke-linejoin:round;fill:#08fd1f;fill-opacity:1;opacity:0.990937204389" />
  </g>
</svg>
