<?xml version="1.0" encoding="UTF-8" standalone="no"?>
<!-- Created with Inkscape (http://www.inkscape.org/) -->

<svg
   xmlns:dc="http://purl.org/dc/elements/1.1/"
   xmlns:cc="http://creativecommons.org/ns#"
   xmlns:rdf="http://www.w3.org/1999/02/22-rdf-syntax-ns#"
   xmlns:svg="http://www.w3.org/2000/svg"
   xmlns="http://www.w3.org/2000/svg"
   xmlns:sodipodi="http://sodipodi.sourceforge.net/DTD/sodipodi-0.dtd"
   xmlns:inkscape="http://www.inkscape.org/namespaces/inkscape"
   sodipodi:docname="indigo2.svg"
   inkscape:version=""
   id="svg9740"
   version="1.1"
   viewBox="0 0 145.64743 186.38159"
   height="186.38159mm"
   width="145.64743mm">
  <sodipodi:namedview
     fit-margin-bottom="0"
     fit-margin-right="0"
     fit-margin-left="0"
     fit-margin-top="0"
     showgrid="false"
     inkscape:current-layer="layer1"
     inkscape:document-units="mm"
     inkscape:cy="351.79486"
     inkscape:cx="275.23924"
     inkscape:zoom="1.1839286"
     inkscape:pageshadow="2"
     inkscape:pageopacity="0.0"
     borderopacity="1.0"
     bordercolor="#666666"
     pagecolor="#ffffff"
     id="base" />
  <defs
     id="defs9734" />
  <metadata
     id="metadata9737">
    <rdf:RDF>
      <cc:Work
         rdf:about="">
        <dc:format>image/svg+xml</dc:format>
        <dc:type
           rdf:resource="http://purl.org/dc/dcmitype/StillImage" />
        <dc:title></dc:title>
      </cc:Work>
    </rdf:RDF>
  </metadata>
  <g
     inkscape:label="Layer 1"
     inkscape:groupmode="layer"
     id="layer1"
     transform="translate(-33.009614,-55.642539)">
    <path
       style="fill:#00037f;fill-rule:evenodd;stroke:#011680;stroke-width:0.70555556;stroke-linecap:butt;stroke-linejoin:round;stroke-opacity:1;stroke-miterlimit:4;stroke-dasharray:none;opacity:0.919137816233;fill-opacity:1"
       d="m 118.51044,55.829515 -23.842604,23.134407 9.442614,10.386875 -4.721307,4.485243 -4.01311,-4.013113 -35.17374,33.757343 32.340955,34.22948 15.580312,-13.92785 -6.60983,-6.60983 6.1377,-5.66557 -9.914742,-9.91475 24.550792,-22.190142 5.42951,5.193442 5.66556,-4.721312 4.24918,4.249182 13.92785,-14.399993 z"
       id="path9664"
       inkscape:connector-curvature="0" />
    <path
       style="fill:#00097b;fill-rule:evenodd;stroke:#000979;stroke-width:0.70555556;stroke-linecap:butt;stroke-linejoin:round;stroke-opacity:1;stroke-miterlimit:4;stroke-dasharray:none;opacity:0.900077641078;fill-opacity:1"
       d="m 148.0186,93.363907 30.45243,31.160633 -27.02948,27.02948 -9.67868,-9.67868 6.37377,-6.37376 -11.33114,-11.33114 8.26229,-8.26229 -9.67868,-9.67868 z"
       id="path9666"
       inkscape:connector-curvature="0" />
    <path
       style="fill:#000979;fill-rule:evenodd;stroke:#010f7e;stroke-width:0.70555556;stroke-linecap:butt;stroke-linejoin:round;stroke-opacity:1;stroke-miterlimit:4;stroke-dasharray:none;opacity:0.985753605868;fill-opacity:1"
       d="m 108.12356,143.8819 -6.60983,-6.60983 6.1377,-5.66558 -9.914742,-9.91474 24.550792,-22.190142 5.42951,5.193442 5.66556,-4.721312 4.24918,4.249182 -2.24262,2.00655 9.67868,9.67868 -8.26229,8.26229 11.33114,11.33114 -6.37377,6.37376 v 0 l -12.51146,12.51146 -15.81638,-15.81637 z"
       id="path9668"
       inkscape:connector-curvature="0" />
    <path
       style="fill:#0f007b;fill-rule:evenodd;stroke:#00127d;stroke-width:0.70555556;stroke-linecap:butt;stroke-linejoin:round;stroke-opacity:1;stroke-miterlimit:4;stroke-dasharray:none;opacity:0.948977433336;fill-opacity:1"
       d="M 84.280961,174.80646 53.393703,156.97369 67.850656,131.93351 92.543248,157.80975 Z"
       id="path9670"
       inkscape:connector-curvature="0" />
    <path
       style="fill:#0c007f;fill-rule:evenodd;stroke:#0c007d;stroke-width:0.70555556;stroke-linecap:butt;stroke-linejoin:round;stroke-opacity:1;stroke-miterlimit:4;stroke-dasharray:none;opacity:0.911880028962;fill-opacity:1"
       d="m 53.393703,156.97369 -17.742207,9.80655 27.383582,36.82619 16.76064,-9.44261 -3.601961,-6.23879 h -11.03409 v -15.0071 z"
       id="path9672"
       inkscape:connector-curvature="0" />
    <path
       style="fill:#010178;fill-rule:evenodd;stroke:#011080;stroke-width:0.70555556;stroke-linecap:butt;stroke-linejoin:round;stroke-opacity:1;stroke-miterlimit:4;stroke-dasharray:none;opacity:0.899037453834;fill-opacity:1"
       d="m 35.651496,166.78024 v 0 l -2.489125,4.31129 24.707867,42.79528 5.16484,-10.28038 z"
       id="path9674"
       inkscape:connector-curvature="0" />
    <path
       style="fill:#010f7a;fill-rule:evenodd;stroke:#000f7b;stroke-width:0.70555556;stroke-linecap:butt;stroke-linejoin:round;stroke-opacity:1;stroke-miterlimit:4;stroke-dasharray:none;opacity:0.987863288933;fill-opacity:1"
       d="m 57.870238,213.88681 5.16484,-10.28038 7.081962,-4.01311 -3.183781,11.88203 -9.063021,2.41146"
       id="path9676"
       inkscape:connector-curvature="0" />
    <path
       style="fill:#01127a;fill-rule:evenodd;stroke:#0f017e;stroke-width:0.70555556;stroke-linecap:butt;stroke-linejoin:round;stroke-opacity:1;stroke-miterlimit:4;stroke-dasharray:none;opacity:0.881497135594;fill-opacity:1"
       d="m 79.795718,194.16382 -3.601961,-6.23879 h -11.03409 v -15.0071 l -11.765964,-15.94424 36.158629,20.87619 v 11.59263 z"
       id="path9678"
       inkscape:connector-curvature="0" />
    <path
       style="fill:#03007d;fill-rule:evenodd;stroke:#000f7d;stroke-width:0.70555556;stroke-linecap:butt;stroke-linejoin:round;stroke-opacity:1;stroke-miterlimit:4;stroke-dasharray:none;opacity:0.995225307781;fill-opacity:1"
       d="m 92.543248,157.80975 9.106292,5.25752 6.3379,-6.3379 11.58529,11.58529 9.67868,-13.92786 -15.81638,-15.81637 -5.31147,5.31147 -15.580312,13.92785"
       id="path9680"
       inkscape:connector-curvature="0" />
    <path
       style="fill:#000981;fill-rule:evenodd;stroke:#010c7a;stroke-width:0.70555556;stroke-linecap:butt;stroke-linejoin:round;stroke-opacity:1;stroke-miterlimit:4;stroke-dasharray:none;opacity:0.999062882138;fill-opacity:1"
       d="m 129.25141,154.3868 8.85245,-8.85245 11.33113,11.5672 -9.20655,8.97049 z"
       id="path9682"
       inkscape:connector-curvature="0" />
    <path
       style="fill:#0e0079;fill-rule:evenodd;stroke:#0c007d;stroke-width:0.70555556;stroke-linecap:butt;stroke-linejoin:round;stroke-opacity:1;stroke-miterlimit:4;stroke-dasharray:none;opacity:0.968964006805;fill-opacity:1"
       d="m 149.43499,157.10155 -11.33113,-11.5672 3.65901,-3.65901 9.67868,9.67868 v 0 l 3.42295,-3.65901 7.31802,7.31802 -12.51146,12.51147 -5.4295,-5.42951 z"
       id="path9684"
       inkscape:connector-curvature="0" />
    <path
       style="fill:#0c007d;fill-rule:evenodd;stroke:#00067b;stroke-width:0.70555556;stroke-linecap:butt;stroke-linejoin:round;stroke-opacity:1;stroke-miterlimit:4;stroke-dasharray:none;opacity:0.928318672357;fill-opacity:1"
       d="m 96.08423,174.80646 12.03933,-1.18033 0.47213,4.72131 4.48525,-3.54098 7.79015,0.47213 2.59672,11.33113 -5.90163,4.48525 -19.357362,2.36065 z"
       id="path9686"
       inkscape:connector-curvature="0" />
    <path
       style="fill:#001479;fill-rule:evenodd;stroke:#000379;stroke-width:0.70555556;stroke-linecap:butt;stroke-linejoin:round;stroke-opacity:1;stroke-miterlimit:4;stroke-dasharray:none;opacity:0.903109633836;fill-opacity:1"
       d="m 104.58258,201.48184 18.88523,-14.87212 11.80326,14.63606 -14.16391,18.4131 -7.08196,-4.01311 z"
       id="path9688"
       inkscape:connector-curvature="0" />
    <path
       style="fill:#0b0079;fill-rule:evenodd;stroke:#00037d;stroke-width:0.70555556;stroke-linecap:butt;stroke-linejoin:round;stroke-opacity:1;stroke-miterlimit:4;stroke-dasharray:none;opacity:0.876494337069;fill-opacity:1"
       d="m 119.57273,168.31466 -6.49179,6.4918 -4.48525,3.54098 -0.47213,-4.72131 -12.039333,1.18033 -6.531895,3.04342 -5.271371,-3.04342 8.262287,-16.99671 9.106292,5.25752 6.3379,-6.3379 z"
       id="path9690"
       inkscape:connector-curvature="0" />
    <path
       style="fill:#03007f;fill-rule:evenodd;stroke:#0b007b;stroke-width:0.70555556;stroke-linecap:butt;stroke-linejoin:round;stroke-opacity:1;stroke-miterlimit:4;stroke-dasharray:none;opacity:0.956518520111;fill-opacity:1"
       d="m 66.933259,211.47535 3.183781,-11.88203 19.435292,-10.15081 v -11.59263 l 6.531895,-3.04342 2.124591,18.64916 19.357362,-2.36065 -12.9836,10.38687 9.44261,14.16393 7.08197,4.01311 14.16391,-18.4131 -11.80326,-14.63606 -2.59672,-11.33113 -7.79015,-0.47213 6.49179,-6.4918 9.67868,-13.92786 10.97703,11.68524 4.01312,-3.77705 5.4295,5.42951 9.67868,-9.67868 -0.11803,3.06885 5.66557,17.23277 -1.65246,5.7836 -1.29836,2.83278 -4.83934,5.19344 -6.96393,0.82623 -6.72786,8.14425 -2.59672,8.61639 -8.97047,9.44261 -5.07541,2.47869 -0.82623,3.89508 1.29836,3.06885 -1.53443,2.36065 -8.14425,5.7836 -4.48524,0.59017 -6.8459,4.48524 -3.65901,-4.36721 -1.0623,-5.54754 -3.777042,-2.83278 -3.540982,-5.31147 -3.777046,-2.12459 -4.603274,-1.77049 h -4.721307 l -2.242622,-3.18688 0.3541,-3.54098 -3.186882,-0.82623 -0.708197,2.36065 z"
       id="path9694"
       inkscape:connector-curvature="0" />
    <path
       style="fill:#00067f;fill-rule:evenodd;stroke:#0e0079;stroke-width:0.70555556;stroke-linecap:butt;stroke-linejoin:round;stroke-opacity:1;stroke-miterlimit:4;stroke-dasharray:none;opacity:0.894000679914;fill-opacity:1"
       d="m 110.72028,235.94738 0.3541,-5.19343 2.24262,-2.24262 -0.82623,-7.67213 -12.983594,-6.01967"
       id="path9696"
       inkscape:connector-curvature="0" />
    <path
       style="fill:#03007b;fill-rule:evenodd;stroke:#0c007d;stroke-width:0.70555556;stroke-linecap:butt;stroke-linejoin:round;stroke-opacity:1;stroke-miterlimit:4;stroke-dasharray:none;opacity:0.953520996835;fill-opacity:1"
       d="m 119.4547,231.58018 0.11803,-4.01312 -3.06885,-2.12458 1.65246,-2.83279 -2.36065,-4.13114 -13.21966,-5.90164"
       id="path9698"
       inkscape:connector-curvature="0" />
    <path
       style="fill:#090081;fill-rule:evenodd;stroke:#00097b;stroke-width:0.70555556;stroke-linecap:butt;stroke-linejoin:round;stroke-opacity:1;stroke-miterlimit:4;stroke-dasharray:none;opacity:0.865559088111;fill-opacity:1"
       d="m 101.0416,206.08512 -8.144252,-2.71475 -0.944261,10.15081"
       id="path9700"
       inkscape:connector-curvature="0" />
    <path
       style="fill:#0c017a;fill-rule:evenodd;stroke:#000979;stroke-width:0.70555556;stroke-linecap:butt;stroke-linejoin:round;stroke-opacity:1;stroke-miterlimit:4;stroke-dasharray:none;opacity:0.899802684578;fill-opacity:1"
       d="m 161.0022,176.81301 -3.30492,2.71475 -11.9213,-3.18688"
       id="path9702"
       inkscape:connector-curvature="0" />
    <path
       style="fill:#000f7d;fill-rule:evenodd;stroke:#080079;stroke-width:0.70555556;stroke-linecap:butt;stroke-linejoin:round;stroke-opacity:1;stroke-miterlimit:4;stroke-dasharray:none;opacity:0.972648469018;fill-opacity:1"
       d="m 154.62843,192.27529 -4.13114,-5.54753 -1.41639,1.65245 -3.42295,-3.77704 -1.65246,0.59016 -1.41639,-1.88852 -2.24262,1.77049 -1.65246,-2.12459 -3.06885,3.42295 -1.77049,-0.94426 -1.65245,0.94426"
       id="path9704"
       inkscape:connector-curvature="0" />
  </g>
</svg>
