<?xml version="1.0" encoding="UTF-8" standalone="no"?>
<!-- Created with Inkscape (http://www.inkscape.org/) -->

<svg
   xmlns:dc="http://purl.org/dc/elements/1.1/"
   xmlns:cc="http://creativecommons.org/ns#"
   xmlns:rdf="http://www.w3.org/1999/02/22-rdf-syntax-ns#"
   xmlns:svg="http://www.w3.org/2000/svg"
   xmlns="http://www.w3.org/2000/svg"
   xmlns:sodipodi="http://sodipodi.sourceforge.net/DTD/sodipodi-0.dtd"
   xmlns:inkscape="http://www.inkscape.org/namespaces/inkscape"
   width="53.869167mm"
   height="48.180626mm"
   viewBox="0 0 53.869167 48.180626"
   version="1.1"
   id="svg18634"
   inkscape:version=""
   sodipodi:docname="orange3.svg">
  <sodipodi:namedview
     id="base"
     pagecolor="#ffffff"
     bordercolor="#666666"
     borderopacity="1.0"
     inkscape:pageopacity="0.0"
     inkscape:pageshadow="2"
     inkscape:zoom="4.5853926"
     inkscape:cx="101.8"
     inkscape:cy="91.050002"
     inkscape:document-units="mm"
     inkscape:current-layer="layer1"
     showgrid="false"
     fit-margin-top="0"
     fit-margin-left="0"
     fit-margin-right="0"
     fit-margin-bottom="0" />
  <defs
     id="defs18628" />
  <metadata
     id="metadata18631">
    <rdf:RDF>
      <cc:Work
         rdf:about="">
        <dc:format>image/svg+xml</dc:format>
        <dc:type
           rdf:resource="http://purl.org/dc/dcmitype/StillImage" />
        <dc:title></dc:title>
      </cc:Work>
    </rdf:RDF>
  </metadata>
  <g
     inkscape:label="Layer 1"
     inkscape:groupmode="layer"
     id="layer1"
     transform="translate(24.666722,12.840312)">
    <polygon
       points="502.4,315.9 479.4,264.4 483.3,306.9 "
       class="st1"
       id="XMLID_37_"
       transform="matrix(0.26458333,0,0,0.26458333,-151.50797,-75.361353)"
       style="stroke-width:2.00000003;stroke-miterlimit:4;stroke-dasharray:none;stroke:#fe5603;stroke-opacity:1;stroke-linejoin:round;fill:#fc5503;fill-opacity:1;opacity:0.932651985231" />
    <polygon
       points="502.4,315.9 479.4,264.4 518.4,287 "
       class="st2"
       id="XMLID_38_"
       transform="matrix(0.26458333,0,0,0.26458333,-151.50797,-75.361353)"
       style="stroke-width:2.00000003;stroke-miterlimit:4;stroke-dasharray:none;stroke:#fa9901;stroke-opacity:1;stroke-linejoin:round;fill:#fe5501;fill-opacity:1;opacity:0.996401333054" />
    <polygon
       points="518.4,287.6 479.4,265 517.2,265 "
       class="st4"
       id="XMLID_39_"
       transform="matrix(0.26458333,0,0,0.26458333,-151.50797,-75.361353)"
       style="stroke-width:2.00000003;stroke-miterlimit:4;stroke-dasharray:none;stroke:#fd5900;stroke-opacity:1;stroke-linejoin:round;fill:#fa6501;fill-opacity:1;opacity:0.994278580144" />
    <polygon
       points="483.3,306.9 525.8,360.3 543.8,371.2 502.4,315.9 "
       class="st2"
       id="XMLID_40_"
       transform="matrix(0.26458333,0,0,0.26458333,-151.50797,-75.361353)"
       style="stroke-width:2.00000003;stroke-miterlimit:4;stroke-dasharray:none;stroke:#fd7d00;stroke-opacity:1;stroke-linejoin:round;fill:#fd9104;fill-opacity:1;opacity:0.929982150887" />
    <polygon
       points="502.4,315.9 518.4,287 561.3,359.5 543.8,371.2 "
       class="st4"
       id="XMLID_41_"
       transform="matrix(0.26458333,0,0,0.26458333,-151.50797,-75.361353)"
       style="stroke-width:2.00000003;stroke-miterlimit:4;stroke-dasharray:none;stroke:#fa7001;stroke-opacity:1;stroke-linejoin:round;fill:#f77a00;fill-opacity:1;opacity:0.910290472652" />
    <polygon
       points="518.4,287 517.2,264.4 557.4,332.6 561.3,359.5 "
       class="st5"
       id="XMLID_42_"
       transform="matrix(0.26458333,0,0,0.26458333,-151.50797,-75.361353)"
       style="stroke-width:2.00000003;stroke-miterlimit:4;stroke-dasharray:none;stroke:#f75700;stroke-opacity:1;stroke-linejoin:round;fill:#f65801;fill-opacity:1;opacity:0.92834863992" />
    <polygon
       points="561.3,359.5 574.6,280.8 564.8,264 557.4,332.6 "
       class="st2"
       id="XMLID_43_"
       transform="matrix(0.26458333,0,0,0.26458333,-151.50797,-75.361353)"
       style="stroke-width:2.00000003;stroke-miterlimit:4;stroke-dasharray:none;stroke:#fe5a01;stroke-opacity:1;stroke-linejoin:round;fill:#f66901;fill-opacity:1;opacity:0.89817670142" />
    <polygon
       points="574.6,280.8 564.8,264 587.4,238.6 "
       class="st1"
       id="XMLID_44_"
       transform="matrix(0.26458333,0,0,0.26458333,-151.50797,-75.361353)"
       style="stroke-width:2.00000003;stroke-miterlimit:4;stroke-dasharray:none;stroke:#f98100;stroke-opacity:1;stroke-linejoin:round;fill:#f79802;fill-opacity:1;opacity:0.988820282913" />
    <polygon
       points="574.6,281 587.4,238.8 593.3,281 "
       class="st2"
       id="XMLID_45_"
       transform="matrix(0.26458333,0,0,0.26458333,-151.50797,-75.361353)"
       style="stroke-width:2.00000003;stroke-miterlimit:4;stroke-dasharray:none;stroke:#fd6102;stroke-opacity:1;stroke-linejoin:round;fill:#f78000;fill-opacity:1;opacity:0.954303658649" />
    <polygon
       points="574.6,281 561.3,359.7 587.1,329.7 593.3,281 "
       class="st4"
       id="XMLID_46_"
       transform="matrix(0.26458333,0,0,0.26458333,-151.50797,-75.361353)"
       style="stroke-width:2.00000003;stroke-miterlimit:4;stroke-dasharray:none;stroke:#fd7100;stroke-opacity:1;stroke-linejoin:round;fill:#f56902;fill-opacity:1;opacity:0.926755337474" />
    <polygon
       points="591.3,342.4 587.1,329.5 620.6,312.4 "
       class="st1"
       id="XMLID_47_"
       transform="matrix(0.26458333,0,0,0.26458333,-151.50797,-75.361353)"
       style="stroke-width:2.00000003;stroke-miterlimit:4;stroke-dasharray:none;stroke:#f89201;stroke-opacity:1;stroke-linejoin:round;fill:#fa7601;fill-opacity:1;opacity:0.918307114582" />
    <polygon
       points="620.6,312.4 591.3,342.4 613.6,347.1 "
       class="st2"
       id="XMLID_48_"
       transform="matrix(0.26458333,0,0,0.26458333,-151.50797,-75.361353)"
       style="stroke-width:2.00000003;stroke-miterlimit:4;stroke-dasharray:none;stroke:#fe8b03;stroke-opacity:1;stroke-linejoin:round;fill:#fd5b02;fill-opacity:1;opacity:0.939387597876" />
    <polygon
       points="593.3,280.8 587.4,238.6 600.3,270.2 "
       class="st4"
       id="XMLID_49_"
       transform="matrix(0.26458333,0,0,0.26458333,-151.50797,-75.361353)"
       style="stroke-width:2.00000003;stroke-miterlimit:4;stroke-dasharray:none;stroke:#fd9c02;stroke-opacity:1;stroke-linejoin:round;fill:#fd8504;fill-opacity:1;opacity:0.958377490032" />
    <polygon
       points="596.8,324.5 641.7,253.5 653.7,265.5 620.6,312.4 "
       class="st4"
       id="XMLID_50_"
       transform="matrix(0.26458333,0,0,0.26458333,-151.50797,-75.361353)"
       style="stroke-width:2.00000003;stroke-miterlimit:4;stroke-dasharray:none;stroke:#fa7601;stroke-opacity:1;stroke-linejoin:round;fill:#fc6501;fill-opacity:1;opacity:0.916025304304" />
    <polygon
       points="653.7,265.5 641.7,253.5 683,236.3 "
       class="st2"
       id="XMLID_51_"
       transform="matrix(0.26458333,0,0,0.26458333,-151.50797,-75.361353)"
       style="stroke-width:2.00000003;stroke-miterlimit:4;stroke-dasharray:none;stroke:#fe9001;stroke-opacity:1;stroke-linejoin:round;fill:#f95e00;fill-opacity:1;opacity:0.864046848968" />
    <polygon
       points="653.7,265.5 683,236.3 672.8,275.3 "
       class="st4"
       id="XMLID_52_"
       transform="matrix(0.26458333,0,0,0.26458333,-151.50797,-75.361353)"
       style="stroke-width:2.00000003;stroke-miterlimit:4;stroke-dasharray:none;stroke:#fd8900;stroke-opacity:1;stroke-linejoin:round;fill:#fd8a02;fill-opacity:1;opacity:0.970728156458" />
    <polygon
       points="653.7,265.5 620.6,312.4 613.6,347.1 672.8,275.3 "
       class="st5"
       id="XMLID_53_"
       transform="matrix(0.26458333,0,0,0.26458333,-151.50797,-75.361353)"
       style="stroke-width:2.00000003;stroke-miterlimit:4;stroke-dasharray:none;stroke:#f58002;stroke-opacity:1;stroke-linejoin:round;fill:#fb8800;fill-opacity:1;opacity:0.960547434135" />
    <polygon
       points="641.7,253.5 683,236.3 640.1,244.1 "
       class="st1"
       id="XMLID_54_"
       transform="matrix(0.26458333,0,0,0.26458333,-151.50797,-75.361353)"
       style="stroke-width:2.00000003;stroke-miterlimit:4;stroke-dasharray:none;stroke:#fb6a00;stroke-opacity:1;stroke-linejoin:round;fill:#f68001;fill-opacity:1;opacity:0.882897511543" />
    <polygon
       points="596.8,324.5 641.7,253.5 640.1,244.1 599.9,298.7 587.1,329.5 "
       class="st2"
       id="XMLID_55_"
       transform="matrix(0.26458333,0,0,0.26458333,-151.50797,-75.361353)"
       style="stroke-width:2.00000003;stroke-miterlimit:4;stroke-dasharray:none;stroke:#f87b01;stroke-opacity:1;stroke-linejoin:round;fill:#fc8505;fill-opacity:1;opacity:0.876508839632" />
    <polygon
       points="600.3,270.2 599.9,298.7 587.1,329.5 593.3,280.8 "
       class="st7"
       id="XMLID_56_"
       transform="matrix(0.26458333,0,0,0.26458333,-151.50797,-75.361353)"
       style="stroke-width:2.00000003;stroke-miterlimit:4;stroke-dasharray:none;stroke:#fe7e01;stroke-opacity:1;stroke-linejoin:round;fill:#fb8200;fill-opacity:1;opacity:0.980489260587" />
    <polygon
       points="672.8,275.3 683,236.3 681.8,268.7 "
       class="st5"
       id="XMLID_57_"
       transform="matrix(0.26458333,0,0,0.26458333,-151.50797,-75.361353)"
       style="stroke-width:2.00000003;stroke-miterlimit:4;stroke-dasharray:none;stroke:#fd7202;stroke-opacity:1;stroke-linejoin:round;fill:#fe8401;fill-opacity:1;opacity:0.941195804726" />
    <polygon
       points="681.8,268.7 607.7,361.5 613.6,347.1 672.8,275.3 "
       class="st7"
       id="XMLID_58_"
       transform="matrix(0.26458333,0,0,0.26458333,-151.50797,-75.361353)"
       style="stroke-width:2.00000003;stroke-miterlimit:4;stroke-dasharray:none;stroke:#fc5f01;stroke-opacity:1;stroke-linejoin:round;fill:#fc6c03;fill-opacity:1;opacity:0.903513527896" />
    <polygon
       points="591.3,342.4 560.5,377.5 561.3,359.5 587.1,329.5 "
       class="st2"
       id="XMLID_59_"
       transform="matrix(0.26458333,0,0,0.26458333,-151.50797,-75.361353)"
       style="stroke-width:2.00000003;stroke-miterlimit:4;stroke-dasharray:none;stroke:#fd8b04;stroke-opacity:1;stroke-linejoin:round;fill:#fb5900;fill-opacity:1;opacity:0.948097347511" />
    <polygon
       points="560.5,377 574.9,377 613.6,346.8 591.3,342 "
       class="st3"
       id="XMLID_60_"
       transform="matrix(0.26458333,0,0,0.26458333,-151.50797,-75.361353)"
       style="stroke-width:2.00000003;stroke-miterlimit:4;stroke-dasharray:none;stroke:#fc6c03;stroke-opacity:1;stroke-linejoin:round;fill:#f68b01;fill-opacity:1;opacity:0.963333413658" />
    <polygon
       points="574.9,377.5 590.6,394.3 607.7,361.5 613.6,347.1 "
       class="st2"
       id="XMLID_61_"
       transform="matrix(0.26458333,0,0,0.26458333,-151.50797,-75.361353)"
       style="stroke-width:2.00000003;stroke-miterlimit:4;stroke-dasharray:none;stroke:#fd6102;stroke-opacity:1;stroke-linejoin:round;fill:#fd7904;fill-opacity:1;opacity:0.901989086017" />
    <polygon
       points="607.7,361.5 590.6,394.3 607.3,392.3 "
       class="st4"
       id="XMLID_62_"
       transform="matrix(0.26458333,0,0,0.26458333,-151.50797,-75.361353)"
       style="stroke-width:2.00000003;stroke-miterlimit:4;stroke-dasharray:none;stroke:#fc7d01;stroke-opacity:1;stroke-linejoin:round;fill:#fd7100;fill-opacity:1;opacity:0.926409051657" />
    <polygon
       points="617.4,349.4 615.1,379.8 607.3,392.3 607.7,361.5 "
       class="st5"
       id="XMLID_63_"
       transform="matrix(0.26458333,0,0,0.26458333,-151.50797,-75.361353)"
       style="stroke-width:2.00000003;stroke-miterlimit:4;stroke-dasharray:none;stroke:#f78000;stroke-opacity:1;stroke-linejoin:round;fill:#fa5301;fill-opacity:1;opacity:0.879977950863" />
    <polygon
       points="561.3,359.5 543.8,371.2 560.5,377.5 "
       class="st5"
       id="XMLID_64_"
       transform="matrix(0.26458333,0,0,0.26458333,-151.50797,-75.361353)"
       style="stroke-width:2.00000003;stroke-miterlimit:4;stroke-dasharray:none;stroke:#fe7303;stroke-opacity:1;stroke-linejoin:round;fill:#fc8403;fill-opacity:1;opacity:0.966183290559" />
    <polygon
       points="560.5,377.5 543.8,371.2 539.5,394.3 "
       class="st6"
       id="XMLID_65_"
       transform="matrix(0.26458333,0,0,0.26458333,-151.50797,-75.361353)"
       style="stroke-width:2.00000003;stroke-miterlimit:4;stroke-dasharray:none;stroke:#fe9001;stroke-opacity:1;stroke-linejoin:round;fill:#fe9001;fill-opacity:1;opacity:0.876220958764" />
    <polygon
       points="539.5,394.3 543.8,371.2 520,384.9 "
       class="st4"
       id="XMLID_66_"
       transform="matrix(0.26458333,0,0,0.26458333,-151.50797,-75.361353)"
       style="stroke-width:2.00000003;stroke-miterlimit:4;stroke-dasharray:none;stroke:#fd6602;stroke-opacity:1;stroke-linejoin:round;fill:#fd7f04;fill-opacity:1;opacity:0.94129047193" />
    <polygon
       points="520,384.9 543.8,371.2 525.8,360.3 "
       class="st3"
       id="XMLID_67_"
       transform="matrix(0.26458333,0,0,0.26458333,-151.50797,-75.361353)"
       style="stroke-width:2.00000003;stroke-miterlimit:4;stroke-dasharray:none;stroke:#fe7801;stroke-opacity:1;stroke-linejoin:round;fill:#fb9400;fill-opacity:1;opacity:0.870729247646" />
    <polygon
       points="520,384.9 525.8,360.3 514.1,370.9 "
       class="st1"
       id="XMLID_68_"
       transform="matrix(0.26458333,0,0,0.26458333,-151.50797,-75.361353)"
       style="stroke-width:2.00000003;stroke-miterlimit:4;stroke-dasharray:none;stroke:#fa9901;stroke-opacity:1;stroke-linejoin:round;fill:#f75100;fill-opacity:1;opacity:0.917170912844" />
    <polygon
       points="539.5,394 564,392.7 574.9,377 560.5,377 "
       class="st7"
       id="XMLID_69_"
       transform="matrix(0.26458333,0,0,0.26458333,-151.50797,-75.361353)"
       style="stroke-width:2.00000003;stroke-miterlimit:4;stroke-dasharray:none;stroke:#fb5f00;stroke-opacity:1;stroke-linejoin:round;fill:#fe7f03;fill-opacity:1;opacity:0.922955512439" />
    <polygon
       points="574.9,377.5 564,393.1 571.4,397.4 "
       class="st6"
       id="XMLID_70_"
       transform="matrix(0.26458333,0,0,0.26458333,-151.50797,-75.361353)"
       style="stroke-width:2.00000003;stroke-miterlimit:4;stroke-dasharray:none;stroke:#fd5400;stroke-opacity:1;stroke-linejoin:round;fill:#fa8801;fill-opacity:1;opacity:0.997868784813" />
    <polygon
       points="571.4,397.4 576.9,414.2 590.6,394.3 574.9,377.5 "
       class="st1"
       id="XMLID_71_"
       transform="matrix(0.26458333,0,0,0.26458333,-151.50797,-75.361353)"
       style="stroke-width:2.00000003;stroke-miterlimit:4;stroke-dasharray:none;stroke:#fb8302;stroke-opacity:1;stroke-linejoin:round;fill:#fd9002;fill-opacity:1;opacity:0.936562276745" />
    <polygon
       points="590.6,394.3 576.9,414.2 591.7,418.4 "
       class="st3"
       id="XMLID_72_"
       transform="matrix(0.26458333,0,0,0.26458333,-151.50797,-75.361353)"
       style="stroke-width:2.00000003;stroke-miterlimit:4;stroke-dasharray:none;stroke:#f88c01;stroke-opacity:1;stroke-linejoin:round;fill:#f66901;fill-opacity:1;opacity:0.996630805559" />
    <polygon
       points="591.7,418.4 611.6,414.2 607.3,392.3 590.6,394.3 "
       class="st5"
       id="XMLID_73_"
       transform="matrix(0.26458333,0,0,0.26458333,-151.50797,-75.361353)"
       style="stroke-width:2.00000003;stroke-miterlimit:4;stroke-dasharray:none;stroke:#fd5300;stroke-opacity:1;stroke-linejoin:round;fill:#f59102;fill-opacity:1;opacity:0.929990530187" />
    <polygon
       points="611.6,414.2 624.1,391.5 615.1,379.8 607.3,392.3 "
       class="st7"
       id="XMLID_74_"
       transform="matrix(0.26458333,0,0,0.26458333,-151.50797,-75.361353)"
       style="stroke-width:2.00000003;stroke-miterlimit:4;stroke-dasharray:none;stroke:#fd6602;stroke-opacity:1;stroke-linejoin:round;fill:#f69101;fill-opacity:1;opacity:0.910078988713" />
    <polygon
       points="551.6,311.6 542.6,307.6 542.2,267.5 "
       class="st1"
       id="XMLID_75_"
       transform="matrix(0.26458333,0,0,0.26458333,-151.50797,-75.361353)"
       style="stroke-width:2.00000003;stroke-miterlimit:4;stroke-dasharray:none;stroke:#f77400;stroke-opacity:1;stroke-linejoin:round;fill:#fd7802;fill-opacity:1;opacity:0.893369461559" />
    <polygon
       points="542.2,267.5 551.6,311.6 558.2,304.2 "
       class="st2"
       id="XMLID_76_"
       transform="matrix(0.26458333,0,0,0.26458333,-151.50797,-75.361353)"
       style="stroke-width:2.00000003;stroke-miterlimit:4;stroke-dasharray:none;stroke:#fa5301;stroke-opacity:1;stroke-linejoin:round;fill:#fa7001;fill-opacity:1;opacity:0.930398272415" />
    <polygon
       points="542.2,267.5 558.2,304.2 561.6,293.7 "
       class="st4"
       id="XMLID_77_"
       transform="matrix(0.26458333,0,0,0.26458333,-151.50797,-75.361353)"
       style="stroke-width:2.00000003;stroke-miterlimit:4;stroke-dasharray:none;stroke:#fd7700;stroke-opacity:1;stroke-linejoin:round;fill:#fd8300;fill-opacity:1;opacity:0.967184476874" />
    <polygon
       points="542.6,307.6 551.6,311.6 557.4,332.6 "
       class="st2"
       id="XMLID_78_"
       transform="matrix(0.26458333,0,0,0.26458333,-151.50797,-75.361353)"
       style="stroke-width:2.00000003;stroke-miterlimit:4;stroke-dasharray:none;stroke:#fa8201;stroke-opacity:1;stroke-linejoin:round;fill:#fe8b03;fill-opacity:1;opacity:0.867110271738" />
    <polygon
       points="551.6,311.6 558.2,304.2 559.6,312.6 557.4,332.6 "
       class="st4"
       id="XMLID_79_"
       transform="matrix(0.26458333,0,0,0.26458333,-151.50797,-75.361353)"
       style="stroke-width:2.00000003;stroke-miterlimit:4;stroke-dasharray:none;stroke:#fd9c02;stroke-opacity:1;stroke-linejoin:round;fill:#fd7802;fill-opacity:1;opacity:0.921242351573" />
    <polygon
       points="561.6,293.7 559.6,312.6 558.2,304.2 "
       class="st7"
       id="XMLID_80_"
       transform="matrix(0.26458333,0,0,0.26458333,-151.50797,-75.361353)"
       style="stroke-width:2.00000003;stroke-miterlimit:4;stroke-dasharray:none;stroke:#f66301;stroke-opacity:1;stroke-linejoin:round;fill:#fe6601;fill-opacity:1;opacity:0.914487610935" />
  </g>
</svg>
