<?xml version="1.0" encoding="UTF-8" standalone="no"?>
<!-- Created with Inkscape (http://www.inkscape.org/) -->

<svg
   xmlns:dc="http://purl.org/dc/elements/1.1/"
   xmlns:cc="http://creativecommons.org/ns#"
   xmlns:rdf="http://www.w3.org/1999/02/22-rdf-syntax-ns#"
   xmlns:svg="http://www.w3.org/2000/svg"
   xmlns="http://www.w3.org/2000/svg"
   xmlns:sodipodi="http://sodipodi.sourceforge.net/DTD/sodipodi-0.dtd"
   xmlns:inkscape="http://www.inkscape.org/namespaces/inkscape"
   width="53.869167mm"
   height="48.180626mm"
   viewBox="0 0 53.869167 48.180626"
   version="1.1"
   id="svg18634"
   inkscape:version=""
   sodipodi:docname="purple3.svg">
  <sodipodi:namedview
     id="base"
     pagecolor="#ffffff"
     bordercolor="#666666"
     borderopacity="1.0"
     inkscape:pageopacity="0.0"
     inkscape:pageshadow="2"
     inkscape:zoom="4.5853926"
     inkscape:cx="101.8"
     inkscape:cy="91.050002"
     inkscape:document-units="mm"
     inkscape:current-layer="layer1"
     showgrid="false"
     fit-margin-top="0"
     fit-margin-left="0"
     fit-margin-right="0"
     fit-margin-bottom="0" />
  <defs
     id="defs18628" />
  <metadata
     id="metadata18631">
    <rdf:RDF>
      <cc:Work
         rdf:about="">
        <dc:format>image/svg+xml</dc:format>
        <dc:type
           rdf:resource="http://purl.org/dc/dcmitype/StillImage" />
        <dc:title />
      </cc:Work>
    </rdf:RDF>
  </metadata>
  <g
     inkscape:label="Layer 1"
     inkscape:groupmode="layer"
     id="layer1"
     transform="translate(24.666722,12.840312)">
    <polygon
       points="502.4,315.9 479.4,264.4 483.3,306.9 "
       class="st1"
       id="XMLID_37_"
       transform="matrix(0.26458333,0,0,0.26458333,-151.50797,-75.361353)"
       style="stroke-width:2.00000003;stroke-miterlimit:4;stroke-dasharray:none;stroke:#860162;stroke-opacity:1;stroke-linejoin:round;fill:#5e0085;fill-opacity:1;opacity:0.985605475555" />
    <polygon
       points="502.4,315.9 479.4,264.4 518.4,287 "
       class="st2"
       id="XMLID_38_"
       transform="matrix(0.26458333,0,0,0.26458333,-151.50797,-75.361353)"
       style="stroke-width:2.00000003;stroke-miterlimit:4;stroke-dasharray:none;stroke:#560073;stroke-opacity:1;stroke-linejoin:round;fill:#6a007d;fill-opacity:1;opacity:0.935079751903" />
    <polygon
       points="518.4,287.6 479.4,265 517.2,265 "
       class="st4"
       id="XMLID_39_"
       transform="matrix(0.26458333,0,0,0.26458333,-151.50797,-75.361353)"
       style="stroke-width:2.00000003;stroke-miterlimit:4;stroke-dasharray:none;stroke:#750074;stroke-opacity:1;stroke-linejoin:round;fill:#5d0071;fill-opacity:1;opacity:0.969371102633" />
    <polygon
       points="483.3,306.9 525.8,360.3 543.8,371.2 502.4,315.9 "
       class="st2"
       id="XMLID_40_"
       transform="matrix(0.26458333,0,0,0.26458333,-151.50797,-75.361353)"
       style="stroke-width:2.00000003;stroke-miterlimit:4;stroke-dasharray:none;stroke:#830060;stroke-opacity:1;stroke-linejoin:round;fill:#67007d;fill-opacity:1;opacity:0.881044619635" />
    <polygon
       points="502.4,315.9 518.4,287 561.3,359.5 543.8,371.2 "
       class="st4"
       id="XMLID_41_"
       transform="matrix(0.26458333,0,0,0.26458333,-151.50797,-75.361353)"
       style="stroke-width:2.00000003;stroke-miterlimit:4;stroke-dasharray:none;stroke:#7b007a;stroke-opacity:1;stroke-linejoin:round;fill:#720176;fill-opacity:1;opacity:0.889706881989" />
    <polygon
       points="518.4,287 517.2,264.4 557.4,332.6 561.3,359.5 "
       class="st5"
       id="XMLID_42_"
       transform="matrix(0.26458333,0,0,0.26458333,-151.50797,-75.361353)"
       style="stroke-width:2.00000003;stroke-miterlimit:4;stroke-dasharray:none;stroke:#73005c;stroke-opacity:1;stroke-linejoin:round;fill:#780166;fill-opacity:1;opacity:0.984218793079" />
    <polygon
       points="561.3,359.5 574.6,280.8 564.8,264 557.4,332.6 "
       class="st2"
       id="XMLID_43_"
       transform="matrix(0.26458333,0,0,0.26458333,-151.50797,-75.361353)"
       style="stroke-width:2.00000003;stroke-miterlimit:4;stroke-dasharray:none;stroke:#7b0062;stroke-opacity:1;stroke-linejoin:round;fill:#6b0071;fill-opacity:1;opacity:0.999650935209" />
    <polygon
       points="574.6,280.8 564.8,264 587.4,238.6 "
       class="st1"
       id="XMLID_44_"
       transform="matrix(0.26458333,0,0,0.26458333,-151.50797,-75.361353)"
       style="stroke-width:2.00000003;stroke-miterlimit:4;stroke-dasharray:none;stroke:#7c0175;stroke-opacity:1;stroke-linejoin:round;fill:#850186;fill-opacity:1;opacity:0.996250418157" />
    <polygon
       points="574.6,281 587.4,238.8 593.3,281 "
       class="st2"
       id="XMLID_45_"
       transform="matrix(0.26458333,0,0,0.26458333,-151.50797,-75.361353)"
       style="stroke-width:2.00000003;stroke-miterlimit:4;stroke-dasharray:none;stroke:#7d007b;stroke-opacity:1;stroke-linejoin:round;fill:#720087;fill-opacity:1;opacity:0.914762967904" />
    <polygon
       points="574.6,281 561.3,359.7 587.1,329.7 593.3,281 "
       class="st4"
       id="XMLID_46_"
       transform="matrix(0.26458333,0,0,0.26458333,-151.50797,-75.361353)"
       style="stroke-width:2.00000003;stroke-miterlimit:4;stroke-dasharray:none;stroke:#850061;stroke-opacity:1;stroke-linejoin:round;fill:#760180;fill-opacity:1;opacity:0.994757018586" />
    <polygon
       points="591.3,342.4 587.1,329.5 620.6,312.4 "
       class="st1"
       id="XMLID_47_"
       transform="matrix(0.26458333,0,0,0.26458333,-151.50797,-75.361353)"
       style="stroke-width:2.00000003;stroke-miterlimit:4;stroke-dasharray:none;stroke:#7d0067;stroke-opacity:1;stroke-linejoin:round;fill:#7b007d;fill-opacity:1;opacity:0.860784555879" />
    <polygon
       points="620.6,312.4 591.3,342.4 613.6,347.1 "
       class="st2"
       id="XMLID_48_"
       transform="matrix(0.26458333,0,0,0.26458333,-151.50797,-75.361353)"
       style="stroke-width:2.00000003;stroke-miterlimit:4;stroke-dasharray:none;stroke:#720079;stroke-opacity:1;stroke-linejoin:round;fill:#7b0186;fill-opacity:1;opacity:0.871170607116" />
    <polygon
       points="593.3,280.8 587.4,238.6 600.3,270.2 "
       class="st4"
       id="XMLID_49_"
       transform="matrix(0.26458333,0,0,0.26458333,-151.50797,-75.361353)"
       style="stroke-width:2.00000003;stroke-miterlimit:4;stroke-dasharray:none;stroke:#840089;stroke-opacity:1;stroke-linejoin:round;fill:#890081;fill-opacity:1;opacity:0.870275716605" />
    <polygon
       points="596.8,324.5 641.7,253.5 653.7,265.5 620.6,312.4 "
       class="st4"
       id="XMLID_50_"
       transform="matrix(0.26458333,0,0,0.26458333,-151.50797,-75.361353)"
       style="stroke-width:2.00000003;stroke-miterlimit:4;stroke-dasharray:none;stroke:#640184;stroke-opacity:1;stroke-linejoin:round;fill:#730064;fill-opacity:1;opacity:0.891842772462" />
    <polygon
       points="653.7,265.5 641.7,253.5 683,236.3 "
       class="st2"
       id="XMLID_51_"
       transform="matrix(0.26458333,0,0,0.26458333,-151.50797,-75.361353)"
       style="stroke-width:2.00000003;stroke-miterlimit:4;stroke-dasharray:none;stroke:#500075;stroke-opacity:1;stroke-linejoin:round;fill:#670081;fill-opacity:1;opacity:0.973992175704" />
    <polygon
       points="653.7,265.5 683,236.3 672.8,275.3 "
       class="st4"
       id="XMLID_52_"
       transform="matrix(0.26458333,0,0,0.26458333,-151.50797,-75.361353)"
       style="stroke-width:2.00000003;stroke-miterlimit:4;stroke-dasharray:none;stroke:#7e0171;stroke-opacity:1;stroke-linejoin:round;fill:#520079;fill-opacity:1;opacity:0.882305815324" />
    <polygon
       points="653.7,265.5 620.6,312.4 613.6,347.1 672.8,275.3 "
       class="st5"
       id="XMLID_53_"
       transform="matrix(0.26458333,0,0,0.26458333,-151.50797,-75.361353)"
       style="stroke-width:2.00000003;stroke-miterlimit:4;stroke-dasharray:none;stroke:#6f0083;stroke-opacity:1;stroke-linejoin:round;fill:#7a007b;fill-opacity:1;opacity:0.954580245974" />
    <polygon
       points="641.7,253.5 683,236.3 640.1,244.1 "
       class="st1"
       id="XMLID_54_"
       transform="matrix(0.26458333,0,0,0.26458333,-151.50797,-75.361353)"
       style="stroke-width:2.00000003;stroke-miterlimit:4;stroke-dasharray:none;stroke:#700071;stroke-opacity:1;stroke-linejoin:round;fill:#800184;fill-opacity:1;opacity:0.895441111982" />
    <polygon
       points="596.8,324.5 641.7,253.5 640.1,244.1 599.9,298.7 587.1,329.5 "
       class="st2"
       id="XMLID_55_"
       transform="matrix(0.26458333,0,0,0.26458333,-151.50797,-75.361353)"
       style="stroke-width:2.00000003;stroke-miterlimit:4;stroke-dasharray:none;stroke:#72016c;stroke-opacity:1;stroke-linejoin:round;fill:#6d0081;fill-opacity:1;opacity:0.8939359602" />
    <polygon
       points="600.3,270.2 599.9,298.7 587.1,329.5 593.3,280.8 "
       class="st7"
       id="XMLID_56_"
       transform="matrix(0.26458333,0,0,0.26458333,-151.50797,-75.361353)"
       style="stroke-width:2.00000003;stroke-miterlimit:4;stroke-dasharray:none;stroke:#690073;stroke-opacity:1;stroke-linejoin:round;fill:#6f007f;fill-opacity:1;opacity:0.891011578034" />
    <polygon
       points="672.8,275.3 683,236.3 681.8,268.7 "
       class="st5"
       id="XMLID_57_"
       transform="matrix(0.26458333,0,0,0.26458333,-151.50797,-75.361353)"
       style="stroke-width:2.00000003;stroke-miterlimit:4;stroke-dasharray:none;stroke:#55017c;stroke-opacity:1;stroke-linejoin:round;fill:#770057;fill-opacity:1;opacity:0.909828076123" />
    <polygon
       points="681.8,268.7 607.7,361.5 613.6,347.1 672.8,275.3 "
       class="st7"
       id="XMLID_58_"
       transform="matrix(0.26458333,0,0,0.26458333,-151.50797,-75.361353)"
       style="stroke-width:2.00000003;stroke-miterlimit:4;stroke-dasharray:none;stroke:#790087;stroke-opacity:1;stroke-linejoin:round;fill:#88017d;fill-opacity:1;opacity:0.926675046062" />
    <polygon
       points="591.3,342.4 560.5,377.5 561.3,359.5 587.1,329.5 "
       class="st2"
       id="XMLID_59_"
       transform="matrix(0.26458333,0,0,0.26458333,-151.50797,-75.361353)"
       style="stroke-width:2.00000003;stroke-miterlimit:4;stroke-dasharray:none;stroke:#5e0081;stroke-opacity:1;stroke-linejoin:round;fill:#510073;fill-opacity:1;opacity:0.927229678904" />
    <polygon
       points="560.5,377 574.9,377 613.6,346.8 591.3,342 "
       class="st3"
       id="XMLID_60_"
       transform="matrix(0.26458333,0,0,0.26458333,-151.50797,-75.361353)"
       style="stroke-width:2.00000003;stroke-miterlimit:4;stroke-dasharray:none;stroke:#6c0087;stroke-opacity:1;stroke-linejoin:round;fill:#73017a;fill-opacity:1;opacity:0.918139605827" />
    <polygon
       points="574.9,377.5 590.6,394.3 607.7,361.5 613.6,347.1 "
       class="st2"
       id="XMLID_61_"
       transform="matrix(0.26458333,0,0,0.26458333,-151.50797,-75.361353)"
       style="stroke-width:2.00000003;stroke-miterlimit:4;stroke-dasharray:none;stroke:#82017e;stroke-opacity:1;stroke-linejoin:round;fill:#78015b;fill-opacity:1;opacity:0.951141315903" />
    <polygon
       points="607.7,361.5 590.6,394.3 607.3,392.3 "
       class="st4"
       id="XMLID_62_"
       transform="matrix(0.26458333,0,0,0.26458333,-151.50797,-75.361353)"
       style="stroke-width:2.00000003;stroke-miterlimit:4;stroke-dasharray:none;stroke:#890071;stroke-opacity:1;stroke-linejoin:round;fill:#7d005b;fill-opacity:1;opacity:0.948419197311" />
    <polygon
       points="617.4,349.4 615.1,379.8 607.3,392.3 607.7,361.5 "
       class="st5"
       id="XMLID_63_"
       transform="matrix(0.26458333,0,0,0.26458333,-151.50797,-75.361353)"
       style="stroke-width:2.00000003;stroke-miterlimit:4;stroke-dasharray:none;stroke:#750070;stroke-opacity:1;stroke-linejoin:round;fill:#55007d;fill-opacity:1;opacity:0.940159224475" />
    <polygon
       points="561.3,359.5 543.8,371.2 560.5,377.5 "
       class="st5"
       id="XMLID_64_"
       transform="matrix(0.26458333,0,0,0.26458333,-151.50797,-75.361353)"
       style="stroke-width:2.00000003;stroke-miterlimit:4;stroke-dasharray:none;stroke:#720087;stroke-opacity:1;stroke-linejoin:round;fill:#66007f;fill-opacity:1;opacity:0.935018948491" />
    <polygon
       points="560.5,377.5 543.8,371.2 539.5,394.3 "
       class="st6"
       id="XMLID_65_"
       transform="matrix(0.26458333,0,0,0.26458333,-151.50797,-75.361353)"
       style="stroke-width:2.00000003;stroke-miterlimit:4;stroke-dasharray:none;stroke:#580174;stroke-opacity:1;stroke-linejoin:round;fill:#550079;fill-opacity:1;opacity:0.898175242779" />
    <polygon
       points="539.5,394.3 543.8,371.2 520,384.9 "
       class="st4"
       id="XMLID_66_"
       transform="matrix(0.26458333,0,0,0.26458333,-151.50797,-75.361353)"
       style="stroke-width:2.00000003;stroke-miterlimit:4;stroke-dasharray:none;stroke:#670188;stroke-opacity:1;stroke-linejoin:round;fill:#87006f;fill-opacity:1;opacity:0.941372075437" />
    <polygon
       points="520,384.9 543.8,371.2 525.8,360.3 "
       class="st3"
       id="XMLID_67_"
       transform="matrix(0.26458333,0,0,0.26458333,-151.50797,-75.361353)"
       style="stroke-width:2.00000003;stroke-miterlimit:4;stroke-dasharray:none;stroke:#7f0087;stroke-opacity:1;stroke-linejoin:round;fill:#57007b;fill-opacity:1;opacity:0.895035090648" />
    <polygon
       points="520,384.9 525.8,360.3 514.1,370.9 "
       class="st1"
       id="XMLID_68_"
       transform="matrix(0.26458333,0,0,0.26458333,-151.50797,-75.361353)"
       style="stroke-width:2.00000003;stroke-miterlimit:4;stroke-dasharray:none;stroke:#580081;stroke-opacity:1;stroke-linejoin:round;fill:#860181;fill-opacity:1;opacity:0.96932858004" />
    <polygon
       points="539.5,394 564,392.7 574.9,377 560.5,377 "
       class="st7"
       id="XMLID_69_"
       transform="matrix(0.26458333,0,0,0.26458333,-151.50797,-75.361353)"
       style="stroke-width:2.00000003;stroke-miterlimit:4;stroke-dasharray:none;stroke:#71005f;stroke-opacity:1;stroke-linejoin:round;fill:#510073;fill-opacity:1;opacity:0.944675361872" />
    <polygon
       points="574.9,377.5 564,393.1 571.4,397.4 "
       class="st6"
       id="XMLID_70_"
       transform="matrix(0.26458333,0,0,0.26458333,-151.50797,-75.361353)"
       style="stroke-width:2.00000003;stroke-miterlimit:4;stroke-dasharray:none;stroke:#880183;stroke-opacity:1;stroke-linejoin:round;fill:#7e0177;fill-opacity:1;opacity:0.915112955117" />
    <polygon
       points="571.4,397.4 576.9,414.2 590.6,394.3 574.9,377.5 "
       class="st1"
       id="XMLID_71_"
       transform="matrix(0.26458333,0,0,0.26458333,-151.50797,-75.361353)"
       style="stroke-width:2.00000003;stroke-miterlimit:4;stroke-dasharray:none;stroke:#73006c;stroke-opacity:1;stroke-linejoin:round;fill:#720159;fill-opacity:1;opacity:0.934252773587" />
    <polygon
       points="590.6,394.3 576.9,414.2 591.7,418.4 "
       class="st3"
       id="XMLID_72_"
       transform="matrix(0.26458333,0,0,0.26458333,-151.50797,-75.361353)"
       style="stroke-width:2.00000003;stroke-miterlimit:4;stroke-dasharray:none;stroke:#7c016c;stroke-opacity:1;stroke-linejoin:round;fill:#63007f;fill-opacity:1;opacity:0.923639574421" />
    <polygon
       points="591.7,418.4 611.6,414.2 607.3,392.3 590.6,394.3 "
       class="st5"
       id="XMLID_73_"
       transform="matrix(0.26458333,0,0,0.26458333,-151.50797,-75.361353)"
       style="stroke-width:2.00000003;stroke-miterlimit:4;stroke-dasharray:none;stroke:#7f006c;stroke-opacity:1;stroke-linejoin:round;fill:#660172;fill-opacity:1;opacity:0.976054837204" />
    <polygon
       points="611.6,414.2 624.1,391.5 615.1,379.8 607.3,392.3 "
       class="st7"
       id="XMLID_74_"
       transform="matrix(0.26458333,0,0,0.26458333,-151.50797,-75.361353)"
       style="stroke-width:2.00000003;stroke-miterlimit:4;stroke-dasharray:none;stroke:#5b0079;stroke-opacity:1;stroke-linejoin:round;fill:#71006d;fill-opacity:1;opacity:0.889043990316" />
    <polygon
       points="551.6,311.6 542.6,307.6 542.2,267.5 "
       class="st1"
       id="XMLID_75_"
       transform="matrix(0.26458333,0,0,0.26458333,-151.50797,-75.361353)"
       style="stroke-width:2.00000003;stroke-miterlimit:4;stroke-dasharray:none;stroke:#7a0162;stroke-opacity:1;stroke-linejoin:round;fill:#730081;fill-opacity:1;opacity:0.956777286393" />
    <polygon
       points="542.2,267.5 551.6,311.6 558.2,304.2 "
       class="st2"
       id="XMLID_76_"
       transform="matrix(0.26458333,0,0,0.26458333,-151.50797,-75.361353)"
       style="stroke-width:2.00000003;stroke-miterlimit:4;stroke-dasharray:none;stroke:#5b0178;stroke-opacity:1;stroke-linejoin:round;fill:#5a0077;fill-opacity:1;opacity:0.873704346179" />
    <polygon
       points="542.2,267.5 558.2,304.2 561.6,293.7 "
       class="st4"
       id="XMLID_77_"
       transform="matrix(0.26458333,0,0,0.26458333,-151.50797,-75.361353)"
       style="stroke-width:2.00000003;stroke-miterlimit:4;stroke-dasharray:none;stroke:#85006b;stroke-opacity:1;stroke-linejoin:round;fill:#710055;fill-opacity:1;opacity:0.882332283843" />
    <polygon
       points="542.6,307.6 551.6,311.6 557.4,332.6 "
       class="st2"
       id="XMLID_78_"
       transform="matrix(0.26458333,0,0,0.26458333,-151.50797,-75.361353)"
       style="stroke-width:2.00000003;stroke-miterlimit:4;stroke-dasharray:none;stroke:#80016d;stroke-opacity:1;stroke-linejoin:round;fill:#7f0078;fill-opacity:1;opacity:0.999707816445" />
    <polygon
       points="551.6,311.6 558.2,304.2 559.6,312.6 557.4,332.6 "
       class="st4"
       id="XMLID_79_"
       transform="matrix(0.26458333,0,0,0.26458333,-151.50797,-75.361353)"
       style="stroke-width:2.00000003;stroke-miterlimit:4;stroke-dasharray:none;stroke:#810064;stroke-opacity:1;stroke-linejoin:round;fill:#64007d;fill-opacity:1;opacity:0.907013066219" />
    <polygon
       points="561.6,293.7 559.6,312.6 558.2,304.2 "
       class="st7"
       id="XMLID_80_"
       transform="matrix(0.26458333,0,0,0.26458333,-151.50797,-75.361353)"
       style="stroke-width:2.00000003;stroke-miterlimit:4;stroke-dasharray:none;stroke:#690087;stroke-opacity:1;stroke-linejoin:round;fill:#800173;fill-opacity:1;opacity:0.885708493179" />
  </g>
</svg>
