<?xml version="1.0" encoding="UTF-8" standalone="no"?>
<!-- Created with Inkscape (http://www.inkscape.org/) -->

<svg
   xmlns:dc="http://purl.org/dc/elements/1.1/"
   xmlns:cc="http://creativecommons.org/ns#"
   xmlns:rdf="http://www.w3.org/1999/02/22-rdf-syntax-ns#"
   xmlns:svg="http://www.w3.org/2000/svg"
   xmlns="http://www.w3.org/2000/svg"
   xmlns:sodipodi="http://sodipodi.sourceforge.net/DTD/sodipodi-0.dtd"
   xmlns:inkscape="http://www.inkscape.org/namespaces/inkscape"
   width="53.869167mm"
   height="48.180626mm"
   viewBox="0 0 53.869167 48.180626"
   version="1.1"
   id="svg18634"
   inkscape:version=""
   sodipodi:docname="red3.svg">
  <sodipodi:namedview
     id="base"
     pagecolor="#ffffff"
     bordercolor="#666666"
     borderopacity="1.0"
     inkscape:pageopacity="0.0"
     inkscape:pageshadow="2"
     inkscape:zoom="4.5853926"
     inkscape:cx="101.8"
     inkscape:cy="91.050002"
     inkscape:document-units="mm"
     inkscape:current-layer="layer1"
     showgrid="false"
     fit-margin-top="0"
     fit-margin-left="0"
     fit-margin-right="0"
     fit-margin-bottom="0" />
  <defs
     id="defs18628" />
  <metadata
     id="metadata18631">
    <rdf:RDF>
      <cc:Work
         rdf:about="">
        <dc:format>image/svg+xml</dc:format>
        <dc:type
           rdf:resource="http://purl.org/dc/dcmitype/StillImage" />
        <dc:title></dc:title>
      </cc:Work>
    </rdf:RDF>
  </metadata>
  <g
     transform="translate(24.666722,12.840312)"
     id="layer1"
     inkscape:groupmode="layer"
     inkscape:label="Layer 1">
    <polygon
       style="stroke-width:2.00000003;stroke-miterlimit:4;stroke-dasharray:none;stroke:#f00000;stroke-opacity:1;stroke-linejoin:round;fill:#f62401;fill-opacity:1;opacity:0.87815079"
       transform="matrix(0.26458333,0,0,0.26458333,-151.50797,-75.361353)"
       id="XMLID_37_"
       class="st1"
       points="502.4,315.9 479.4,264.4 483.3,306.9 " />
    <polygon
       style="stroke-width:2.00000003;stroke-miterlimit:4;stroke-dasharray:none;stroke:#f00000;stroke-opacity:1;stroke-linejoin:round;fill:#f72a02;fill-opacity:1;opacity:0.91959847"
       transform="matrix(0.26458333,0,0,0.26458333,-151.50797,-75.361353)"
       id="XMLID_38_"
       class="st2"
       points="502.4,315.9 479.4,264.4 518.4,287 " />
    <polygon
       style="stroke-width:2.00000003;stroke-miterlimit:4;stroke-dasharray:none;stroke:#f00000;stroke-opacity:1;stroke-linejoin:round;fill:#fa1301;fill-opacity:1;opacity:0.94246833"
       transform="matrix(0.26458333,0,0,0.26458333,-151.50797,-75.361353)"
       id="XMLID_39_"
       class="st4"
       points="518.4,287.6 479.4,265 517.2,265 " />
    <polygon
       style="stroke-width:2.00000003;stroke-miterlimit:4;stroke-dasharray:none;stroke:#f00000;stroke-opacity:1;stroke-linejoin:round;fill:#f52402;fill-opacity:1;opacity:0.93055211"
       transform="matrix(0.26458333,0,0,0.26458333,-151.50797,-75.361353)"
       id="XMLID_40_"
       class="st2"
       points="483.3,306.9 525.8,360.3 543.8,371.2 502.4,315.9 " />
    <polygon
       style="stroke-width:2.00000003;stroke-miterlimit:4;stroke-dasharray:none;stroke:#f00000;stroke-opacity:1;stroke-linejoin:round;fill:#fb0202;fill-opacity:1;opacity:0.93693951"
       transform="matrix(0.26458333,0,0,0.26458333,-151.50797,-75.361353)"
       id="XMLID_41_"
       class="st4"
       points="502.4,315.9 518.4,287 561.3,359.5 543.8,371.2 " />
    <polygon
       style="stroke-width:2.00000003;stroke-miterlimit:4;stroke-dasharray:none;stroke:#f00000;stroke-opacity:1;stroke-linejoin:round;fill:#f73400;fill-opacity:1;opacity:0.9164778"
       transform="matrix(0.26458333,0,0,0.26458333,-151.50797,-75.361353)"
       id="XMLID_42_"
       class="st5"
       points="518.4,287 517.2,264.4 557.4,332.6 561.3,359.5 " />
    <polygon
       style="stroke-width:2.00000003;stroke-miterlimit:4;stroke-dasharray:none;stroke:#f00000;stroke-opacity:1;stroke-linejoin:round;fill:#f73c02;fill-opacity:1;opacity:0.92153436"
       transform="matrix(0.26458333,0,0,0.26458333,-151.50797,-75.361353)"
       id="XMLID_43_"
       class="st2"
       points="561.3,359.5 574.6,280.8 564.8,264 557.4,332.6 " />
    <polygon
       style="stroke-width:2.00000003;stroke-miterlimit:4;stroke-dasharray:none;stroke:#f00000;stroke-opacity:1;stroke-linejoin:round;fill:#f81301;fill-opacity:1;opacity:0.88528297"
       transform="matrix(0.26458333,0,0,0.26458333,-151.50797,-75.361353)"
       id="XMLID_44_"
       class="st1"
       points="574.6,280.8 564.8,264 587.4,238.6 " />
    <polygon
       style="stroke-width:2.00000003;stroke-miterlimit:4;stroke-dasharray:none;stroke:#f00000;stroke-opacity:1;stroke-linejoin:round;fill:#fd0000;fill-opacity:1;opacity:0.95162455"
       transform="matrix(0.26458333,0,0,0.26458333,-151.50797,-75.361353)"
       id="XMLID_45_"
       class="st2"
       points="574.6,281 587.4,238.8 593.3,281 " />
    <polygon
       style="stroke-width:2.00000003;stroke-miterlimit:4;stroke-dasharray:none;stroke:#f00000;stroke-opacity:1;stroke-linejoin:round;fill:#fe4301;fill-opacity:1;opacity:0.99376605"
       transform="matrix(0.26458333,0,0,0.26458333,-151.50797,-75.361353)"
       id="XMLID_46_"
       class="st4"
       points="574.6,281 561.3,359.7 587.1,329.7 593.3,281 " />
    <polygon
       style="stroke-width:2.00000003;stroke-miterlimit:4;stroke-dasharray:none;stroke:#f00000;stroke-opacity:1;stroke-linejoin:round;fill:#f80d01;fill-opacity:1;opacity:0.99101215"
       transform="matrix(0.26458333,0,0,0.26458333,-151.50797,-75.361353)"
       id="XMLID_47_"
       class="st1"
       points="591.3,342.4 587.1,329.5 620.6,312.4 " />
    <polygon
       style="stroke-width:2.00000003;stroke-miterlimit:4;stroke-dasharray:none;stroke:#f00000;stroke-opacity:1;stroke-linejoin:round;fill:#f63b01;fill-opacity:1;opacity:0.92274907"
       transform="matrix(0.26458333,0,0,0.26458333,-151.50797,-75.361353)"
       id="XMLID_48_"
       class="st2"
       points="620.6,312.4 591.3,342.4 613.6,347.1 " />
    <polygon
       style="stroke-width:2.00000003;stroke-miterlimit:4;stroke-dasharray:none;stroke:#f00000;stroke-opacity:1;stroke-linejoin:round;fill:#fd2b02;fill-opacity:1;opacity:0.88114239"
       transform="matrix(0.26458333,0,0,0.26458333,-151.50797,-75.361353)"
       id="XMLID_49_"
       class="st4"
       points="593.3,280.8 587.4,238.6 600.3,270.2 " />
    <polygon
       style="stroke-width:2.00000003;stroke-miterlimit:4;stroke-dasharray:none;stroke:#f00000;stroke-opacity:1;stroke-linejoin:round;fill:#fd3904;fill-opacity:1;opacity:0.89977962"
       transform="matrix(0.26458333,0,0,0.26458333,-151.50797,-75.361353)"
       id="XMLID_50_"
       class="st4"
       points="596.8,324.5 641.7,253.5 653.7,265.5 620.6,312.4 " />
    <polygon
       style="stroke-width:2.00000003;stroke-miterlimit:4;stroke-dasharray:none;stroke:#f00000;stroke-opacity:1;stroke-linejoin:round;fill:#fb2f00;fill-opacity:1;opacity:0.8617673"
       transform="matrix(0.26458333,0,0,0.26458333,-151.50797,-75.361353)"
       id="XMLID_51_"
       class="st2"
       points="653.7,265.5 641.7,253.5 683,236.3 " />
    <polygon
       style="stroke-width:2.00000003;stroke-miterlimit:4;stroke-dasharray:none;stroke:#f00000;stroke-opacity:1;stroke-linejoin:round;fill:#fe0303;fill-opacity:1;opacity:0.94406955"
       transform="matrix(0.26458333,0,0,0.26458333,-151.50797,-75.361353)"
       id="XMLID_52_"
       class="st4"
       points="653.7,265.5 683,236.3 672.8,275.3 " />
    <polygon
       style="stroke-width:2.00000003;stroke-miterlimit:4;stroke-dasharray:none;stroke:#f00000;stroke-opacity:1;stroke-linejoin:round;fill:#fe0d01;fill-opacity:1;opacity:0.9037624"
       transform="matrix(0.26458333,0,0,0.26458333,-151.50797,-75.361353)"
       id="XMLID_53_"
       class="st5"
       points="653.7,265.5 620.6,312.4 613.6,347.1 672.8,275.3 " />
    <polygon
       style="stroke-width:2.00000003;stroke-miterlimit:4;stroke-dasharray:none;stroke:#f00000;stroke-opacity:1;stroke-linejoin:round;fill:#f92900;fill-opacity:1;opacity:0.99322584"
       transform="matrix(0.26458333,0,0,0.26458333,-151.50797,-75.361353)"
       id="XMLID_54_"
       class="st1"
       points="641.7,253.5 683,236.3 640.1,244.1 " />
    <polygon
       style="stroke-width:2.00000003;stroke-miterlimit:4;stroke-dasharray:none;stroke:#f00000;stroke-opacity:1;stroke-linejoin:round;fill:#fe3e03;fill-opacity:1;opacity:0.98972886"
       transform="matrix(0.26458333,0,0,0.26458333,-151.50797,-75.361353)"
       id="XMLID_55_"
       class="st2"
       points="596.8,324.5 641.7,253.5 640.1,244.1 599.9,298.7 587.1,329.5 " />
    <polygon
       style="stroke-width:2.00000003;stroke-miterlimit:4;stroke-dasharray:none;stroke:#f00000;stroke-opacity:1;stroke-linejoin:round;fill:#f83501;fill-opacity:1;opacity:0.95786915"
       transform="matrix(0.26458333,0,0,0.26458333,-151.50797,-75.361353)"
       id="XMLID_56_"
       class="st7"
       points="600.3,270.2 599.9,298.7 587.1,329.5 593.3,280.8 " />
    <polygon
       style="stroke-width:2.00000003;stroke-miterlimit:4;stroke-dasharray:none;stroke:#f00000;stroke-opacity:1;stroke-linejoin:round;fill:#fb0600;fill-opacity:1;opacity:0.87036614"
       transform="matrix(0.26458333,0,0,0.26458333,-151.50797,-75.361353)"
       id="XMLID_57_"
       class="st5"
       points="672.8,275.3 683,236.3 681.8,268.7 " />
    <polygon
       style="stroke-width:2.00000003;stroke-miterlimit:4;stroke-dasharray:none;stroke:#f00000;stroke-opacity:1;stroke-linejoin:round;fill:#f50d02;fill-opacity:1;opacity:0.88185561"
       transform="matrix(0.26458333,0,0,0.26458333,-151.50797,-75.361353)"
       id="XMLID_58_"
       class="st7"
       points="681.8,268.7 607.7,361.5 613.6,347.1 672.8,275.3 " />
    <polygon
       style="stroke-width:2.00000003;stroke-miterlimit:4;stroke-dasharray:none;stroke:#f00000;stroke-opacity:1;stroke-linejoin:round;fill:#fc1a03;fill-opacity:1;opacity:0.97470321"
       transform="matrix(0.26458333,0,0,0.26458333,-151.50797,-75.361353)"
       id="XMLID_59_"
       class="st2"
       points="591.3,342.4 560.5,377.5 561.3,359.5 587.1,329.5 " />
    <polygon
       style="stroke-width:2.00000003;stroke-miterlimit:4;stroke-dasharray:none;stroke:#f00000;stroke-opacity:1;stroke-linejoin:round;fill:#f52402;fill-opacity:1;opacity:0.94450808"
       transform="matrix(0.26458333,0,0,0.26458333,-151.50797,-75.361353)"
       id="XMLID_60_"
       class="st3"
       points="560.5,377 574.9,377 613.6,346.8 591.3,342 " />
    <polygon
       style="stroke-width:2.00000003;stroke-miterlimit:4;stroke-dasharray:none;stroke:#f00000;stroke-opacity:1;stroke-linejoin:round;fill:#f81301;fill-opacity:1;opacity:0.86352169"
       transform="matrix(0.26458333,0,0,0.26458333,-151.50797,-75.361353)"
       id="XMLID_61_"
       class="st2"
       points="574.9,377.5 590.6,394.3 607.7,361.5 613.6,347.1 " />
    <polygon
       style="stroke-width:2.00000003;stroke-miterlimit:4;stroke-dasharray:none;stroke:#f00000;stroke-opacity:1;stroke-linejoin:round;fill:#fd3702;fill-opacity:1;opacity:0.99980243"
       transform="matrix(0.26458333,0,0,0.26458333,-151.50797,-75.361353)"
       id="XMLID_62_"
       class="st4"
       points="607.7,361.5 590.6,394.3 607.3,392.3 " />
    <polygon
       style="stroke-width:2.00000003;stroke-miterlimit:4;stroke-dasharray:none;stroke:#f00000;stroke-opacity:1;stroke-linejoin:round;fill:#f62f01;fill-opacity:1;opacity:0.93465439"
       transform="matrix(0.26458333,0,0,0.26458333,-151.50797,-75.361353)"
       id="XMLID_63_"
       class="st5"
       points="617.4,349.4 615.1,379.8 607.3,392.3 607.7,361.5 " />
    <polygon
       style="stroke-width:2.00000003;stroke-miterlimit:4;stroke-dasharray:none;stroke:#f00000;stroke-opacity:1;stroke-linejoin:round;fill:#fc0903;fill-opacity:1;opacity:0.92836767"
       transform="matrix(0.26458333,0,0,0.26458333,-151.50797,-75.361353)"
       id="XMLID_64_"
       class="st5"
       points="561.3,359.5 543.8,371.2 560.5,377.5 " />
    <polygon
       style="stroke-width:2.00000003;stroke-miterlimit:4;stroke-dasharray:none;stroke:#f00000;stroke-opacity:1;stroke-linejoin:round;fill:#fe1f01;fill-opacity:1;opacity:0.93091787"
       transform="matrix(0.26458333,0,0,0.26458333,-151.50797,-75.361353)"
       id="XMLID_65_"
       class="st6"
       points="560.5,377.5 543.8,371.2 539.5,394.3 " />
    <polygon
       style="stroke-width:2.00000003;stroke-miterlimit:4;stroke-dasharray:none;stroke:#f00000;stroke-opacity:1;stroke-linejoin:round;fill:#f82a01;fill-opacity:1;opacity:0.92857023"
       transform="matrix(0.26458333,0,0,0.26458333,-151.50797,-75.361353)"
       id="XMLID_66_"
       class="st4"
       points="539.5,394.3 543.8,371.2 520,384.9 " />
    <polygon
       style="stroke-width:2.00000003;stroke-miterlimit:4;stroke-dasharray:none;stroke:#f00000;stroke-opacity:1;stroke-linejoin:round;fill:#fe3803;fill-opacity:1;opacity:0.88644382"
       transform="matrix(0.26458333,0,0,0.26458333,-151.50797,-75.361353)"
       id="XMLID_67_"
       class="st3"
       points="520,384.9 543.8,371.2 525.8,360.3 " />
    <polygon
       style="stroke-width:2.00000003;stroke-miterlimit:4;stroke-dasharray:none;stroke:#f00000;stroke-opacity:1;stroke-linejoin:round;fill:#fd1b04;fill-opacity:1;opacity:0.98336431"
       transform="matrix(0.26458333,0,0,0.26458333,-151.50797,-75.361353)"
       id="XMLID_68_"
       class="st1"
       points="520,384.9 525.8,360.3 514.1,370.9 " />
    <polygon
       style="stroke-width:2.00000003;stroke-miterlimit:4;stroke-dasharray:none;stroke:#f00000;stroke-opacity:1;stroke-linejoin:round;fill:#f51902;fill-opacity:1;opacity:0.99311816"
       transform="matrix(0.26458333,0,0,0.26458333,-151.50797,-75.361353)"
       id="XMLID_69_"
       class="st7"
       points="539.5,394 564,392.7 574.9,377 560.5,377 " />
    <polygon
       style="stroke-width:2.00000003;stroke-miterlimit:4;stroke-dasharray:none;stroke:#f00000;stroke-opacity:1;stroke-linejoin:round;fill:#fb0000;fill-opacity:1;opacity:0.94067006"
       transform="matrix(0.26458333,0,0,0.26458333,-151.50797,-75.361353)"
       id="XMLID_70_"
       class="st6"
       points="574.9,377.5 564,393.1 571.4,397.4 " />
    <polygon
       style="stroke-width:2.00000003;stroke-miterlimit:4;stroke-dasharray:none;stroke:#f00000;stroke-opacity:1;stroke-linejoin:round;fill:#f80d01;fill-opacity:1;opacity:0.87219332"
       transform="matrix(0.26458333,0,0,0.26458333,-151.50797,-75.361353)"
       id="XMLID_71_"
       class="st1"
       points="571.4,397.4 576.9,414.2 590.6,394.3 574.9,377.5 " />
    <polygon
       style="stroke-width:2.00000003;stroke-miterlimit:4;stroke-dasharray:none;stroke:#f00000;stroke-opacity:1;stroke-linejoin:round;fill:#fb0e02;fill-opacity:1;opacity:0.94811596"
       transform="matrix(0.26458333,0,0,0.26458333,-151.50797,-75.361353)"
       id="XMLID_72_"
       class="st3"
       points="590.6,394.3 576.9,414.2 591.7,418.4 " />
    <polygon
       style="stroke-width:2.00000003;stroke-miterlimit:4;stroke-dasharray:none;stroke:#f00000;stroke-opacity:1;stroke-linejoin:round;fill:#f62401;fill-opacity:1;opacity:0.89842649"
       transform="matrix(0.26458333,0,0,0.26458333,-151.50797,-75.361353)"
       id="XMLID_73_"
       class="st5"
       points="591.7,418.4 611.6,414.2 607.3,392.3 590.6,394.3 " />
    <polygon
       style="stroke-width:2.00000003;stroke-miterlimit:4;stroke-dasharray:none;stroke:#f00000;stroke-opacity:1;stroke-linejoin:round;fill:#f93500;fill-opacity:1;opacity:0.95895972"
       transform="matrix(0.26458333,0,0,0.26458333,-151.50797,-75.361353)"
       id="XMLID_74_"
       class="st7"
       points="611.6,414.2 624.1,391.5 615.1,379.8 607.3,392.3 " />
    <polygon
       style="stroke-width:2.00000003;stroke-miterlimit:4;stroke-dasharray:none;stroke:#f00000;stroke-opacity:1;stroke-linejoin:round;fill:#f62f01;fill-opacity:1;opacity:0.91928422"
       transform="matrix(0.26458333,0,0,0.26458333,-151.50797,-75.361353)"
       id="XMLID_75_"
       class="st1"
       points="551.6,311.6 542.6,307.6 542.2,267.5 " />
    <polygon
       style="stroke-width:2.00000003;stroke-miterlimit:4;stroke-dasharray:none;stroke:#f00000;stroke-opacity:1;stroke-linejoin:round;fill:#fd3000;fill-opacity:1;opacity:0.89083053"
       transform="matrix(0.26458333,0,0,0.26458333,-151.50797,-75.361353)"
       id="XMLID_76_"
       class="st2"
       points="542.2,267.5 551.6,311.6 558.2,304.2 " />
    <polygon
       style="stroke-width:2.00000003;stroke-miterlimit:4;stroke-dasharray:none;stroke:#f00000;stroke-opacity:1;stroke-linejoin:round;fill:#fc2003;fill-opacity:1;opacity:0.93089542"
       transform="matrix(0.26458333,0,0,0.26458333,-151.50797,-75.361353)"
       id="XMLID_77_"
       class="st4"
       points="542.2,267.5 558.2,304.2 561.6,293.7 " />
    <polygon
       style="stroke-width:2.00000003;stroke-miterlimit:4;stroke-dasharray:none;stroke:#f00000;stroke-opacity:1;stroke-linejoin:round;fill:#f93500;fill-opacity:1;opacity:0.99225444"
       transform="matrix(0.26458333,0,0,0.26458333,-151.50797,-75.361353)"
       id="XMLID_78_"
       class="st2"
       points="542.6,307.6 551.6,311.6 557.4,332.6 " />
    <polygon
       style="stroke-width:2.00000003;stroke-miterlimit:4;stroke-dasharray:none;stroke:#f00000;stroke-opacity:1;stroke-linejoin:round;fill:#fe2501;fill-opacity:1;opacity:0.88150112"
       transform="matrix(0.26458333,0,0,0.26458333,-151.50797,-75.361353)"
       id="XMLID_79_"
       class="st4"
       points="551.6,311.6 558.2,304.2 559.6,312.6 557.4,332.6 " />
    <polygon
       style="stroke-width:2.00000003;stroke-miterlimit:4;stroke-dasharray:none;stroke:#f00000;stroke-opacity:1;stroke-linejoin:round;fill:#fd3904;fill-opacity:1;opacity:0.88651427"
       transform="matrix(0.26458333,0,0,0.26458333,-151.50797,-75.361353)"
       id="XMLID_80_"
       class="st7"
       points="561.6,293.7 559.6,312.6 558.2,304.2 " />
  </g>
</svg>
