<?xml version="1.0" encoding="UTF-8" standalone="no"?>
<!-- Created with Inkscape (http://www.inkscape.org/) -->

<svg
   xmlns:dc="http://purl.org/dc/elements/1.1/"
   xmlns:cc="http://creativecommons.org/ns#"
   xmlns:rdf="http://www.w3.org/1999/02/22-rdf-syntax-ns#"
   xmlns:svg="http://www.w3.org/2000/svg"
   xmlns="http://www.w3.org/2000/svg"
   xmlns:sodipodi="http://sodipodi.sourceforge.net/DTD/sodipodi-0.dtd"
   xmlns:inkscape="http://www.inkscape.org/namespaces/inkscape"
   sodipodi:docname="yellow3.svg"
   inkscape:version=""
   id="svg18634"
   version="1.1"
   viewBox="0 0 53.869167 48.180626"
   height="48.180626mm"
   width="53.869167mm">
  <sodipodi:namedview
     fit-margin-bottom="0"
     fit-margin-right="0"
     fit-margin-left="0"
     fit-margin-top="0"
     showgrid="false"
     inkscape:current-layer="layer1"
     inkscape:document-units="mm"
     inkscape:cy="91.050002"
     inkscape:cx="101.8"
     inkscape:zoom="4.5853926"
     inkscape:pageshadow="2"
     inkscape:pageopacity="0.0"
     borderopacity="1.0"
     bordercolor="#666666"
     pagecolor="#ffffff"
     id="base" />
  <defs
     id="defs18628" />
  <metadata
     id="metadata18631">
    <rdf:RDF>
      <cc:Work
         rdf:about="">
        <dc:format>image/svg+xml</dc:format>
        <dc:type
           rdf:resource="http://purl.org/dc/dcmitype/StillImage" />
        <dc:title></dc:title>
      </cc:Work>
    </rdf:RDF>
  </metadata>
  <g
     transform="translate(24.666722,12.840312)"
     id="layer1"
     inkscape:groupmode="layer"
     inkscape:label="Layer 1">
    <polygon
       style="stroke-width:2.00000003;stroke-miterlimit:4;stroke-dasharray:none;stroke:#f8f501;stroke-opacity:1;stroke-linejoin:round;fill:#f9f000;fill-opacity:1;opacity:0.874688813731"
       transform="matrix(0.26458333,0,0,0.26458333,-151.50797,-75.361353)"
       id="XMLID_37_"
       class="st1"
       points="502.4,315.9 479.4,264.4 483.3,306.9 " />
    <polygon
       style="stroke-width:2.00000003;stroke-miterlimit:4;stroke-dasharray:none;stroke:#f5e102;stroke-opacity:1;stroke-linejoin:round;fill:#f1fa01;fill-opacity:1;opacity:0.956562372152"
       transform="matrix(0.26458333,0,0,0.26458333,-151.50797,-75.361353)"
       id="XMLID_38_"
       class="st2"
       points="502.4,315.9 479.4,264.4 518.4,287 " />
    <polygon
       style="stroke-width:2.00000003;stroke-miterlimit:4;stroke-dasharray:none;stroke:#fdee04;stroke-opacity:1;stroke-linejoin:round;fill:#f5f801;fill-opacity:1;opacity:0.930856447501"
       transform="matrix(0.26458333,0,0,0.26458333,-151.50797,-75.361353)"
       id="XMLID_39_"
       class="st4"
       points="518.4,287.6 479.4,265 517.2,265 " />
    <polygon
       style="stroke-width:2.00000003;stroke-miterlimit:4;stroke-dasharray:none;stroke:#fefb01;stroke-opacity:1;stroke-linejoin:round;fill:#fafd00;fill-opacity:1;opacity:0.94164132099"
       transform="matrix(0.26458333,0,0,0.26458333,-151.50797,-75.361353)"
       id="XMLID_40_"
       class="st2"
       points="483.3,306.9 525.8,360.3 543.8,371.2 502.4,315.9 " />
    <polygon
       style="stroke-width:2.00000003;stroke-miterlimit:4;stroke-dasharray:none;stroke:#f4fd02;stroke-opacity:1;stroke-linejoin:round;fill:#f6ed01;fill-opacity:1;opacity:0.950250811337"
       transform="matrix(0.26458333,0,0,0.26458333,-151.50797,-75.361353)"
       id="XMLID_41_"
       class="st4"
       points="502.4,315.9 518.4,287 561.3,359.5 543.8,371.2 " />
    <polygon
       style="stroke-width:2.00000003;stroke-miterlimit:4;stroke-dasharray:none;stroke:#f2f502;stroke-opacity:1;stroke-linejoin:round;fill:#fae501;fill-opacity:1;opacity:0.860702725661"
       transform="matrix(0.26458333,0,0,0.26458333,-151.50797,-75.361353)"
       id="XMLID_42_"
       class="st5"
       points="518.4,287 517.2,264.4 557.4,332.6 561.3,359.5 " />
    <polygon
       style="stroke-width:2.00000003;stroke-miterlimit:4;stroke-dasharray:none;stroke:#fbe702;stroke-opacity:1;stroke-linejoin:round;fill:#f8fb00;fill-opacity:1;opacity:0.877498942238"
       transform="matrix(0.26458333,0,0,0.26458333,-151.50797,-75.361353)"
       id="XMLID_43_"
       class="st2"
       points="561.3,359.5 574.6,280.8 564.8,264 557.4,332.6 " />
    <polygon
       style="stroke-width:2.00000003;stroke-miterlimit:4;stroke-dasharray:none;stroke:#fdfa04;stroke-opacity:1;stroke-linejoin:round;fill:#f8e901;fill-opacity:1;opacity:0.95541881912"
       transform="matrix(0.26458333,0,0,0.26458333,-151.50797,-75.361353)"
       id="XMLID_44_"
       class="st1"
       points="574.6,280.8 564.8,264 587.4,238.6 " />
    <polygon
       style="stroke-width:2.00000003;stroke-miterlimit:4;stroke-dasharray:none;stroke:#fbfe01;stroke-opacity:1;stroke-linejoin:round;fill:#fafd04;fill-opacity:1;opacity:0.998255549043"
       transform="matrix(0.26458333,0,0,0.26458333,-151.50797,-75.361353)"
       id="XMLID_45_"
       class="st2"
       points="574.6,281 587.4,238.8 593.3,281 " />
    <polygon
       style="stroke-width:2.00000003;stroke-miterlimit:4;stroke-dasharray:none;stroke:#fde802;stroke-opacity:1;stroke-linejoin:round;fill:#fdee04;fill-opacity:1;opacity:0.990906841629"
       transform="matrix(0.26458333,0,0,0.26458333,-151.50797,-75.361353)"
       id="XMLID_46_"
       class="st4"
       points="574.6,281 561.3,359.7 587.1,329.7 593.3,281 " />
    <polygon
       style="stroke-width:2.00000003;stroke-miterlimit:4;stroke-dasharray:none;stroke:#f1fa01;stroke-opacity:1;stroke-linejoin:round;fill:#f4fd00;fill-opacity:1;opacity:0.908917894143"
       transform="matrix(0.26458333,0,0,0.26458333,-151.50797,-75.361353)"
       id="XMLID_47_"
       class="st1"
       points="591.3,342.4 587.1,329.5 620.6,312.4 " />
    <polygon
       style="stroke-width:2.00000003;stroke-miterlimit:4;stroke-dasharray:none;stroke:#feef01;stroke-opacity:1;stroke-linejoin:round;fill:#fdee00;fill-opacity:1;opacity:0.904163336787"
       transform="matrix(0.26458333,0,0,0.26458333,-151.50797,-75.361353)"
       id="XMLID_48_"
       class="st2"
       points="620.6,312.4 591.3,342.4 613.6,347.1 " />
    <polygon
       style="stroke-width:2.00000003;stroke-miterlimit:4;stroke-dasharray:none;stroke:#f5f202;stroke-opacity:1;stroke-linejoin:round;fill:#f4f700;fill-opacity:1;opacity:0.95242562851"
       transform="matrix(0.26458333,0,0,0.26458333,-151.50797,-75.361353)"
       id="XMLID_49_"
       class="st4"
       points="593.3,280.8 587.4,238.6 600.3,270.2 " />
    <polygon
       style="stroke-width:2.00000003;stroke-miterlimit:4;stroke-dasharray:none;stroke:#f6f900;stroke-opacity:1;stroke-linejoin:round;fill:#f9f600;fill-opacity:1;opacity:0.915134189463"
       transform="matrix(0.26458333,0,0,0.26458333,-151.50797,-75.361353)"
       id="XMLID_50_"
       class="st4"
       points="596.8,324.5 641.7,253.5 653.7,265.5 620.6,312.4 " />
    <polygon
       style="stroke-width:2.00000003;stroke-miterlimit:4;stroke-dasharray:none;stroke:#ecf502;stroke-opacity:1;stroke-linejoin:round;fill:#f7e302;fill-opacity:1;opacity:0.909820216085"
       transform="matrix(0.26458333,0,0,0.26458333,-151.50797,-75.361353)"
       id="XMLID_51_"
       class="st2"
       points="653.7,265.5 641.7,253.5 683,236.3 " />
    <polygon
       style="stroke-width:2.00000003;stroke-miterlimit:4;stroke-dasharray:none;stroke:#fdfa04;stroke-opacity:1;stroke-linejoin:round;fill:#f0f900;fill-opacity:1;opacity:0.973998547701"
       transform="matrix(0.26458333,0,0,0.26458333,-151.50797,-75.361353)"
       id="XMLID_52_"
       class="st4"
       points="653.7,265.5 683,236.3 672.8,275.3 " />
    <polygon
       style="stroke-width:2.00000003;stroke-miterlimit:4;stroke-dasharray:none;stroke:#f0f902;stroke-opacity:1;stroke-linejoin:round;fill:#fafd00;fill-opacity:1;opacity:0.99382254596"
       transform="matrix(0.26458333,0,0,0.26458333,-151.50797,-75.361353)"
       id="XMLID_53_"
       class="st5"
       points="653.7,265.5 620.6,312.4 613.6,347.1 672.8,275.3 " />
    <polygon
       style="stroke-width:2.00000003;stroke-miterlimit:4;stroke-dasharray:none;stroke:#fdf404;stroke-opacity:1;stroke-linejoin:round;fill:#f8ef01;fill-opacity:1;opacity:0.933260827705"
       transform="matrix(0.26458333,0,0,0.26458333,-151.50797,-75.361353)"
       id="XMLID_54_"
       class="st1"
       points="641.7,253.5 683,236.3 640.1,244.1 " />
    <polygon
       style="stroke-width:2.00000003;stroke-miterlimit:4;stroke-dasharray:none;stroke:#fdfa04;stroke-opacity:1;stroke-linejoin:round;fill:#f5e102;fill-opacity:1;opacity:0.904296798291"
       transform="matrix(0.26458333,0,0,0.26458333,-151.50797,-75.361353)"
       id="XMLID_55_"
       class="st2"
       points="596.8,324.5 641.7,253.5 640.1,244.1 599.9,298.7 587.1,329.5 " />
    <polygon
       style="stroke-width:2.00000003;stroke-miterlimit:4;stroke-dasharray:none;stroke:#f6ed01;stroke-opacity:1;stroke-linejoin:round;fill:#fef503;fill-opacity:1;opacity:0.907819484561"
       transform="matrix(0.26458333,0,0,0.26458333,-151.50797,-75.361353)"
       id="XMLID_56_"
       class="st7"
       points="600.3,270.2 599.9,298.7 587.1,329.5 593.3,280.8 " />
    <polygon
       style="stroke-width:2.00000003;stroke-miterlimit:4;stroke-dasharray:none;stroke:#fdee00;stroke-opacity:1;stroke-linejoin:round;fill:#fced03;fill-opacity:1;opacity:0.884185461594"
       transform="matrix(0.26458333,0,0,0.26458333,-151.50797,-75.361353)"
       id="XMLID_57_"
       class="st5"
       points="672.8,275.3 683,236.3 681.8,268.7 " />
    <polygon
       style="stroke-width:2.00000003;stroke-miterlimit:4;stroke-dasharray:none;stroke:#fdf402;stroke-opacity:1;stroke-linejoin:round;fill:#fde800;fill-opacity:1;opacity:0.911385640016"
       transform="matrix(0.26458333,0,0,0.26458333,-151.50797,-75.361353)"
       id="XMLID_58_"
       class="st7"
       points="681.8,268.7 607.7,361.5 613.6,347.1 672.8,275.3 " />
    <polygon
       style="stroke-width:2.00000003;stroke-miterlimit:4;stroke-dasharray:none;stroke:#fdfa02;stroke-opacity:1;stroke-linejoin:round;fill:#f1fa01;fill-opacity:1;opacity:0.90266232299"
       transform="matrix(0.26458333,0,0,0.26458333,-151.50797,-75.361353)"
       id="XMLID_59_"
       class="st2"
       points="591.3,342.4 560.5,377.5 561.3,359.5 587.1,329.5 " />
    <polygon
       style="stroke-width:2.00000003;stroke-miterlimit:4;stroke-dasharray:none;stroke:#f9e500;stroke-opacity:1;stroke-linejoin:round;fill:#fbfe03;fill-opacity:1;opacity:0.905031528974"
       transform="matrix(0.26458333,0,0,0.26458333,-151.50797,-75.361353)"
       id="XMLID_60_"
       class="st3"
       points="560.5,377 574.9,377 613.6,346.8 591.3,342 " />
    <polygon
       style="stroke-width:2.00000003;stroke-miterlimit:4;stroke-dasharray:none;stroke:#f8e901;stroke-opacity:1;stroke-linejoin:round;fill:#fbf800;fill-opacity:1;opacity:0.965719603807"
       transform="matrix(0.26458333,0,0,0.26458333,-151.50797,-75.361353)"
       id="XMLID_61_"
       class="st2"
       points="574.9,377.5 590.6,394.3 607.7,361.5 613.6,347.1 " />
    <polygon
       style="stroke-width:2.00000003;stroke-miterlimit:4;stroke-dasharray:none;stroke:#fbfe01;stroke-opacity:1;stroke-linejoin:round;fill:#f7e800;fill-opacity:1;opacity:0.873592421475"
       transform="matrix(0.26458333,0,0,0.26458333,-151.50797,-75.361353)"
       id="XMLID_62_"
       class="st4"
       points="607.7,361.5 590.6,394.3 607.3,392.3 " />
    <polygon
       style="stroke-width:2.00000003;stroke-miterlimit:4;stroke-dasharray:none;stroke:#fde802;stroke-opacity:1;stroke-linejoin:round;fill:#fbf800;fill-opacity:1;opacity:0.876297583383"
       transform="matrix(0.26458333,0,0,0.26458333,-151.50797,-75.361353)"
       id="XMLID_63_"
       class="st5"
       points="617.4,349.4 615.1,379.8 607.3,392.3 607.7,361.5 " />
    <polygon
       style="stroke-width:2.00000003;stroke-miterlimit:4;stroke-dasharray:none;stroke:#f1fa01;stroke-opacity:1;stroke-linejoin:round;fill:#f4fd02;fill-opacity:1;opacity:0.925513102096"
       transform="matrix(0.26458333,0,0,0.26458333,-151.50797,-75.361353)"
       id="XMLID_64_"
       class="st5"
       points="561.3,359.5 543.8,371.2 560.5,377.5 " />
    <polygon
       style="stroke-width:2.00000003;stroke-miterlimit:4;stroke-dasharray:none;stroke:#f7f400;stroke-opacity:1;stroke-linejoin:round;fill:#f7e800;fill-opacity:1;opacity:0.906391978587"
       transform="matrix(0.26458333,0,0,0.26458333,-151.50797,-75.361353)"
       id="XMLID_65_"
       class="st6"
       points="560.5,377.5 543.8,371.2 539.5,394.3 " />
    <polygon
       style="stroke-width:2.00000003;stroke-miterlimit:4;stroke-dasharray:none;stroke:#fbf202;stroke-opacity:1;stroke-linejoin:round;fill:#fafd00;fill-opacity:1;opacity:0.950454074865"
       transform="matrix(0.26458333,0,0,0.26458333,-151.50797,-75.361353)"
       id="XMLID_66_"
       class="st4"
       points="539.5,394.3 543.8,371.2 520,384.9 " />
    <polygon
       style="stroke-width:2.00000003;stroke-miterlimit:4;stroke-dasharray:none;stroke:#fef503;stroke-opacity:1;stroke-linejoin:round;fill:#fee901;fill-opacity:1;opacity:0.970285303051"
       transform="matrix(0.26458333,0,0,0.26458333,-151.50797,-75.361353)"
       id="XMLID_67_"
       class="st3"
       points="520,384.9 543.8,371.2 525.8,360.3 " />
    <polygon
       style="stroke-width:2.00000003;stroke-miterlimit:4;stroke-dasharray:none;stroke:#fdfa00;stroke-opacity:1;stroke-linejoin:round;fill:#fdf400;fill-opacity:1;opacity:0.955398366034"
       transform="matrix(0.26458333,0,0,0.26458333,-151.50797,-75.361353)"
       id="XMLID_68_"
       class="st1"
       points="520,384.9 525.8,360.3 514.1,370.9 " />
    <polygon
       style="stroke-width:2.00000003;stroke-miterlimit:4;stroke-dasharray:none;stroke:#f9ea00;stroke-opacity:1;stroke-linejoin:round;fill:#fdf400;fill-opacity:1;opacity:0.878600144487"
       transform="matrix(0.26458333,0,0,0.26458333,-151.50797,-75.361353)"
       id="XMLID_69_"
       class="st7"
       points="539.5,394 564,392.7 574.9,377 560.5,377 " />
    <polygon
       style="stroke-width:2.00000003;stroke-miterlimit:4;stroke-dasharray:none;stroke:#f6e101;stroke-opacity:1;stroke-linejoin:round;fill:#faeb01;fill-opacity:1;opacity:0.927776719408"
       transform="matrix(0.26458333,0,0,0.26458333,-151.50797,-75.361353)"
       id="XMLID_70_"
       class="st6"
       points="574.9,377.5 564,393.1 571.4,397.4 " />
    <polygon
       style="stroke-width:2.00000003;stroke-miterlimit:4;stroke-dasharray:none;stroke:#fae601;stroke-opacity:1;stroke-linejoin:round;fill:#f9ea00;fill-opacity:1;opacity:0.88461133883"
       transform="matrix(0.26458333,0,0,0.26458333,-151.50797,-75.361353)"
       id="XMLID_71_"
       class="st1"
       points="571.4,397.4 576.9,414.2 590.6,394.3 574.9,377.5 " />
    <polygon
       style="stroke-width:2.00000003;stroke-miterlimit:4;stroke-dasharray:none;stroke:#f9ea00;stroke-opacity:1;stroke-linejoin:round;fill:#f5f202;fill-opacity:1;opacity:0.882326373278"
       transform="matrix(0.26458333,0,0,0.26458333,-151.50797,-75.361353)"
       id="XMLID_72_"
       class="st3"
       points="590.6,394.3 576.9,414.2 591.7,418.4 " />
    <polygon
       style="stroke-width:2.00000003;stroke-miterlimit:4;stroke-dasharray:none;stroke:#f3fc03;stroke-opacity:1;stroke-linejoin:round;fill:#f7ee00;fill-opacity:1;opacity:0.94576986973"
       transform="matrix(0.26458333,0,0,0.26458333,-151.50797,-75.361353)"
       id="XMLID_73_"
       class="st5"
       points="591.7,418.4 611.6,414.2 607.3,392.3 590.6,394.3 " />
    <polygon
       style="stroke-width:2.00000003;stroke-miterlimit:4;stroke-dasharray:none;stroke:#f2fb02;stroke-opacity:1;stroke-linejoin:round;fill:#faf701;fill-opacity:1;opacity:0.970687894182"
       transform="matrix(0.26458333,0,0,0.26458333,-151.50797,-75.361353)"
       id="XMLID_74_"
       class="st7"
       points="611.6,414.2 624.1,391.5 615.1,379.8 607.3,392.3 " />
    <polygon
       style="stroke-width:2.00000003;stroke-miterlimit:4;stroke-dasharray:none;stroke:#fdfa04;stroke-opacity:1;stroke-linejoin:round;fill:#f4fd02;fill-opacity:1;opacity:0.879105615041"
       transform="matrix(0.26458333,0,0,0.26458333,-151.50797,-75.361353)"
       id="XMLID_75_"
       class="st1"
       points="551.6,311.6 542.6,307.6 542.2,267.5 " />
    <polygon
       style="stroke-width:2.00000003;stroke-miterlimit:4;stroke-dasharray:none;stroke:#faf101;stroke-opacity:1;stroke-linejoin:round;fill:#f9e500;fill-opacity:1;opacity:0.870033076115"
       transform="matrix(0.26458333,0,0,0.26458333,-151.50797,-75.361353)"
       id="XMLID_76_"
       class="st2"
       points="542.2,267.5 551.6,311.6 558.2,304.2 " />
    <polygon
       style="stroke-width:2.00000003;stroke-miterlimit:4;stroke-dasharray:none;stroke:#fdee02;stroke-opacity:1;stroke-linejoin:round;fill:#fce701;fill-opacity:1;opacity:0.86871529841"
       transform="matrix(0.26458333,0,0,0.26458333,-151.50797,-75.361353)"
       id="XMLID_77_"
       class="st4"
       points="542.2,267.5 558.2,304.2 561.6,293.7 " />
    <polygon
       style="stroke-width:2.00000003;stroke-miterlimit:4;stroke-dasharray:none;stroke:#f9f600;stroke-opacity:1;stroke-linejoin:round;fill:#f8fb00;fill-opacity:1;opacity:0.882168993464"
       transform="matrix(0.26458333,0,0,0.26458333,-151.50797,-75.361353)"
       id="XMLID_78_"
       class="st2"
       points="542.6,307.6 551.6,311.6 557.4,332.6 " />
    <polygon
       style="stroke-width:2.00000003;stroke-miterlimit:4;stroke-dasharray:none;stroke:#f2f502;stroke-opacity:1;stroke-linejoin:round;fill:#faeb01;fill-opacity:1;opacity:0.992058967746"
       transform="matrix(0.26458333,0,0,0.26458333,-151.50797,-75.361353)"
       id="XMLID_79_"
       class="st4"
       points="551.6,311.6 558.2,304.2 559.6,312.6 557.4,332.6 " />
    <polygon
       style="stroke-width:2.00000003;stroke-miterlimit:4;stroke-dasharray:none;stroke:#fced01;stroke-opacity:1;stroke-linejoin:round;fill:#f7fa01;fill-opacity:1;opacity:0.934454628534"
       transform="matrix(0.26458333,0,0,0.26458333,-151.50797,-75.361353)"
       id="XMLID_80_"
       class="st7"
       points="561.6,293.7 559.6,312.6 558.2,304.2 " />
  </g>
</svg>
